<?xml version="1.0" encoding="UTF-8" standalone="no"?>
<!DOCTYPE svg PUBLIC "-//W3C//DTD SVG 1.1//EN" "http://www.w3.org/Graphics/SVG/1.1/DTD/svg11.dtd">
<!-- Generated by Microsoft Visio, SVG Export architechture.svg Page-1 -->
<svg xmlns="http://www.w3.org/2000/svg" xmlns:xlink="http://www.w3.org/1999/xlink" xmlns:ev="http://www.w3.org/2001/xml-events"
		xmlns:v="http://schemas.microsoft.com/visio/2003/SVGExtensions/" width="4.82292in" height="3.41763in"
		viewBox="0 0 347.25 246.07" xml:space="preserve" color-interpolation-filters="sRGB" class="st20">
	<v:documentProperties v:langID="1033" v:viewMarkup="false"/>

	<style type="text/css">
	<![CDATA[
		.st1 {fill:url(#grad0-5);stroke:#547395;stroke-width:0.75}
		.st2 {fill:none;stroke:none;stroke-linecap:butt;stroke-width:0.750001}
		.st3 {fill:#feffff;font-family:Calibri;font-size:1.00001em}
		.st4 {fill:#000000;fill-opacity:0.4;stroke:#000000;stroke-opacity:0.4;stroke-width:1.02}
		.st5 {fill:#bdd0e9;stroke:#c7c8c8;stroke-width:0.25}
		.st6 {fill:#feffff;font-family:Calibri;font-size:1.16666em}
		.st7 {fill:#000000;fill-opacity:0.4;stroke:#000000;stroke-opacity:0.4;stroke-width:0.999999}
		.st8 {fill:#f7cbac;stroke:#c7c8c8;stroke-width:0.25}
		.st9 {fill:#4f83bd;stroke:#c8c8c8;stroke-width:0.25}
		.st10 {fill:#759fcc;stroke:#c7c8c8;stroke-width:0.25}
		.st11 {fill:#a8d08d;stroke:#c7c8c8;stroke-width:0.25}
		.st12 {fill:#007f7f;stroke:#c7c8c8;stroke-width:0.25}
		.st13 {fill:#f9c499;stroke:#000000;stroke-linecap:round;stroke-linejoin:round;stroke-width:0.24}
		.st14 {fill:#d9958f;stroke:none;stroke-linecap:round;stroke-linejoin:round;stroke-width:0.75}
		.st15 {stroke:#000000;stroke-linecap:round;stroke-linejoin:round;stroke-width:0.24}
		.st16 {fill:#d9958f;fill-opacity:0.4;stroke:#000000;stroke-opacity:0.4;stroke-width:0.999999}
		.st17 {fill:#d9958f;stroke:#30518f;stroke-width:0.75}
		.st18 {fill:#fcebdd;font-family:Calibri;font-size:0.833336em}
		.st19 {fill:#c4d6a0;stroke:#000000;stroke-linecap:round;stroke-linejoin:round;stroke-width:0.24}
		.st20 {fill:none;fill-rule:evenodd;font-size:12px;overflow:visible;stroke-linecap:square;stroke-miterlimit:3}
	]]>
	</style>

	<defs id="Patterns_And_Gradients">
		<linearGradient id="grad0-5" x1="0" y1="0" x2="1" y2="0" gradientTransform="rotate(-110 0.5 0.5)">
			<stop offset="0" stop-color="#668bb3" stop-opacity="1"/>
			<stop offset="0.48" stop-color="#668bb3" stop-opacity="1"/>
			<stop offset="0.82" stop-color="#759fcc" stop-opacity="1"/>
		</linearGradient>
	</defs>
	<g v:mID="0" v:index="1" v:groupContext="foregroundPage">
		<title>Page-1</title>
		<v:pageProperties v:drawingScale="1" v:pageScale="1" v:drawingUnits="19" v:shadowOffsetX="9.00001"
				v:shadowOffsetY="-9.00001"/>
		<g id="group2-1" transform="translate(2.81999,-38.8199)" v:mID="2" v:groupContext="group">
			<v:userDefs/>
			<title>Circle.17</title>
			<desc>PLATFORM</desc>
			<g id="shape3-2" v:mID="3" v:groupContext="shape">
				<title>Sheet.3</title>
				<path d="M0 156.07 A90.0001 90.0001 0 0 1 180 156.07 A90.0001 90.0001 0 0 1 -0 156.07 Z" class="st1"/>
			</g>
			<g id="shape4-6" v:mID="4" v:groupContext="shape" transform="translate(67.39,-150.001)">
				<title>Sheet.4</title>
				<desc>PLATFORM</desc>
				<v:userDefs/>
				<v:textBlock v:margins="rect(0,0,0,0)"/>
				<v:textRect cx="40.0001" cy="240.07" width="80.02" height="12"/>
				<rect x="0" y="234.07" width="80.0002" height="12" class="st2"/>
				<text x="-0" y="243.67" class="st3" v:langID="1033"><v:paragraph/><v:tabList/>PLATFORM</text>			</g>
		</g>
		<g id="group5-9" transform="translate(1.02,-1.02)" v:mID="5" v:groupContext="group">
			<v:userDefs/>
			<title>Circle.8</title>
			<desc>Stage</desc>
			<g id="shape6-10" v:mID="6" v:groupContext="shape">
				<title>Sheet.6</title>
				<path d="M0 154.27 A91.8001 91.8001 0 0 1 183.6 154.27 A91.8001 91.8001 0 0 1 0 154.27 Z" class="st4"/>
			</g>
			<g id="shape7-12" v:mID="7" v:groupContext="shape" transform="translate(1.8,-1.79998)">
				<title>Sheet.7</title>
				<path d="M0 156.07 A90.0001 90.0001 0 0 1 180 156.07 A90.0001 90.0001 0 0 1 -0 156.07 Z" class="st5"/>
			</g>
			<g id="shape8-14" v:mID="8" v:groupContext="shape" transform="translate(80.59,-85.8009)">
				<title>Sheet.8</title>
				<desc>Stage</desc>
				<v:userDefs/>
				<v:textBlock v:margins="rect(0,0,0,0)"/>
				<v:textRect cx="25" cy="240.07" width="50.02" height="12"/>
				<rect x="0" y="234.07" width="50.0002" height="12" class="st2"/>
				<text x="-0.01" y="244.27" class="st6" v:langID="1033"><v:paragraph/><v:tabList/>Stage</text>			</g>
		</g>
		<g id="group9-17" transform="translate(116.82,-29.1799)" v:mID="9" v:groupContext="group">
			<v:userDefs/>
			<title>Pie Slice</title>
			<desc>Service</desc>
			<g id="shape10-18" v:mID="10" v:groupContext="shape">
				<title>Sheet.10</title>
				<path d="M0 182.43 L63.78 246.07 A90.1912 90 -180 0 0 63.78 118.79 L0 182.43 Z" class="st7"/>
			</g>
			<g id="shape11-20" v:mID="11" v:groupContext="shape" transform="translate(3.00638,-2.27374E-13)">
				<title>Sheet.11</title>
				<path d="M0 182.43 L63.78 246.07 A90.1912 90 -180 0 0 63.78 118.79 L0 182.43 Z" class="st8"/>
			</g>
			<g id="shape12-22" v:mID="12" v:groupContext="shape" transform="translate(33.531,-57.641)">
				<title>Sheet.12</title>
				<desc>Service</desc>
				<v:userDefs/>
				<v:textBlock v:margins="rect(0,0,0,0)"/>
				<v:textRect cx="35.0745" cy="240.07" width="70.16" height="12"/>
				<rect x="0" y="234.07" width="70.1489" height="12" class="st2"/>
				<text x="-0" y="235.87" class="st6" v:langID="1033"><v:paragraph/><v:tabList/>Service<v:newlineChar/></text>			</g>
		</g>
		<g id="group13-25" transform="translate(110.819,320.718) rotate(180)" v:mID="13" v:groupContext="group">
			<title>Curved Left Arrow</title>
			<g id="group14-26" v:mID="14" v:groupContext="group">
				<title>Sheet.14</title>
				<g id="shape15-27" v:mID="15" v:groupContext="shape">
					<title>Sheet.15</title>
					<path d="M0 231.67 L14.4 217.27 L14.4 224.47 A75.5888 67.7914 -0 0 0 90 156.67 L90 171.07 A75.5888 67.7914 0
								 0 1 14.4 238.87 L14.4 246.07 L0 231.67 Z" class="st9"/>
				</g>
			</g>
			<g id="shape16-29" v:mID="16" v:groupContext="shape" transform="translate(5.19584E-13,-75)">
				<title>Sheet.16</title>
				<path d="M0 163.87 L0 178.27 A89.9867 67.7914 0 0 1 90 246.07 L90 231.67 A89.9867 67.7914 -0 0 0 -0 163.87 Z"
						class="st10"/>
			</g>
		</g>
		<g id="group17-31" transform="translate(213.194,-135.698)" v:mID="17" v:groupContext="group">
			<v:userDefs/>
			<title>Circle.21</title>
			<desc>Actor</desc>
			<g id="shape18-32" v:mID="18" v:groupContext="shape" transform="translate(2.12132,-6.82121E-13)">
				<title>Sheet.18</title>
				<path d="M0 192.07 A54.0001 54.0001 0 0 1 108 192.07 A54.0001 54.0001 0 0 1 0 192.07 Z" class="st7"/>
			</g>
			<g id="shape19-34" v:mID="19" v:groupContext="shape" transform="translate(-7.99361E-14,-2.12132)">
				<title>Sheet.19</title>
				<path d="M0 192.07 A54.0001 54.0001 0 0 1 108 192.07 A54.0001 54.0001 0 0 1 0 192.07 Z" class="st11"/>
			</g>
			<g id="shape20-36" v:mID="20" v:groupContext="shape" transform="translate(42.9399,-50.1223)">
				<title>Sheet.20</title>
				<desc>Actor</desc>
				<v:userDefs/>
				<v:textBlock v:margins="rect(0,0,0,0)"/>
				<v:textRect cx="25" cy="240.07" width="50.02" height="12"/>
				<rect x="0" y="234.07" width="50.0002" height="12" class="st2"/>
				<text x="-0.01" y="244.27" class="st6" v:langID="1033"><v:paragraph/><v:tabList/>Actor</text>			</g>
		</g>
		<g id="group21-39" transform="translate(218.813,-32.7611)" v:mID="21" v:groupContext="group">
			<v:userDefs/>
			<title>Circle.25</title>
			<desc>Content</desc>
			<g id="shape22-40" v:mID="22" v:groupContext="shape" transform="translate(3.1412,6.25278E-13)">
				<title>Sheet.22</title>
				<path d="M0 213.44 A48.3103 32.625 0 1 1 96.62 213.44 A48.3103 32.625 0 1 1 0 213.44 Z" class="st7"/>
			</g>
			<g id="shape23-42" v:mID="23" v:groupContext="shape" transform="translate(6.39488E-13,-2.12132)">
				<title>Sheet.23</title>
				<path d="M0 213.44 A48.3103 32.625 0 1 1 96.62 213.44 A48.3103 32.625 0 1 1 0 213.44 Z" class="st12"/>
			</g>
			<g id="shape24-44" v:mID="24" v:groupContext="shape" transform="translate(24.033,-28.7423)">
				<title>Sheet.24</title>
				<desc>Content</desc>
				<v:userDefs/>
				<v:textBlock v:margins="rect(0,0,0,0)"/>
				<v:textRect cx="51.8273" cy="240.07" width="103.67" height="12"/>
				<rect x="0" y="234.07" width="103.655" height="12" class="st2"/>
				<text x="-0.01" y="244.27" class="st6" v:langID="1033"><v:paragraph/><v:tabList/>Content</text>			</g>
		</g>
		<g id="group49-47" transform="translate(7.23232,-3.97113) rotate(-45)" v:mID="49" v:groupContext="group">
			<v:userDefs>
				<v:ud v:nameU="ShadowColor" v:val="VT5(#84877b)"/>
				<v:ud v:nameU="ShadowPercentage" v:val="VT0(0.6):26"/>
				<v:ud v:nameU="Scale" v:val="VT0(1):26"/>
				<v:ud v:nameU="AntiScale" v:val="VT0(1):26"/>
				<v:ud v:nameU="visVersion" v:val="VT0(15):26"/>
				<v:ud v:nameU="ShadowColor" v:prompt="" v:val="VT5(#f9c499)"/>
			</v:userDefs>
			<title>Horizontal bar</title>
			<g id="shape50-48" v:mID="50" v:groupContext="shape">
				<title>Sheet.50</title>
				<path d="M0 246.07 L114.55 246.07 L114.55 241.83 L123.55 250.83 L123.55 255.07 L114.55 246.07 L123.55 255.07 L9 255.07
							 L0 246.07 Z" class="st13"/>
			</g>
			<g id="shape51-50" v:mID="51" v:groupContext="shape">
				<title>Sheet.51</title>
				<rect x="0" y="241.949" width="114.551" height="4.00016" class="st14"/>
			</g>
			<g id="shape52-52" v:mID="52" v:groupContext="shape">
				<title>Sheet.52</title>
				<path d="M0 246.07 L0 241.83 L114.55 241.83" class="st15"/>
				<path d="M0 246.07 L114.55 246.07 L114.55 241.83" class="st15"/>
			</g>
		</g>
		<g id="group46-56" transform="translate(250.313,-148.501)" v:mID="46" v:groupContext="group">
			<title>Circle.46</title>
			<desc>Agent</desc>
			<g id="shape47-57" v:mID="47" v:groupContext="shape">
				<title>Sheet.47</title>
				<path d="M0 235.15 A21.0987 10.6875 0 0 1 42.19 235.15 A21.0987 10.6875 0 1 1 -0 235.15 Z" class="st16"/>
			</g>
			<g id="shape48-59" v:mID="48" v:groupContext="shape" transform="translate(0,-3)">
				<title>Sheet.48</title>
				<path d="M0 235.15 A21.0987 10.6875 0 0 1 42.19 235.15 A21.0987 10.6875 0 1 1 -0 235.15 Z" class="st17"/>
			</g>
			<g id="shape46-61" v:mID="46" v:groupContext="groupContent">
				<v:textBlock v:margins="rect(0,0,0,0)"/>
				<v:textRect cx="21.0938" cy="233.882" width="42.19" height="24.375"/>
				<text x="9.06" y="236.88" class="st18" v:langID="1033"><v:paragraph v:horizAlign="1"/><v:tabList/>Agent</text>			</g>
		</g>
		<g id="shape59-63" v:mID="59" v:groupContext="shape" transform="translate(23.9547,144.799) rotate(-89.2409)">
			<title>Simple Arrow</title>
			<v:userDefs>
				<v:ud v:nameU="visVersion" v:val="VT0(15):26"/>
				<v:ud v:nameU="ArrowType" v:prompt="" v:val="VT0(2):26"/>
			</v:userDefs>
			<path d="M0 246.07 L12 241.77 L12 243.92 L37.7 243.92 L37.7 246.07 L37.7 248.22 L12 248.22 L12 250.37 L0 246.07 Z"
					class="st19"/>
		</g>
		<g id="group61-65" transform="translate(151.313,-59.8134)" v:mID="61" v:groupContext="group">
			<title>Circle.61</title>
			<desc>Agent</desc>
			<g id="shape62-66" v:mID="62" v:groupContext="shape">
				<title>Sheet.62</title>
				<path d="M0 235.15 A21.0987 10.6875 0 0 1 42.19 235.15 A21.0987 10.6875 0 1 1 -0 235.15 Z" class="st16"/>
			</g>
			<g id="shape63-68" v:mID="63" v:groupContext="shape" transform="translate(0,-3)">
				<title>Sheet.63</title>
				<path d="M0 235.15 A21.0987 10.6875 0 0 1 42.19 235.15 A21.0987 10.6875 0 1 1 -0 235.15 Z" class="st17"/>
			</g>
			<g id="shape61-70" v:mID="61" v:groupContext="groupContent">
				<v:textBlock v:margins="rect(0,0,0,0)"/>
				<v:textRect cx="21.0938" cy="233.882" width="42.19" height="24.375"/>
				<text x="9.06" y="236.88" class="st18" v:langID="1033"><v:paragraph v:horizAlign="1"/><v:tabList/>Agent</text>			</g>
		</g>
	</g>
</svg>
