<?xml version="1.0" encoding="UTF-8" standalone="no"?>
<!DOCTYPE svg PUBLIC "-//W3C//DTD SVG 1.1//EN" "http://www.w3.org/Graphics/SVG/1.1/DTD/svg11.dtd">
<!-- Generated by Microsoft Visio, SVG Export cohesion.svg Page-1 -->
<svg xmlns="http://www.w3.org/2000/svg" xmlns:xlink="http://www.w3.org/1999/xlink" xmlns:ev="http://www.w3.org/2001/xml-events"
		xmlns:v="http://schemas.microsoft.com/visio/2003/SVGExtensions/" width="10.3319in" height="4.04591in"
		viewBox="0 0 743.899 291.305" xml:space="preserve" color-interpolation-filters="sRGB" class="st23">
	<v:documentProperties v:langID="1033" v:viewMarkup="false"/>

	<style type="text/css">
	<![CDATA[
		.st1 {fill:#a8d08d;stroke:#507e32;stroke-width:0.749998}
		.st2 {fill:#feffff;font-family:Calibri;font-size:0.666664em}
		.st3 {fill:#bdd0e9;stroke:#c8c8c8;stroke-width:0.249999}
		.st4 {fill:#a6b6cd;stroke:#8a98ab;stroke-width:0.749998}
		.st5 {fill:#759fcc;stroke:#c8c8c8;stroke-width:0.249999}
		.st6 {font-size:1em}
		.st7 {fill:#ed7d31;stroke:#c8c8c8;stroke-width:0.249999}
		.st8 {fill:#ffc000;stroke:#c8c8c8;stroke-width:0.249999}
		.st9 {fill:#ffffff;stroke:#000000;stroke-linecap:round;stroke-linejoin:round;stroke-width:0.75}
		.st10 {fill:#ea700d;stroke:#000080;stroke-linecap:round;stroke-linejoin:round;stroke-width:0.75}
		.st11 {fill:#000000;font-family:Calibri;font-size:0.833336em}
		.st12 {fill:#ff0000;stroke:#000080;stroke-linecap:round;stroke-linejoin:round;stroke-width:0.75}
		.st13 {fill:#ffc000;stroke:#000080;stroke-linecap:round;stroke-linejoin:round;stroke-width:0.75}
		.st14 {fill:#31859b;stroke:#000080;stroke-linecap:round;stroke-linejoin:round;stroke-width:0.75}
		.st15 {fill:#800080;stroke:#000080;stroke-linecap:round;stroke-linejoin:round;stroke-width:0.75}
		.st16 {fill:#800000;stroke:#000080;stroke-linecap:round;stroke-linejoin:round;stroke-width:0.75}
		.st17 {fill:#ff00ff;stroke:#000080;stroke-linecap:round;stroke-linejoin:round;stroke-width:0.75}
		.st18 {fill:#00ffff;stroke:#000080;stroke-linecap:round;stroke-linejoin:round;stroke-width:0.75}
		.st19 {fill:#c0c0c0;stroke:#000080;stroke-linecap:round;stroke-linejoin:round;stroke-width:0.75}
		.st20 {fill:#ffff00;stroke:#000080;stroke-linecap:round;stroke-linejoin:round;stroke-width:0.75}
		.st21 {fill:#5555ff;stroke:#000080;stroke-linecap:round;stroke-linejoin:round;stroke-width:0.75;visibility:hidden}
		.st22 {fill:#ffc000;stroke:#7f7f7f;stroke-width:0.249999}
		.st23 {fill:none;fill-rule:evenodd;font-size:12px;overflow:visible;stroke-linecap:square;stroke-miterlimit:3}
	]]>
	</style>

	<g v:mID="0" v:index="1" v:groupContext="foregroundPage">
		<title>Page-1</title>
		<v:pageProperties v:drawingScale="1" v:pageScale="1" v:drawingUnits="0" v:shadowOffsetX="9" v:shadowOffsetY="-9"/>
		<v:layer v:name="Flowchart" v:index="0"/>
		<g id="group2-1" transform="translate(20.7999,-69.3931)" v:mID="2" v:groupContext="group" v:layerMember="0">
			<v:custProps>
				<v:cp v:nameU="Cost" v:lbl="Cost" v:type="7" v:format="@" v:langID="1033"/>
				<v:cp v:nameU="Duration" v:lbl="Duration" v:type="2" v:langID="1033"/>
				<v:cp v:nameU="Resources" v:lbl="Resources" v:langID="1033"/>
			</v:custProps>
			<v:userDefs>
				<v:ud v:nameU="AntiScale" v:val="VT0(1):26"/>
				<v:ud v:nameU="visVersion" v:val="VT0(15):26"/>
			</v:userDefs>
			<title>Divided process.25</title>
			<g id="shape3-2" v:mID="3" v:groupContext="shape" v:layerMember="0" transform="translate(-20.05,-156.249)">
				<title>Sheet.3</title>
				<desc>Game Scene</desc>
				<v:userDefs/>
				<v:textBlock v:margins="rect(1.99999,1.99999,1.99999,1.99999)"/>
				<v:textRect cx="174.959" cy="284.144" width="349.92" height="14.3235"/>
				<rect x="0" y="276.982" width="349.919" height="14.3235" class="st1"/>
				<text x="134.98" y="286.54" class="st2" v:langID="1033"><v:paragraph v:horizAlign="1"/><v:tabList/>Game Scene (procedural</text>			</g>
			<g id="shape4-5" v:mID="4" v:groupContext="shape" v:layerMember="0" transform="translate(-20.05,8.52651E-13)">
				<title>Sheet.4</title>
				<rect x="0" y="135.056" width="349.919" height="156.249" class="st1"/>
			</g>
		</g>
		<g id="shape6-7" v:mID="6" v:groupContext="shape" v:layerMember="0" transform="translate(20.7999,-196.803)">
			<title>Sheet.6</title>
			<desc>Background Actor</desc>
			<v:userDefs/>
			<v:textBlock v:margins="rect(1.99999,1.99999,1.99999,1.99999)"/>
			<v:textRect cx="69.6268" cy="284.144" width="139.26" height="14.3235"/>
			<rect x="0" y="276.982" width="139.255" height="14.3235" class="st3"/>
			<text x="18.63" y="286.54" class="st2" v:langID="1033"><v:paragraph v:horizAlign="1"/><v:tabList/>Background Actor  (procedural)</text>		</g>
		<g id="shape7-10" v:mID="7" v:groupContext="shape" v:layerMember="0" transform="translate(21.3841,-126.488)">
			<title>Sheet.7</title>
			<rect x="0" y="220.978" width="139.255" height="70.3273" class="st3"/>
		</g>
		<g id="shape9-12" v:mID="9" v:groupContext="shape" v:layerMember="0" transform="translate(184.858,-196.143)">
			<title>Sheet.9</title>
			<desc>Player Actor</desc>
			<v:userDefs/>
			<v:textBlock v:margins="rect(1.99999,1.99999,1.99999,1.99999)"/>
			<v:textRect cx="69.6268" cy="284.144" width="139.26" height="14.3235"/>
			<rect x="0" y="276.982" width="139.255" height="14.3235" class="st4"/>
			<text x="27.82" y="286.54" class="st2" v:langID="1033"><v:paragraph v:horizAlign="1"/><v:tabList/>Player Actor  (procedural)</text>		</g>
		<g id="shape10-15" v:mID="10" v:groupContext="shape" v:layerMember="0" transform="translate(184.858,-80.4642)">
			<title>Sheet.10</title>
			<rect x="0" y="175.626" width="139.255" height="115.679" class="st4"/>
		</g>
		<g id="shape11-17" v:mID="11" v:groupContext="shape" v:layerMember="0" transform="translate(41.991,-157.232)">
			<title>Event</title>
			<desc>Background Render</desc>
			<v:custProps>
				<v:cp v:nameU="Cost" v:lbl="Cost" v:type="7" v:format="@" v:langID="1033"/>
				<v:cp v:nameU="Duration" v:lbl="Duration" v:type="2" v:langID="1033"/>
				<v:cp v:nameU="Resources" v:lbl="Resources" v:langID="1033"/>
			</v:custProps>
			<v:userDefs>
				<v:ud v:nameU="visVersion" v:val="VT0(15):26"/>
			</v:userDefs>
			<v:textBlock v:margins="rect(1.99999,1.99999,1.99999,1.99999)"/>
			<v:textRect cx="48.4359" cy="275.879" width="96.88" height="30.8522"/>
			<path d="M-0 281.02 A12.1095 10.2843 -180 0 0 12.11 291.31 L84.76 291.31 A12.1095 10.2843 -180 0 0 96.87 281.02 L96.87
						 270.74 A12.1095 10.2843 -180 0 0 84.76 260.45 L12.11 260.45 A12.1095 10.2843 -180 0 0 0 270.74 L0 281.02
						 Z" class="st5"/>
			<text x="16.49" y="273.48" class="st2" v:langID="1033"><v:paragraph v:horizAlign="1"/><v:tabList/>Background Render<v:newlineChar/><tspan
						x="29.59" dy="1.2em" class="st6">(functional)</tspan></text>		</g>
		<g id="shape12-21" v:mID="12" v:groupContext="shape" v:layerMember="0" transform="translate(205.996,-126.488)">
			<title>Event.28</title>
			<desc>Player Task</desc>
			<v:custProps>
				<v:cp v:nameU="Cost" v:lbl="Cost" v:type="7" v:format="@" v:langID="1033"/>
				<v:cp v:nameU="Duration" v:lbl="Duration" v:type="2" v:langID="1033"/>
				<v:cp v:nameU="Resources" v:lbl="Resources" v:langID="1033"/>
			</v:custProps>
			<v:userDefs>
				<v:ud v:nameU="visVersion" v:val="VT0(15):26"/>
			</v:userDefs>
			<v:textBlock v:margins="rect(1.99999,1.99999,1.99999,1.99999)"/>
			<v:textRect cx="48.4359" cy="277.091" width="96.88" height="28.4288"/>
			<path d="M-0 281.83 A12.1095 9.47649 -180 0 0 12.11 291.31 L84.76 291.31 A12.1095 9.47649 -180 0 0 96.87 281.83 L96.87
						 272.35 A12.1095 9.47649 -180 0 0 84.76 262.88 L12.11 262.88 A12.1095 9.47649 -180 0 0 0 272.35 L0 281.83
						 Z" class="st7"/>
			<text x="30.19" y="274.69" class="st2" v:langID="1033"><v:paragraph v:horizAlign="1"/><v:tabList/>Player Task<v:newlineChar/><tspan
						x="29.59" dy="1.2em" class="st6">(functional)</tspan></text>		</g>
		<g id="shape13-25" v:mID="13" v:groupContext="shape" v:layerMember="0" transform="translate(205.996,-159.655)">
			<title>Event.29</title>
			<desc>Player Input</desc>
			<v:custProps>
				<v:cp v:nameU="Cost" v:lbl="Cost" v:type="7" v:format="@" v:langID="1033"/>
				<v:cp v:nameU="Duration" v:lbl="Duration" v:type="2" v:langID="1033"/>
				<v:cp v:nameU="Resources" v:lbl="Resources" v:langID="1033"/>
			</v:custProps>
			<v:userDefs>
				<v:ud v:nameU="visVersion" v:val="VT0(15):26"/>
			</v:userDefs>
			<v:textBlock v:margins="rect(1.99999,1.99999,1.99999,1.99999)"/>
			<v:textRect cx="48.4359" cy="277.091" width="96.88" height="28.4288"/>
			<path d="M-0 281.83 A12.1095 9.47649 -180 0 0 12.11 291.31 L84.76 291.31 A12.1095 9.47649 -180 0 0 96.87 281.83 L96.87
						 272.35 A12.1095 9.47649 -180 0 0 84.76 262.88 L12.11 262.88 A12.1095 9.47649 -180 0 0 0 272.35 L0 281.83
						 Z" class="st8"/>
			<text x="28.78" y="274.69" class="st2" v:langID="1033"><v:paragraph v:horizAlign="1"/><v:tabList/>Player Input<v:newlineChar/><tspan
						x="29.59" dy="1.2em" class="st6">(functional)</tspan></text>		</g>
		<g id="shape14-29" v:mID="14" v:groupContext="shape" v:layerMember="0" transform="translate(205.996,-93.321)">
			<title>Event.30</title>
			<desc>Player Render</desc>
			<v:custProps>
				<v:cp v:nameU="Cost" v:lbl="Cost" v:type="7" v:format="@" v:langID="1033"/>
				<v:cp v:nameU="Duration" v:lbl="Duration" v:type="2" v:langID="1033"/>
				<v:cp v:nameU="Resources" v:lbl="Resources" v:langID="1033"/>
			</v:custProps>
			<v:userDefs>
				<v:ud v:nameU="visVersion" v:val="VT0(15):26"/>
			</v:userDefs>
			<v:textBlock v:margins="rect(1.99999,1.99999,1.99999,1.99999)"/>
			<v:textRect cx="48.4359" cy="277.091" width="96.88" height="28.4288"/>
			<path d="M-0 281.83 A12.1095 9.47649 -180 0 0 12.11 291.31 L84.76 291.31 A12.1095 9.47649 -180 0 0 96.87 281.83 L96.87
						 272.35 A12.1095 9.47649 -180 0 0 84.76 262.88 L12.11 262.88 A12.1095 9.47649 -180 0 0 0 272.35 L0 281.83
						 Z" class="st5"/>
			<text x="25.69" y="274.69" class="st2" v:langID="1033"><v:paragraph v:horizAlign="1"/><v:tabList/>Player Render<v:newlineChar/><tspan
						x="29.59" dy="1.2em" class="st6">(functional)</tspan></text>		</g>
		<g id="shape15-33" v:mID="15" v:groupContext="shape" v:layerMember="0" transform="translate(41.991,-83.1129)">
			<title>Event.40</title>
			<desc>Scene Task</desc>
			<v:custProps>
				<v:cp v:nameU="Cost" v:lbl="Cost" v:type="7" v:format="@" v:langID="1033"/>
				<v:cp v:nameU="Duration" v:lbl="Duration" v:type="2" v:langID="1033"/>
				<v:cp v:nameU="Resources" v:lbl="Resources" v:langID="1033"/>
			</v:custProps>
			<v:userDefs>
				<v:ud v:nameU="visVersion" v:val="VT0(15):26"/>
			</v:userDefs>
			<v:textBlock v:margins="rect(1.99999,1.99999,1.99999,1.99999)"/>
			<v:textRect cx="48.4359" cy="275.879" width="96.88" height="30.8522"/>
			<path d="M-0 281.02 A12.1095 10.2843 -180 0 0 12.11 291.31 L84.76 291.31 A12.1095 10.2843 -180 0 0 96.87 281.02 L96.87
						 270.74 A12.1095 10.2843 -180 0 0 84.76 260.45 L12.11 260.45 A12.1095 10.2843 -180 0 0 -0 270.74 L0 281.02
						 Z" class="st7"/>
			<text x="30.67" y="273.48" class="st2" v:langID="1033"><v:paragraph v:horizAlign="1"/><v:tabList/>Scene Task<v:newlineChar/><tspan
						x="29.59" dy="1.2em" class="st6">(functional)</tspan></text>		</g>
		<g id="group1000-37" transform="translate(399.743,-36)" v:mID="1000" v:groupContext="group">
			<v:custProps>
				<v:cp v:nameU="Slices" v:lbl="Slices" v:type="1" v:format=" 2; 3; 4; 5; 6; 7; 8; 9;10" v:invis="false"
						v:langID="1033" v:val="VT4(10)"/>
				<v:cp v:nameU="Pie1" v:lbl="Pie 1" v:type="2" v:format="" v:invis="true" v:langID="1033" v:val="VT0(10):26"/>
				<v:cp v:nameU="Pie2" v:lbl="Pie 2" v:type="2" v:format="" v:invis="true" v:langID="1033" v:val="VT0(10):26"/>
				<v:cp v:nameU="Pie3" v:lbl="Pie 3" v:type="2" v:format="" v:invis="true" v:langID="1033" v:val="VT0(10):26"/>
				<v:cp v:nameU="Pie4" v:lbl="Pie 4" v:type="2" v:format="" v:invis="true" v:langID="1033" v:val="VT0(10):26"/>
				<v:cp v:nameU="Pie5" v:lbl="Pie 5" v:type="2" v:format="" v:invis="true" v:langID="1033" v:val="VT0(10):26"/>
				<v:cp v:nameU="Pie6" v:lbl="Pie 6" v:type="2" v:format="" v:invis="true" v:langID="1033" v:val="VT0(10):26"/>
				<v:cp v:nameU="Pie7" v:lbl="Pie 7" v:type="2" v:format="" v:invis="true" v:langID="1033" v:val="VT0(10):26"/>
				<v:cp v:nameU="Pie8" v:lbl="Pie 8" v:type="2" v:format="" v:invis="true" v:langID="1033" v:val="VT0(10):26"/>
				<v:cp v:nameU="Pie9" v:lbl="Pie 9" v:type="2" v:format="" v:invis="true" v:langID="1033" v:val="VT0(10):26"/>
				<v:cp v:nameU="Pie10" v:lbl="Pie 10" v:type="2" v:format="" v:invis="true" v:langID="1033" v:val="VT0(10):26"/>
				<v:cp v:nameU="Slices" v:lbl="" v:prompt="" v:type="0" v:format="" v:sortKey="" v:invis="false" v:ask="false"
						v:langID="0" v:cal="0" v:val="VT4( 3)"/>
				<v:cp v:nameU="Pie1" v:lbl="" v:prompt="" v:type="0" v:format="" v:sortKey="" v:invis="false" v:ask="false"
						v:langID="0" v:cal="0" v:val="VT0(33.333333333333):26"/>
				<v:cp v:nameU="Pie2" v:lbl="" v:prompt="" v:type="0" v:format="" v:sortKey="" v:invis="false" v:ask="false"
						v:langID="0" v:cal="0" v:val="VT0(33.333333333333):26"/>
				<v:cp v:nameU="Pie3" v:lbl="" v:prompt="" v:type="0" v:format="" v:sortKey="" v:invis="false" v:ask="false"
						v:langID="0" v:cal="0" v:val="VT0(33.333333333333):26"/>
				<v:cp v:nameU="Pie4" v:lbl="" v:prompt="" v:type="0" v:format="" v:sortKey="" v:invis="false" v:ask="false"
						v:langID="0" v:cal="0" v:val="VT0(0):26"/>
				<v:cp v:nameU="Pie5" v:lbl="" v:prompt="" v:type="0" v:format="" v:sortKey="" v:invis="false" v:ask="false"
						v:langID="0" v:cal="0" v:val="VT0(0):26"/>
				<v:cp v:nameU="Pie6" v:lbl="" v:prompt="" v:type="0" v:format="" v:sortKey="" v:invis="false" v:ask="false"
						v:langID="0" v:cal="0" v:val="VT0(0):26"/>
				<v:cp v:nameU="Pie7" v:lbl="" v:prompt="" v:type="0" v:format="" v:sortKey="" v:invis="false" v:ask="false"
						v:langID="0" v:cal="0" v:val="VT0(0):26"/>
				<v:cp v:nameU="Pie8" v:lbl="" v:prompt="" v:type="0" v:format="" v:sortKey="" v:invis="false" v:ask="false"
						v:langID="0" v:cal="0" v:val="VT0(0):26"/>
				<v:cp v:nameU="Pie9" v:lbl="" v:prompt="" v:type="0" v:format="" v:sortKey="" v:invis="false" v:ask="false"
						v:langID="0" v:cal="0" v:val="VT0(0):26"/>
				<v:cp v:nameU="Pie10" v:lbl="" v:prompt="" v:type="0" v:format="" v:sortKey="" v:invis="false" v:ask="false"
						v:langID="0" v:cal="0" v:val="VT0(0):26"/>
			</v:custProps>
			<v:userDefs>
				<v:ud v:nameU="Pies" v:val="VT0(0):26"/>
				<v:ud v:nameU="WatchSlices" v:prompt="Calls VBA procedure to validate slice total." v:val="VT0(0):26"/>
				<v:ud v:nameU="visVersion" v:val="VT0(15):26"/>
			</v:userDefs>
			<title>Pie chart</title>
			<g id="shape1001-38" v:mID="1001" v:groupContext="shape">
				<title>Sheet.1001</title>
				<ellipse cx="127.465" cy="163.84" rx="127.465" ry="127.465" class="st9"/>
			</g>
			<g id="shape1002-40" v:mID="1002" v:groupContext="shape" transform="translate(379.743,309.493) rotate(120)">
				<title>Sheet.1002</title>
				<desc>Task Service (atomic)</desc>
				<v:textBlock v:margins="rect(0,0,0,0)"/>
				<v:textRect cx="38.2395" cy="225.072" width="127.47" height="0" transform="rotate(-120)"/>
				<path d="M0 291.31 L-63.73 180.92 A127.465 127.465 0 0 1 127.47 291.31 L0 291.31 Z" class="st10"/>
				<text x="-256.89" y="-76.42" transform="rotate(-120)" class="st11" v:langID="1033"><v:paragraph v:horizAlign="1"/><v:tabList/>Task Service (atomic)</text>			</g>
			<g id="shape1003-43" v:mID="1003" v:groupContext="shape" transform="translate(127.465,-127.465)">
				<title>Sheet.1003</title>
				<v:textBlock v:margins="rect(0,0,0,0)"/>
				<v:textRect cx="152.958" cy="291.305" width="127.47" height="0"/>
				<path d="M0 291.31 L127.47 291.31 L0 291.31 Z" class="st12"/>
			</g>
			<g id="shape1004-45" v:mID="1004" v:groupContext="shape" transform="translate(-124.813,309.493) rotate(-120)">
				<title>Sheet.1004</title>
				<desc>Input Service (atomic)</desc>
				<v:textBlock v:margins="rect(0,0,0,0)"/>
				<v:textRect cx="38.2395" cy="225.072" width="127.47" height="0" transform="rotate(120)"/>
				<path d="M0 291.31 L-63.73 180.92 A127.465 127.465 0 0 1 127.47 291.31 L0 291.31 Z" class="st13"/>
				<text x="137.97" y="-142.65" transform="rotate(120)" class="st11" v:langID="1033"><v:paragraph v:horizAlign="1"/><v:tabList/>Input Service (atomic)</text>			</g>
			<g id="shape1005-48" v:mID="1005" v:groupContext="shape" transform="translate(127.465,-127.465)">
				<title>Sheet.1005</title>
				<desc>Render Service (atomic)</desc>
				<v:textBlock v:margins="rect(0,0,0,0)"/>
				<v:textRect cx="38.2395" cy="225.072" width="127.47" height="0"/>
				<path d="M0 291.31 L-63.73 180.92 A127.465 127.465 0 0 1 127.47 291.31 L0 291.31 Z" class="st14"/>
				<text x="-10.24" y="228.07" class="st11" v:langID="1033"><v:paragraph v:horizAlign="1"/><v:tabList/>Render Service (atomic)</text>			</g>
			<g id="shape1006-51" v:mID="1006" v:groupContext="shape" transform="translate(127.465,-127.465)">
				<title>Sheet.1006</title>
				<v:textBlock v:margins="rect(0,0,0,0)"/>
				<v:textRect cx="152.958" cy="291.305" width="127.47" height="0"/>
				<path d="M0 291.31 L127.47 291.31 L0 291.31 Z" class="st15"/>
			</g>
			<g id="shape1007-53" v:mID="1007" v:groupContext="shape" transform="translate(127.465,-127.465)">
				<title>Sheet.1007</title>
				<v:textBlock v:margins="rect(0,0,0,0)"/>
				<v:textRect cx="152.958" cy="291.305" width="127.47" height="0"/>
				<path d="M0 291.31 L127.47 291.31 L0 291.31 Z" class="st16"/>
			</g>
			<g id="shape1008-55" v:mID="1008" v:groupContext="shape" transform="translate(127.465,-127.465)">
				<title>Sheet.1008</title>
				<v:textBlock v:margins="rect(0,0,0,0)"/>
				<v:textRect cx="152.958" cy="291.305" width="127.47" height="0"/>
				<path d="M0 291.31 L127.47 291.31 L0 291.31 Z" class="st17"/>
			</g>
			<g id="shape1009-57" v:mID="1009" v:groupContext="shape" transform="translate(127.465,-127.465)">
				<title>Sheet.1009</title>
				<v:textBlock v:margins="rect(0,0,0,0)"/>
				<v:textRect cx="152.958" cy="291.305" width="127.47" height="0"/>
				<path d="M0 291.31 L127.47 291.31 L0 291.31 Z" class="st18"/>
			</g>
			<g id="shape1010-59" v:mID="1010" v:groupContext="shape" transform="translate(127.465,-127.465)">
				<title>Sheet.1010</title>
				<v:textBlock v:margins="rect(0,0,0,0)"/>
				<v:textRect cx="152.958" cy="291.305" width="127.47" height="0"/>
				<path d="M0 291.31 L127.47 291.31 L0 291.31 Z" class="st19"/>
			</g>
			<g id="shape1011-61" v:mID="1011" v:groupContext="shape" transform="translate(127.465,-127.465)">
				<title>Sheet.1011</title>
				<v:textBlock v:margins="rect(0,0,0,0)"/>
				<v:textRect cx="152.958" cy="291.305" width="127.47" height="0"/>
				<path d="M0 291.31 L127.47 291.31 L0 291.31 Z" class="st20"/>
			</g>
			<g id="shape1012-63" v:mID="1012" v:groupContext="shape" transform="translate(0,36)">
				<title>Sheet.1012</title>
				<rect x="0" y="255.305" width="254.93" height="36" class="st21"/>
			</g>
		</g>
		<g id="shape1013-65" v:mID="1013" v:groupContext="shape" v:layerMember="0" transform="translate(420.987,-122.251)">
			<title>Event.1013</title>
			<desc>Player Input</desc>
			<v:custProps>
				<v:cp v:nameU="Cost" v:lbl="Cost" v:type="7" v:format="@" v:langID="1033"/>
				<v:cp v:nameU="Duration" v:lbl="Duration" v:type="2" v:langID="1033"/>
				<v:cp v:nameU="Resources" v:lbl="Resources" v:langID="1033"/>
			</v:custProps>
			<v:userDefs>
				<v:ud v:nameU="visVersion" v:val="VT0(15):26"/>
			</v:userDefs>
			<v:textBlock v:margins="rect(1.99999,1.99999,1.99999,1.99999)"/>
			<v:textRect cx="33.884" cy="277.091" width="67.77" height="28.4288"/>
			<path d="M0 281.83 A8.47133 9.47649 -180 0 0 8.47 291.31 L59.3 291.31 A8.47133 9.47649 -180 0 0 67.77 281.83 L67.77 272.35
						 A8.47133 9.47649 -180 0 0 59.3 262.88 L8.47 262.88 A8.47133 9.47649 -180 0 0 -0 272.35 L0 281.83 Z"
					class="st22"/>
			<text x="14.23" y="274.69" class="st2" v:langID="1033"><v:paragraph v:horizAlign="1"/><v:tabList/>Player Input<v:newlineChar/><tspan
						x="15.04" dy="1.2em" class="st6">(functional)</tspan></text>		</g>
		<g id="shape1014-69" v:mID="1014" v:groupContext="shape" v:layerMember="0" transform="translate(530.607,-179.539)">
			<title>Event.1014</title>
			<desc>Background Render</desc>
			<v:custProps>
				<v:cp v:nameU="Cost" v:lbl="Cost" v:type="7" v:format="@" v:langID="1033"/>
				<v:cp v:nameU="Duration" v:lbl="Duration" v:type="2" v:langID="1033"/>
				<v:cp v:nameU="Resources" v:lbl="Resources" v:langID="1033"/>
			</v:custProps>
			<v:userDefs>
				<v:ud v:nameU="visVersion" v:val="VT0(15):26"/>
			</v:userDefs>
			<v:textBlock v:margins="rect(1.99999,1.99999,1.99999,1.99999)"/>
			<v:textRect cx="48.4359" cy="275.879" width="96.88" height="30.8522"/>
			<path d="M-0 281.02 A12.1095 10.2843 -180 0 0 12.11 291.31 L84.76 291.31 A12.1095 10.2843 -180 0 0 96.87 281.02 L96.87
						 270.74 A12.1095 10.2843 -180 0 0 84.76 260.45 L12.11 260.45 A12.1095 10.2843 -180 0 0 0 270.74 L0 281.02
						 Z" class="st5"/>
			<text x="16.49" y="273.48" class="st2" v:langID="1033"><v:paragraph v:horizAlign="1"/><v:tabList/>Background Render<v:newlineChar/><tspan
						x="29.59" dy="1.2em" class="st6">(functional)</tspan></text>		</g>
		<g id="shape1015-73" v:mID="1015" v:groupContext="shape" v:layerMember="0" transform="translate(488.119,-243.751)">
			<title>Event.1015</title>
			<desc>Player Render</desc>
			<v:custProps>
				<v:cp v:nameU="Cost" v:lbl="Cost" v:type="7" v:format="@" v:langID="1033"/>
				<v:cp v:nameU="Duration" v:lbl="Duration" v:type="2" v:langID="1033"/>
				<v:cp v:nameU="Resources" v:lbl="Resources" v:langID="1033"/>
			</v:custProps>
			<v:userDefs>
				<v:ud v:nameU="visVersion" v:val="VT0(15):26"/>
			</v:userDefs>
			<v:textBlock v:margins="rect(1.99999,1.99999,1.99999,1.99999)"/>
			<v:textRect cx="48.4359" cy="277.091" width="96.88" height="28.4288"/>
			<path d="M-0 281.83 A12.1095 9.47649 -180 0 0 12.11 291.31 L84.76 291.31 A12.1095 9.47649 -180 0 0 96.87 281.83 L96.87
						 272.35 A12.1095 9.47649 -180 0 0 84.76 262.88 L12.11 262.88 A12.1095 9.47649 -180 0 0 0 272.35 L0 281.83
						 Z" class="st5"/>
			<text x="25.69" y="274.69" class="st2" v:langID="1033"><v:paragraph v:horizAlign="1"/><v:tabList/>Player Render<v:newlineChar/><tspan
						x="29.59" dy="1.2em" class="st6">(functional)</tspan></text>		</g>
		<g id="shape1016-77" v:mID="1016" v:groupContext="shape" v:layerMember="0" transform="translate(535.281,-114.613)">
			<title>Event.1016</title>
			<desc>Scene Task</desc>
			<v:custProps>
				<v:cp v:nameU="Cost" v:lbl="Cost" v:type="7" v:format="@" v:langID="1033"/>
				<v:cp v:nameU="Duration" v:lbl="Duration" v:type="2" v:langID="1033"/>
				<v:cp v:nameU="Resources" v:lbl="Resources" v:langID="1033"/>
			</v:custProps>
			<v:userDefs>
				<v:ud v:nameU="visVersion" v:val="VT0(15):26"/>
			</v:userDefs>
			<v:textBlock v:margins="rect(1.99999,1.99999,1.99999,1.99999)"/>
			<v:textRect cx="48.4359" cy="275.879" width="96.88" height="30.8522"/>
			<path d="M-0 281.02 A12.1095 10.2843 -180 0 0 12.11 291.31 L84.76 291.31 A12.1095 10.2843 -180 0 0 96.87 281.02 L96.87
						 270.74 A12.1095 10.2843 -180 0 0 84.76 260.45 L12.11 260.45 A12.1095 10.2843 -180 0 0 -0 270.74 L0 281.02
						 Z" class="st7"/>
			<text x="30.67" y="273.48" class="st2" v:langID="1033"><v:paragraph v:horizAlign="1"/><v:tabList/>Scene Task<v:newlineChar/><tspan
						x="29.59" dy="1.2em" class="st6">(functional)</tspan></text>		</g>
		<g id="shape1017-81" v:mID="1017" v:groupContext="shape" v:layerMember="0" transform="translate(492.793,-55.4651)">
			<title>Event.1017</title>
			<desc>Player Task</desc>
			<v:custProps>
				<v:cp v:nameU="Cost" v:lbl="Cost" v:type="7" v:format="@" v:langID="1033"/>
				<v:cp v:nameU="Duration" v:lbl="Duration" v:type="2" v:langID="1033"/>
				<v:cp v:nameU="Resources" v:lbl="Resources" v:langID="1033"/>
			</v:custProps>
			<v:userDefs>
				<v:ud v:nameU="visVersion" v:val="VT0(15):26"/>
			</v:userDefs>
			<v:textBlock v:margins="rect(1.99999,1.99999,1.99999,1.99999)"/>
			<v:textRect cx="48.4359" cy="277.091" width="96.88" height="28.4288"/>
			<path d="M-0 281.83 A12.1095 9.47649 -180 0 0 12.11 291.31 L84.76 291.31 A12.1095 9.47649 -180 0 0 96.87 281.83 L96.87
						 272.35 A12.1095 9.47649 -180 0 0 84.76 262.88 L12.11 262.88 A12.1095 9.47649 -180 0 0 0 272.35 L0 281.83
						 Z" class="st7"/>
			<text x="30.19" y="274.69" class="st2" v:langID="1033"><v:paragraph v:horizAlign="1"/><v:tabList/>Player Task<v:newlineChar/><tspan
						x="29.59" dy="1.2em" class="st6">(functional)</tspan></text>		</g>
	</g>
</svg>
