<?xml version="1.0" encoding="UTF-8" standalone="no"?>
<!DOCTYPE svg PUBLIC "-//W3C//DTD SVG 1.1//EN" "http://www.w3.org/Graphics/SVG/1.1/DTD/svg11.dtd">
<!-- Generated by Microsoft Visio, SVG Export refactor.svg Page-1 -->
<svg xmlns="http://www.w3.org/2000/svg" xmlns:xlink="http://www.w3.org/1999/xlink" xmlns:ev="http://www.w3.org/2001/xml-events"
		xmlns:v="http://schemas.microsoft.com/visio/2003/SVGExtensions/" width="7.02083in" height="1.67707in"
		viewBox="0 0 505.499 120.749" xml:space="preserve" color-interpolation-filters="sRGB" class="st12">
	<v:documentProperties v:langID="1033" v:viewMarkup="false"/>

	<style type="text/css">
	<![CDATA[
		.st1 {fill:#a8d08d;stroke:#507e32;stroke-width:0.749998}
		.st2 {fill:#feffff;font-family:Calibri;font-size:0.666664em}
		.st3 {fill:#bdd0e9;stroke:#c8c8c8;stroke-width:0.249999}
		.st4 {fill:#a6b6cd;stroke:#8a98ab;stroke-width:0.749998}
		.st5 {fill:#759fcc;stroke:#c8c8c8;stroke-width:0.249999}
		.st6 {fill:#ed7d31;stroke:#c8c8c8;stroke-width:0.249999}
		.st7 {fill:#00b0f0;stroke:#c8c8c8;stroke-width:0.249999}
		.st8 {marker-end:url(#mrkr4-62);stroke:#4672c4;stroke-linecap:round;stroke-linejoin:round;stroke-width:1}
		.st9 {fill:#4672c4;fill-opacity:1;stroke:#4672c4;stroke-opacity:1;stroke-width:0.28409090909091}
		.st10 {fill:#ffffff;stroke:none;stroke-linecap:butt;stroke-width:7.2}
		.st11 {fill:#3c63ac;font-family:Calibri;font-size:1.00001em}
		.st12 {fill:none;fill-rule:evenodd;font-size:12px;overflow:visible;stroke-linecap:square;stroke-miterlimit:3}
	]]>
	</style>

	<defs id="Markers">
		<g id="lend4">
			<path d="M 2 1 L 0 0 L 2 -1 L 2 1 " style="stroke:none"/>
		</g>
		<marker id="mrkr4-62" class="st9" v:arrowType="4" v:arrowSize="2" v:setback="7.04" refX="-7.04" orient="auto"
				markerUnits="strokeWidth" overflow="visible">
			<use xlink:href="#lend4" transform="scale(-3.52,-3.52) "/>
		</marker>
	</defs>
	<g v:mID="0" v:index="1" v:groupContext="foregroundPage">
		<title>Page-1</title>
		<v:pageProperties v:drawingScale="1" v:pageScale="1" v:drawingUnits="0" v:shadowOffsetX="9" v:shadowOffsetY="-9"/>
		<v:layer v:name="Flowchart" v:index="0"/>
		<v:layer v:name="Connector" v:index="1"/>
		<g id="group42-1" transform="translate(279.75,-0.749998)" v:mID="42" v:groupContext="group">
			<title>Sheet.42</title>
			<g id="group25-2" v:mID="25" v:groupContext="group" v:layerMember="0">
				<v:custProps>
					<v:cp v:nameU="Cost" v:lbl="Cost" v:type="7" v:format="@" v:langID="1033"/>
					<v:cp v:nameU="Duration" v:lbl="Duration" v:type="2" v:langID="1033"/>
					<v:cp v:nameU="Resources" v:lbl="Resources" v:langID="1033"/>
				</v:custProps>
				<v:userDefs>
					<v:ud v:nameU="AntiScale" v:val="VT0(1):26"/>
					<v:ud v:nameU="visVersion" v:val="VT0(15):26"/>
				</v:userDefs>
				<title>Divided process.25</title>
				<g id="shape26-3" v:mID="26" v:groupContext="shape" v:layerMember="0" transform="translate(-6.39488E-14,-109.235)">
					<title>Sheet.26</title>
					<desc>Game Scene</desc>
					<v:userDefs/>
					<v:textBlock v:margins="rect(1.99999,1.99999,1.99999,1.99999)"/>
					<v:textRect cx="112.499" cy="115.742" width="225" height="10.0137"/>
					<rect x="0" y="110.735" width="224.999" height="10.0137" class="st1"/>
					<text x="92.36" y="118.14" class="st2" v:langID="1033"><v:paragraph v:horizAlign="1"/><v:tabList/>Game Scene</text>				</g>
				<g id="shape27-6" v:mID="27" v:groupContext="shape" v:layerMember="0">
					<title>Sheet.27</title>
					<rect x="0" y="11.5134" width="224.999" height="109.235" class="st1"/>
				</g>
			</g>
			<g id="group28-8" transform="translate(13.5,-38.0934)" v:mID="28" v:groupContext="group" v:layerMember="0">
				<v:custProps>
					<v:cp v:nameU="Cost" v:lbl="Cost" v:type="7" v:format="@" v:langID="1033"/>
					<v:cp v:nameU="Duration" v:lbl="Duration" v:type="2" v:langID="1033"/>
					<v:cp v:nameU="Resources" v:lbl="Resources" v:langID="1033"/>
				</v:custProps>
				<v:userDefs>
					<v:ud v:nameU="AntiScale" v:val="VT0(1):26"/>
					<v:ud v:nameU="visVersion" v:val="VT0(15):26"/>
				</v:userDefs>
				<title>Divided process.19</title>
				<g id="shape29-9" v:mID="29" v:groupContext="shape" v:layerMember="0" transform="translate(0,-52.9233)">
					<title>Sheet.29</title>
					<desc>Background Actor</desc>
					<v:userDefs/>
					<v:textBlock v:margins="rect(1.99999,1.99999,1.99999,1.99999)"/>
					<v:textRect cx="44.9993" cy="115.742" width="90" height="10.0137"/>
					<rect x="0" y="110.735" width="89.9998" height="10.0137" class="st3"/>
					<text x="15.95" y="118.14" class="st2" v:langID="1033"><v:paragraph v:horizAlign="1"/><v:tabList/>Background Actor</text>				</g>
				<g id="shape30-12" v:mID="30" v:groupContext="shape" v:layerMember="0">
					<title>Sheet.30</title>
					<rect x="0" y="67.8253" width="89.9998" height="52.9235" class="st3"/>
				</g>
			</g>
			<g id="group31-14" transform="translate(121.5,-10.8693)" v:mID="31" v:groupContext="group" v:layerMember="0">
				<v:custProps>
					<v:cp v:nameU="Cost" v:lbl="Cost" v:type="7" v:format="@" v:langID="1033"/>
					<v:cp v:nameU="Duration" v:lbl="Duration" v:type="2" v:langID="1033"/>
					<v:cp v:nameU="Resources" v:lbl="Resources" v:langID="1033"/>
				</v:custProps>
				<v:userDefs>
					<v:ud v:nameU="AntiScale" v:val="VT0(1):26"/>
					<v:ud v:nameU="visVersion" v:val="VT0(15):26"/>
				</v:userDefs>
				<title>Divided process.22</title>
				<g id="shape32-15" v:mID="32" v:groupContext="shape" v:layerMember="0" transform="translate(0,-80.872)">
					<title>Sheet.32</title>
					<desc>Player Actor</desc>
					<v:userDefs/>
					<v:textBlock v:margins="rect(1.99999,1.99999,1.99999,1.99999)"/>
					<v:textRect cx="44.9993" cy="115.742" width="90" height="10.0137"/>
					<rect x="0" y="110.735" width="89.9998" height="10.0137" class="st4"/>
					<text x="25.15" y="118.14" class="st2" v:langID="1033"><v:paragraph v:horizAlign="1"/><v:tabList/>Player Actor</text>				</g>
				<g id="shape33-18" v:mID="33" v:groupContext="shape" v:layerMember="0">
					<title>Sheet.33</title>
					<rect x="0" y="39.8764" width="89.9998" height="80.8724" class="st4"/>
				</g>
			</g>
			<g id="shape34-20" v:mID="34" v:groupContext="shape" v:layerMember="0" transform="translate(22.4999,-66.2494)">
				<title>Event</title>
				<desc>Background Render</desc>
				<v:custProps>
					<v:cp v:nameU="Cost" v:lbl="Cost" v:type="7" v:format="@" v:langID="1033"/>
					<v:cp v:nameU="Duration" v:lbl="Duration" v:type="2" v:langID="1033"/>
					<v:cp v:nameU="Resources" v:lbl="Resources" v:langID="1033"/>
				</v:custProps>
				<v:userDefs>
					<v:ud v:nameU="visVersion" v:val="VT0(15):26"/>
				</v:userDefs>
				<v:textBlock v:margins="rect(1.99999,1.99999,1.99999,1.99999)"/>
				<v:textRect cx="35.9993" cy="110.811" width="72" height="19.8749"/>
				<path d="M0 114.12 A9.00018 6.62512 -180 0 0 9 120.75 L63 120.75 A9.00018 6.62512 -180 0 0 72 114.12 L72 107.5 A9.00018
							 6.62512 -180 0 0 63 100.87 L9 100.87 A9.00018 6.62512 -180 0 0 0 107.5 L0 114.12 Z" class="st5"/>
				<text x="4.05" y="113.21" class="st2" v:langID="1033"><v:paragraph v:horizAlign="1"/><v:tabList/>Background Render</text>			</g>
			<g id="shape35-23" v:mID="35" v:groupContext="shape" v:layerMember="0" transform="translate(130.5,-43.062)">
				<title>Event.28</title>
				<desc>Player Task</desc>
				<v:custProps>
					<v:cp v:nameU="Cost" v:lbl="Cost" v:type="7" v:format="@" v:langID="1033"/>
					<v:cp v:nameU="Duration" v:lbl="Duration" v:type="2" v:langID="1033"/>
					<v:cp v:nameU="Resources" v:lbl="Resources" v:langID="1033"/>
				</v:custProps>
				<v:userDefs>
					<v:ud v:nameU="visVersion" v:val="VT0(15):26"/>
				</v:userDefs>
				<v:textBlock v:margins="rect(1.99999,1.99999,1.99999,1.99999)"/>
				<v:textRect cx="35.9993" cy="110.811" width="72" height="19.8749"/>
				<path d="M0 114.12 A9.00018 6.62512 -180 0 0 9 120.75 L63 120.75 A9.00018 6.62512 -180 0 0 72 114.12 L72 107.5 A9.00018
							 6.62512 -180 0 0 63 100.87 L9 100.87 A9.00018 6.62512 -180 0 0 0 107.5 L0 114.12 Z" class="st6"/>
				<text x="17.75" y="113.21" class="st2" v:langID="1033"><v:paragraph v:horizAlign="1"/><v:tabList/>Player Task</text>			</g>
			<g id="shape36-26" v:mID="36" v:groupContext="shape" v:layerMember="0" transform="translate(130.5,-66.2494)">
				<title>Event.29</title>
				<desc>Player Input</desc>
				<v:custProps>
					<v:cp v:nameU="Cost" v:lbl="Cost" v:type="7" v:format="@" v:langID="1033"/>
					<v:cp v:nameU="Duration" v:lbl="Duration" v:type="2" v:langID="1033"/>
					<v:cp v:nameU="Resources" v:lbl="Resources" v:langID="1033"/>
				</v:custProps>
				<v:userDefs>
					<v:ud v:nameU="visVersion" v:val="VT0(15):26"/>
				</v:userDefs>
				<v:textBlock v:margins="rect(1.99999,1.99999,1.99999,1.99999)"/>
				<v:textRect cx="35.9993" cy="110.811" width="72" height="19.8749"/>
				<path d="M0 114.12 A9.00018 6.62512 -180 0 0 9 120.75 L63 120.75 A9.00018 6.62512 -180 0 0 72 114.12 L72 107.5 A9.00018
							 6.62512 -180 0 0 63 100.87 L9 100.87 A9.00018 6.62512 -180 0 0 -0 107.5 L0 114.12 Z" class="st7"/>
				<text x="16.35" y="113.21" class="st2" v:langID="1033"><v:paragraph v:horizAlign="1"/><v:tabList/>Player Input</text>			</g>
			<g id="shape37-29" v:mID="37" v:groupContext="shape" v:layerMember="0" transform="translate(130.5,-19.8743)">
				<title>Event.30</title>
				<desc>Player Render</desc>
				<v:custProps>
					<v:cp v:nameU="Cost" v:lbl="Cost" v:type="7" v:format="@" v:langID="1033"/>
					<v:cp v:nameU="Duration" v:lbl="Duration" v:type="2" v:langID="1033"/>
					<v:cp v:nameU="Resources" v:lbl="Resources" v:langID="1033"/>
				</v:custProps>
				<v:userDefs>
					<v:ud v:nameU="visVersion" v:val="VT0(15):26"/>
				</v:userDefs>
				<v:textBlock v:margins="rect(1.99999,1.99999,1.99999,1.99999)"/>
				<v:textRect cx="35.9993" cy="110.811" width="72" height="19.8749"/>
				<path d="M0 114.12 A9.00018 6.62512 -180 0 0 9 120.75 L63 120.75 A9.00018 6.62512 -180 0 0 72 114.12 L72 107.5 A9.00018
							 6.62512 -180 0 0 63 100.87 L9 100.87 A9.00018 6.62512 -180 0 0 0 107.5 L0 114.12 Z" class="st5"/>
				<text x="13.25" y="113.21" class="st2" v:langID="1033"><v:paragraph v:horizAlign="1"/><v:tabList/>Player Render</text>			</g>
			<g id="shape41-32" v:mID="41" v:groupContext="shape" v:layerMember="0" transform="translate(22.4999,-9.93686)">
				<title>Event.40</title>
				<desc>Scene Task</desc>
				<v:custProps>
					<v:cp v:nameU="Cost" v:lbl="Cost" v:type="7" v:format="@" v:langID="1033"/>
					<v:cp v:nameU="Duration" v:lbl="Duration" v:type="2" v:langID="1033"/>
					<v:cp v:nameU="Resources" v:lbl="Resources" v:langID="1033"/>
				</v:custProps>
				<v:userDefs>
					<v:ud v:nameU="visVersion" v:val="VT0(15):26"/>
				</v:userDefs>
				<v:textBlock v:margins="rect(1.99999,1.99999,1.99999,1.99999)"/>
				<v:textRect cx="35.9993" cy="110.811" width="72" height="19.8749"/>
				<path d="M0 114.12 A9.00018 6.62512 -180 0 0 9 120.75 L63 120.75 A9.00018 6.62512 -180 0 0 72 114.12 L72 107.5 A9.00018
							 6.62512 -180 0 0 63 100.87 L9 100.87 A9.00018 6.62512 -180 0 0 -0 107.5 L0 114.12 Z" class="st6"/>
				<text x="18.24" y="113.21" class="st2" v:langID="1033"><v:paragraph v:horizAlign="1"/><v:tabList/>Scene Task</text>			</g>
		</g>
		<g id="group58-35" transform="translate(0.749998,-0.749998)" v:mID="58" v:groupContext="group">
			<title>Sheet.58</title>
			<g id="group44-36" v:mID="44" v:groupContext="group" v:layerMember="0">
				<v:custProps>
					<v:cp v:nameU="Cost" v:lbl="Cost" v:type="7" v:format="@" v:langID="1033"/>
					<v:cp v:nameU="Duration" v:lbl="Duration" v:type="2" v:langID="1033"/>
					<v:cp v:nameU="Resources" v:lbl="Resources" v:langID="1033"/>
				</v:custProps>
				<v:userDefs>
					<v:ud v:nameU="AntiScale" v:val="VT0(1):26"/>
					<v:ud v:nameU="visVersion" v:val="VT0(15):26"/>
				</v:userDefs>
				<title>Divided process.25</title>
				<g id="shape45-37" v:mID="45" v:groupContext="shape" v:layerMember="0" transform="translate(0,-109.235)">
					<title>Sheet.45</title>
					<desc>Game Scene</desc>
					<v:userDefs/>
					<v:textBlock v:margins="rect(1.99999,1.99999,1.99999,1.99999)"/>
					<v:textRect cx="96.3275" cy="115.742" width="192.66" height="10.0137"/>
					<rect x="0" y="110.735" width="192.656" height="10.0137" class="st1"/>
					<text x="76.19" y="118.14" class="st2" v:langID="1033"><v:paragraph v:horizAlign="1"/><v:tabList/>Game Scene</text>				</g>
				<g id="shape46-40" v:mID="46" v:groupContext="shape" v:layerMember="0">
					<title>Sheet.46</title>
					<rect x="0" y="11.5134" width="192.656" height="109.235" class="st1"/>
				</g>
			</g>
			<g id="shape53-42" v:mID="53" v:groupContext="shape" v:layerMember="0" transform="translate(14.9063,-68.7144)">
				<title>Event</title>
				<desc>Background Render</desc>
				<v:custProps>
					<v:cp v:nameU="Cost" v:lbl="Cost" v:type="7" v:format="@" v:langID="1033"/>
					<v:cp v:nameU="Duration" v:lbl="Duration" v:type="2" v:langID="1033"/>
					<v:cp v:nameU="Resources" v:lbl="Resources" v:langID="1033"/>
				</v:custProps>
				<v:userDefs>
					<v:ud v:nameU="visVersion" v:val="VT0(15):26"/>
				</v:userDefs>
				<v:textBlock v:margins="rect(1.99999,1.99999,1.99999,1.99999)"/>
				<v:textRect cx="35.9993" cy="107.249" width="72" height="26.9999"/>
				<path d="M0 111.75 A9.00018 9.00018 -180 0 0 9 120.75 L63 120.75 A9.00018 9.00018 -180 0 0 72 111.75 L72 102.75 A9.00018
							 9.00018 -180 0 0 63 93.75 L9 93.75 A9.00018 9.00018 -180 0 0 0 102.75 L0 111.75 Z" class="st5"/>
				<text x="4.05" y="109.65" class="st2" v:langID="1033"><v:paragraph v:horizAlign="1"/><v:tabList/>Background Render</text>			</g>
			<g id="shape54-45" v:mID="54" v:groupContext="shape" v:layerMember="0" transform="translate(104.906,-37.2144)">
				<title>Event.28</title>
				<desc>Player Task</desc>
				<v:custProps>
					<v:cp v:nameU="Cost" v:lbl="Cost" v:type="7" v:format="@" v:langID="1033"/>
					<v:cp v:nameU="Duration" v:lbl="Duration" v:type="2" v:langID="1033"/>
					<v:cp v:nameU="Resources" v:lbl="Resources" v:langID="1033"/>
				</v:custProps>
				<v:userDefs>
					<v:ud v:nameU="visVersion" v:val="VT0(15):26"/>
				</v:userDefs>
				<v:textBlock v:margins="rect(1.99999,1.99999,1.99999,1.99999)"/>
				<v:textRect cx="35.9993" cy="107.249" width="72" height="26.9999"/>
				<path d="M0 111.75 A9.00018 9.00018 -180 0 0 9 120.75 L63 120.75 A9.00018 9.00018 -180 0 0 72 111.75 L72 102.75 A9.00018
							 9.00018 -180 0 0 63 93.75 L9 93.75 A9.00018 9.00018 -180 0 0 0 102.75 L0 111.75 Z" class="st6"/>
				<text x="17.75" y="109.65" class="st2" v:langID="1033"><v:paragraph v:horizAlign="1"/><v:tabList/>Player Task</text>			</g>
			<g id="shape55-48" v:mID="55" v:groupContext="shape" v:layerMember="0" transform="translate(104.906,-68.7144)">
				<title>Event.29</title>
				<desc>Player Input</desc>
				<v:custProps>
					<v:cp v:nameU="Cost" v:lbl="Cost" v:type="7" v:format="@" v:langID="1033"/>
					<v:cp v:nameU="Duration" v:lbl="Duration" v:type="2" v:langID="1033"/>
					<v:cp v:nameU="Resources" v:lbl="Resources" v:langID="1033"/>
				</v:custProps>
				<v:userDefs>
					<v:ud v:nameU="visVersion" v:val="VT0(15):26"/>
				</v:userDefs>
				<v:textBlock v:margins="rect(1.99999,1.99999,1.99999,1.99999)"/>
				<v:textRect cx="35.9993" cy="107.249" width="72" height="26.9999"/>
				<path d="M0 111.75 A9.00018 9.00018 -180 0 0 9 120.75 L63 120.75 A9.00018 9.00018 -180 0 0 72 111.75 L72 102.75 A9.00018
							 9.00018 -180 0 0 63 93.75 L9 93.75 A9.00018 9.00018 -180 0 0 0 102.75 L0 111.75 Z" class="st7"/>
				<text x="16.35" y="109.65" class="st2" v:langID="1033"><v:paragraph v:horizAlign="1"/><v:tabList/>Player Input</text>			</g>
			<g id="shape56-51" v:mID="56" v:groupContext="shape" v:layerMember="0" transform="translate(104.906,-5.71439)">
				<title>Event.30</title>
				<desc>Player Render</desc>
				<v:custProps>
					<v:cp v:nameU="Cost" v:lbl="Cost" v:type="7" v:format="@" v:langID="1033"/>
					<v:cp v:nameU="Duration" v:lbl="Duration" v:type="2" v:langID="1033"/>
					<v:cp v:nameU="Resources" v:lbl="Resources" v:langID="1033"/>
				</v:custProps>
				<v:userDefs>
					<v:ud v:nameU="visVersion" v:val="VT0(15):26"/>
				</v:userDefs>
				<v:textBlock v:margins="rect(1.99999,1.99999,1.99999,1.99999)"/>
				<v:textRect cx="35.9993" cy="107.249" width="72" height="26.9999"/>
				<path d="M0 111.75 A9.00018 9.00018 -180 0 0 9 120.75 L63 120.75 A9.00018 9.00018 -180 0 0 72 111.75 L72 102.75 A9.00018
							 9.00018 -180 0 0 63 93.75 L9 93.75 A9.00018 9.00018 -180 0 0 0 102.75 L0 111.75 Z" class="st5"/>
				<text x="13.25" y="109.65" class="st2" v:langID="1033"><v:paragraph v:horizAlign="1"/><v:tabList/>Player Render</text>			</g>
			<g id="shape57-54" v:mID="57" v:groupContext="shape" v:layerMember="0" transform="translate(14.9063,-37.2144)">
				<title>Event.40</title>
				<desc>Scene Task</desc>
				<v:custProps>
					<v:cp v:nameU="Cost" v:lbl="Cost" v:type="7" v:format="@" v:langID="1033"/>
					<v:cp v:nameU="Duration" v:lbl="Duration" v:type="2" v:langID="1033"/>
					<v:cp v:nameU="Resources" v:lbl="Resources" v:langID="1033"/>
				</v:custProps>
				<v:userDefs>
					<v:ud v:nameU="visVersion" v:val="VT0(15):26"/>
				</v:userDefs>
				<v:textBlock v:margins="rect(1.99999,1.99999,1.99999,1.99999)"/>
				<v:textRect cx="35.9993" cy="107.249" width="72" height="26.9999"/>
				<path d="M0 111.75 A9.00018 9.00018 -180 0 0 9 120.75 L63 120.75 A9.00018 9.00018 -180 0 0 72 111.75 L72 102.75 A9.00018
							 9.00018 -180 0 0 63 93.75 L9 93.75 A9.00018 9.00018 -180 0 0 0 102.75 L0 111.75 Z" class="st6"/>
				<text x="18.24" y="109.65" class="st2" v:langID="1033"><v:paragraph v:horizAlign="1"/><v:tabList/>Scene Task</text>			</g>
		</g>
		<g id="shape59-57" v:mID="59" v:groupContext="shape" v:layerMember="1" transform="translate(193.406,-46.3677)">
			<title>Dynamic connector</title>
			<desc>Refactor</desc>
			<v:textBlock v:margins="rect(4,4,4,4)"/>
			<v:textRect cx="43.172" cy="111.749" width="60" height="22.4037"/>
			<path d="M0 111.75 L79.3 111.75" class="st8"/>
			<rect v:rectContext="textBkgnd" x="22.4208" y="104.549" width="41.5022" height="14.4001" class="st10"/>
			<text x="22.42" y="115.35" class="st11" v:langID="1033"><v:paragraph v:horizAlign="1"/><v:tabList/>Refactor</text>		</g>
	</g>
</svg>
