<?xml version="1.0" encoding="UTF-8" standalone="no"?>
<!DOCTYPE svg PUBLIC "-//W3C//DTD SVG 1.1//EN" "http://www.w3.org/Graphics/SVG/1.1/DTD/svg11.dtd">
<!-- Generated by Microsoft Visio, SVG Export remote.svg Page-1 -->
<svg xmlns="http://www.w3.org/2000/svg" xmlns:xlink="http://www.w3.org/1999/xlink" xmlns:ev="http://www.w3.org/2001/xml-events"
		xmlns:v="http://schemas.microsoft.com/visio/2003/SVGExtensions/" width="7.63194in" height="7.21636in"
		viewBox="0 0 549.5 519.578" xml:space="preserve" color-interpolation-filters="sRGB" class="st31">
	<v:documentProperties v:langID="1033" v:viewMarkup="false"/>

	<style type="text/css">
	<![CDATA[
		.st1 {fill:#ffffff;stroke:#000000;stroke-linecap:round;stroke-linejoin:round;stroke-width:0.75}
		.st2 {fill:#e2efd9;stroke:#000080;stroke-linecap:round;stroke-linejoin:round;stroke-width:0.75}
		.st3 {fill:#ff0000;stroke:#000080;stroke-linecap:round;stroke-linejoin:round;stroke-width:0.75}
		.st4 {fill:#f59d56;stroke:#000080;stroke-linecap:round;stroke-linejoin:round;stroke-width:0.75}
		.st5 {fill:#31859b;stroke:#000080;stroke-linecap:round;stroke-linejoin:round;stroke-width:0.75}
		.st6 {fill:#800080;stroke:#000080;stroke-linecap:round;stroke-linejoin:round;stroke-width:0.75}
		.st7 {fill:#800000;stroke:#000080;stroke-linecap:round;stroke-linejoin:round;stroke-width:0.75}
		.st8 {fill:#ff00ff;stroke:#000080;stroke-linecap:round;stroke-linejoin:round;stroke-width:0.75}
		.st9 {fill:#00ffff;stroke:#000080;stroke-linecap:round;stroke-linejoin:round;stroke-width:0.75}
		.st10 {fill:#c0c0c0;stroke:#000080;stroke-linecap:round;stroke-linejoin:round;stroke-width:0.75}
		.st11 {fill:#ffff00;stroke:#000080;stroke-linecap:round;stroke-linejoin:round;stroke-width:0.75}
		.st12 {fill:#5555ff;stroke:#000080;stroke-linecap:round;stroke-linejoin:round;stroke-width:0.75;visibility:hidden}
		.st13 {fill:none;stroke:none;stroke-width:0.25}
		.st14 {fill:#000000;font-family:Calibri;font-size:1.16666em}
		.st15 {fill:#90aadb;fill-opacity:0.46;stroke:#90aadb;stroke-width:0.25}
		.st16 {fill:#000000;font-family:Calibri;font-size:1.5em}
		.st17 {fill:#c5e0b3;stroke:#c7c8c8;stroke-width:0.25}
		.st18 {fill:#305497;font-family:Calibri;font-size:1.00001em}
		.st19 {fill:#fff2cc;stroke:#c7c8c8;stroke-width:0.25}
		.st20 {fill:#e2efd9;stroke:#c7c8c8;stroke-width:0.25}
		.st21 {fill:#203864;font-family:Calibri;font-size:1.16666em}
		.st22 {marker-end:url(#mrkr4-93);stroke:#4672c4;stroke-linecap:round;stroke-linejoin:round;stroke-width:1}
		.st23 {fill:#4672c4;fill-opacity:1;stroke:#4672c4;stroke-opacity:1;stroke-width:0.284090844658}
		.st24 {fill:#4672c4;stroke:#c7c8c8;stroke-width:0.25}
		.st25 {fill:#feffff;font-family:Calibri;font-size:1.00001em}
		.st26 {fill:#90aadb;stroke:#c7c8c8;stroke-width:0.25}
		.st27 {fill:#feffff;font-family:Calibri;font-size:0.833336em}
		.st28 {marker-end:url(#mrkr10-114);marker-start:url(#mrkr10-112);stroke:#4672c4;stroke-linecap:round;stroke-linejoin:round;stroke-width:1}
		.st29 {fill:#000000;font-family:Calibri;font-size:0.833336em}
		.st30 {marker-end:url(#mrkr4-170);stroke:#4672c4;stroke-linecap:round;stroke-linejoin:round;stroke-width:1}
		.st31 {fill:none;fill-rule:evenodd;font-size:12px;overflow:visible;stroke-linecap:square;stroke-miterlimit:3}
	]]>
	</style>

	<defs id="Markers">
		<g id="lend4">
			<path d="M 2 1 L 0 0 L 2 -1 L 2 1 " style="stroke:none"/>
		</g>
		<marker id="mrkr4-93" class="st23" v:arrowType="4" v:arrowSize="2" v:setback="0" refX="-0" orient="auto"
				markerUnits="strokeWidth" overflow="visible">
			<use xlink:href="#lend4" transform="scale(-3.5200007983497,-3.5200007983497) "/>
		</marker>
		<g id="lend10">
			<path
					d="M 0 0.75 C -0.414214 0.75 -0.75 0.414214 -0.75 0 -0.75 -0.414214 -0.414214 -0.75 0 -0.75 0.414214 -0.75 0.75 -0.414214 0.75 0 0.75 0.414214 0.414214 0.75 0 0.75 Z "
					style="stroke:none"/>
		</g>
		<marker id="mrkr10-112" class="st23" v:arrowType="10" v:arrowSize="2" v:setback="2.28" refX="2.2800004847123" orient="auto"
				markerUnits="strokeWidth" overflow="visible">
			<use xlink:href="#lend10" transform="scale(3.5200007983497) "/>
		</marker>
		<marker id="mrkr10-114" class="st23" v:arrowType="10" v:arrowSize="2" v:setback="2.64" refX="-2.6400005987623"
				orient="auto" markerUnits="strokeWidth" overflow="visible">
			<use xlink:href="#lend10" transform="scale(-3.5200007983497,-3.5200007983497) "/>
		</marker>
		<marker id="mrkr4-170" class="st23" v:arrowType="4" v:arrowSize="2" v:setback="7.04" refX="-7.0400015966994" orient="auto"
				markerUnits="strokeWidth" overflow="visible">
			<use xlink:href="#lend4" transform="scale(-3.5200007983497,-3.5200007983497) "/>
		</marker>
	</defs>
	<g v:mID="0" v:index="1" v:groupContext="foregroundPage">
		<title>Page-1</title>
		<v:pageProperties v:drawingScale="1" v:pageScale="1" v:drawingUnits="0" v:shadowOffsetX="8.99998"
				v:shadowOffsetY="-8.99998"/>
		<v:layer v:name="Connector" v:index="0"/>
		<g id="group1-1" transform="translate(46.7224,437.657) rotate(-120)" v:mID="1" v:groupContext="group">
			<v:custProps>
				<v:cp v:nameU="Slices" v:lbl="" v:prompt="" v:type="0" v:format="" v:sortKey="" v:invis="false" v:ask="false"
						v:langID="1033" v:cal="0" v:val="VT0(0):26"/>
				<v:cp v:nameU="Pie1" v:lbl="" v:prompt="" v:type="0" v:format="" v:sortKey="" v:invis="false" v:ask="false"
						v:langID="1033" v:cal="0" v:val="VT0(0):26"/>
				<v:cp v:nameU="Pie2" v:lbl="" v:prompt="" v:type="0" v:format="" v:sortKey="" v:invis="false" v:ask="false"
						v:langID="1033" v:cal="0" v:val="VT0(0):26"/>
				<v:cp v:nameU="Pie3" v:lbl="" v:prompt="" v:type="0" v:format="" v:sortKey="" v:invis="false" v:ask="false"
						v:langID="1033" v:cal="0" v:val="VT0(0):26"/>
				<v:cp v:nameU="Pie4" v:lbl="" v:prompt="" v:type="0" v:format="" v:sortKey="" v:invis="false" v:ask="false"
						v:langID="1033" v:cal="0" v:val="VT0(0):26"/>
				<v:cp v:nameU="Pie5" v:lbl="" v:prompt="" v:type="0" v:format="" v:sortKey="" v:invis="false" v:ask="false"
						v:langID="1033" v:cal="0" v:val="VT0(0):26"/>
				<v:cp v:nameU="Pie6" v:lbl="" v:prompt="" v:type="0" v:format="" v:sortKey="" v:invis="false" v:ask="false"
						v:langID="1033" v:cal="0" v:val="VT0(0):26"/>
				<v:cp v:nameU="Pie7" v:lbl="" v:prompt="" v:type="0" v:format="" v:sortKey="" v:invis="false" v:ask="false"
						v:langID="1033" v:cal="0" v:val="VT0(0):26"/>
				<v:cp v:nameU="Pie8" v:lbl="" v:prompt="" v:type="0" v:format="" v:sortKey="" v:invis="false" v:ask="false"
						v:langID="1033" v:cal="0" v:val="VT0(0):26"/>
				<v:cp v:nameU="Pie9" v:lbl="" v:prompt="" v:type="0" v:format="" v:sortKey="" v:invis="false" v:ask="false"
						v:langID="1033" v:cal="0" v:val="VT0(0):26"/>
				<v:cp v:nameU="Pie10" v:lbl="" v:prompt="" v:type="0" v:format="" v:sortKey="" v:invis="false" v:ask="false"
						v:langID="1033" v:cal="0" v:val="VT0(0):26"/>
			</v:custProps>
			<v:userDefs>
				<v:ud v:nameU="Pies" v:prompt="" v:val="VT0(0):26"/>
				<v:ud v:nameU="WatchSlices" v:prompt="Calls VBA procedure to validate slice total." v:val="VT0(0):26"/>
				<v:ud v:nameU="visVersion" v:val="VT0(15):26"/>
			</v:userDefs>
			<title>Pie chart</title>
			<g id="shape2-2" v:mID="2" v:groupContext="shape" transform="translate(0,-35.2588)">
				<title>Sheet.2</title>
				<ellipse cx="102.692" cy="415.782" rx="102.692" ry="103.796" class="st1"/>
			</g>
			<g id="shape3-4" v:mID="3" v:groupContext="shape" transform="translate(42.3324,-136.706)">
				<title>Sheet.3</title>
				<path d="M60.36 519.58 L0 433.71 A106.144 102.692 90 0 1 163.05 519.58 L60.36 519.58 Z" class="st2"/>
			</g>
			<g id="shape4-6" v:mID="4" v:groupContext="shape" transform="translate(-317.655,686.876) rotate(-126)">
				<title>Sheet.4</title>
				<path d="M0 519.58 L102.69 519.58 L0 519.58 Z" class="st3"/>
			</g>
			<g id="shape5-8" v:mID="5" v:groupContext="shape" transform="translate(102.692,-136.706)">
				<title>Sheet.5</title>
				<desc>Mouse Input Service</desc>
				<v:userDefs/>
				<path d="M0 519.58 L102.69 519.58 L0 519.58 Z" class="st4"/>
			</g>
			<g id="shape6-10" v:mID="6" v:groupContext="shape" transform="translate(102.692,-136.706)">
				<title>Sheet.6</title>
				<desc>Render Service</desc>
				<v:userDefs/>
				<path d="M0 519.58 L101.06 519.58 L0 519.58 Z" class="st5"/>
			</g>
			<g id="shape7-12" v:mID="7" v:groupContext="shape" transform="translate(-317.655,686.876) rotate(-126)">
				<title>Sheet.7</title>
				<path d="M0 519.58 L102.69 519.58 L0 519.58 Z" class="st6"/>
			</g>
			<g id="shape8-14" v:mID="8" v:groupContext="shape" transform="translate(-317.655,686.876) rotate(-126)">
				<title>Sheet.8</title>
				<path d="M0 519.58 L102.69 519.58 L0 519.58 Z" class="st7"/>
			</g>
			<g id="shape9-16" v:mID="9" v:groupContext="shape" transform="translate(-317.655,686.876) rotate(-126)">
				<title>Sheet.9</title>
				<path d="M0 519.58 L102.69 519.58 L0 519.58 Z" class="st8"/>
			</g>
			<g id="shape10-18" v:mID="10" v:groupContext="shape" transform="translate(-317.655,686.876) rotate(-126)">
				<title>Sheet.10</title>
				<path d="M0 519.58 L102.69 519.58 L0 519.58 Z" class="st9"/>
			</g>
			<g id="shape11-20" v:mID="11" v:groupContext="shape" transform="translate(-317.655,686.876) rotate(-126)">
				<title>Sheet.11</title>
				<path d="M0 519.58 L102.69 519.58 L0 519.58 Z" class="st10"/>
			</g>
			<g id="shape12-22" v:mID="12" v:groupContext="shape" transform="translate(-318.44,685.796) rotate(-126)">
				<title>Sheet.12</title>
				<path d="M0 519.58 L101.36 519.58 L0 519.58 Z" class="st11"/>
			</g>
			<g id="shape13-24" v:mID="13" v:groupContext="shape">
				<title>Sheet.13</title>
				<rect x="0" y="489.016" width="205.384" height="30.5619" class="st12"/>
			</g>
		</g>
		<g id="shape14-26" v:mID="14" v:groupContext="shape" transform="translate(220.502,-345.329)">
			<title>Sheet.14</title>
			<desc>Task Service</desc>
			<v:userDefs/>
			<v:textBlock v:margins="rect(4,4,4,4)"/>
			<v:textRect cx="54.248" cy="503.828" width="108.51" height="31.5"/>
			<rect x="0" y="488.078" width="108.496" height="31.5" class="st13"/>
			<text x="7.24" y="508.03" class="st14" v:langID="1033"><v:paragraph v:horizAlign="1"/><v:tabList/>Message Service</text>		</g>
		<g id="shape15-29" v:mID="15" v:groupContext="shape" transform="translate(-106.276,242.808) rotate(-90)">
			<title>Circular Arrow.11</title>
			<v:userDefs>
				<v:ud v:nameU="CtrlAng1" v:prompt="" v:val="VT0(0):26"/>
				<v:ud v:nameU="CtrlAng2" v:prompt="" v:val="VT0(0):26"/>
				<v:ud v:nameU="InnerDist" v:prompt="" v:val="VT0(0):26"/>
				<v:ud v:nameU="MidAngle" v:prompt="" v:val="VT0(0):26"/>
				<v:ud v:nameU="visVersion" v:prompt="" v:val="VT0(17):26"/>
				<v:ud v:nameU="ArroOfsset" v:prompt="" v:val="VT0(0):26"/>
				<v:ud v:nameU="Row_8" v:prompt="" v:val="VT0(0):26"/>
				<v:ud v:nameU="Row_9" v:prompt="" v:val="VT0(0):26"/>
				<v:ud v:nameU="midCircleWidth" v:prompt="" v:val="VT0(0):26"/>
				<v:ud v:nameU="midCircleCenterX" v:prompt="" v:val="VT0(0):26"/>
				<v:ud v:nameU="midCircleCenterY" v:prompt="" v:val="VT0(0):26"/>
				<v:ud v:nameU="midCircleCenterX2" v:prompt="" v:val="VT0(0):26"/>
				<v:ud v:nameU="midCircleCenterY2" v:prompt="" v:val="VT0(0):26"/>
				<v:ud v:nameU="MajorAngle" v:prompt="" v:val="VT0(0):26"/>
			</v:userDefs>
			<path d="M33.16 401.43 L40.83 406.63 L36.19 372.93 L0 378.09 L7.77 383.13 A90.0767 89.282 -0 1 0 133.81 358.2 L116.37
						 383.86 A58.8711 58.3517 180 1 1 33.16 401.43 Z" class="st15"/>
		</g>
		<g id="shape16-31" v:mID="16" v:groupContext="shape" transform="translate(345.498,-345.329)">
			<title>Sheet.16</title>
			<desc>Services</desc>
			<v:userDefs/>
			<v:textBlock v:margins="rect(4,4,4,4)"/>
			<v:textRect cx="36" cy="503.828" width="72.01" height="31.5"/>
			<rect x="0" y="488.078" width="72" height="31.5" class="st13"/>
			<text x="6.31" y="509.23" class="st16" v:langID="1033"><v:paragraph v:horizAlign="1"/><v:tabList/>Services</text>		</g>
		<g id="shape17-34" v:mID="17" v:groupContext="shape" transform="translate(231.369,-314.827)">
			<title>Rounded Rectangle.1013</title>
			<desc>Task Wakeup</desc>
			<v:userDefs>
				<v:ud v:nameU="CTypeTopLeftSnip" v:prompt="" v:val="VT0(0):5"/>
				<v:ud v:nameU="CTypeTopRightSnip" v:prompt="" v:val="VT0(0):5"/>
				<v:ud v:nameU="CTypeBotLeftSnip" v:prompt="" v:val="VT0(0):5"/>
				<v:ud v:nameU="CTypeBotRightSnip" v:prompt="" v:val="VT0(0):5"/>
				<v:ud v:nameU="CornerLockHoriz" v:prompt="" v:val="VT0(1):5"/>
				<v:ud v:nameU="CornerLockVert" v:prompt="" v:val="VT0(1):5"/>
				<v:ud v:nameU="CornerLockDiag" v:prompt="" v:val="VT0(0):5"/>
				<v:ud v:nameU="TopLeftOffset" v:prompt="" v:val="VT0(0):26"/>
				<v:ud v:nameU="TopRightOffset" v:prompt="" v:val="VT0(0):26"/>
				<v:ud v:nameU="BotLeftOffset" v:prompt="" v:val="VT0(0):26"/>
				<v:ud v:nameU="BotRightOffset" v:prompt="" v:val="VT0(0):26"/>
				<v:ud v:nameU="visVersion" v:prompt="" v:val="VT0(15):26"/>
			</v:userDefs>
			<v:textBlock v:margins="rect(4,4,4,4)"/>
			<v:textRect cx="37.4062" cy="511.702" width="74.83" height="15.75"/>
			<path d="M7.48 519.58 L67.33 519.58 A7.48113 4.54993 -0 0 0 74.81 515.03 L74.81 508.38 A7.48113 4.54993 -0 0 0 67.33
						 503.83 L7.48 503.83 A7.48113 4.54993 -0 0 0 -0 508.38 L0 515.03 A7.48113 4.54993 -0 0 0 7.48 519.58 Z"
					class="st17"/>
			<text x="16.27" y="515.3" class="st18" v:langID="1033"><v:paragraph v:horizAlign="1"/><v:tabList/>Dispatch</text>		</g>
		<g id="shape18-37" v:mID="18" v:groupContext="shape" transform="translate(0.25,-275.539)">
			<title>Rectangle</title>
			<desc>Beach Scene</desc>
			<v:userDefs>
				<v:ud v:nameU="visVersion" v:val="VT0(15):26"/>
			</v:userDefs>
			<v:textBlock v:margins="rect(4,4,4,4)"/>
			<v:textRect cx="94.146" cy="425.604" width="188.3" height="187.947"/>
			<rect x="0" y="331.631" width="188.292" height="187.947" class="st19"/>
			<text x="64.83" y="355.4" class="st16" v:langID="1033"><v:paragraph v:horizAlign="1"/><v:tabList/>Player 1<v:newlineChar/><v:newlineChar/><v:newlineChar/><v:newlineChar/><v:newlineChar/><v:newlineChar/><v:newlineChar/></text>		</g>
		<g id="shape19-40" v:mID="19" v:groupContext="shape" transform="translate(38.252,-395.967)">
			<title>Rounded Rectangle.1009</title>
			<desc>Task Yield</desc>
			<v:userDefs>
				<v:ud v:nameU="CTypeTopLeftSnip" v:prompt="" v:val="VT0(0):5"/>
				<v:ud v:nameU="CTypeTopRightSnip" v:prompt="" v:val="VT0(0):5"/>
				<v:ud v:nameU="CTypeBotLeftSnip" v:prompt="" v:val="VT0(0):5"/>
				<v:ud v:nameU="CTypeBotRightSnip" v:prompt="" v:val="VT0(0):5"/>
				<v:ud v:nameU="CornerLockHoriz" v:prompt="" v:val="VT0(1):5"/>
				<v:ud v:nameU="CornerLockVert" v:prompt="" v:val="VT0(1):5"/>
				<v:ud v:nameU="CornerLockDiag" v:prompt="" v:val="VT0(0):5"/>
				<v:ud v:nameU="TopLeftOffset" v:prompt="" v:val="VT0(0):26"/>
				<v:ud v:nameU="TopRightOffset" v:prompt="" v:val="VT0(0):26"/>
				<v:ud v:nameU="BotLeftOffset" v:prompt="" v:val="VT0(0):26"/>
				<v:ud v:nameU="BotRightOffset" v:prompt="" v:val="VT0(0):26"/>
				<v:ud v:nameU="visVersion" v:prompt="" v:val="VT0(15):26"/>
			</v:userDefs>
			<v:textBlock v:margins="rect(4,4,4,4)"/>
			<v:textRect cx="54.2497" cy="503.827" width="108.52" height="31.5"/>
			<path d="M10.85 519.58 L97.65 519.58 A10.8497 9.09985 -0 0 0 108.5 510.48 L108.5 497.18 A10.8497 9.09985 -0 0 0 97.65
						 488.08 L10.85 488.08 A10.8497 9.09985 -0 0 0 -0 497.18 L0 510.48 A10.8497 9.09985 -0 0 0 10.85 519.58 Z"
					class="st20"/>
			<text x="22.12" y="508.03" class="st21" v:langID="1033"><v:paragraph v:horizAlign="1"/><v:tabList/>Start Game</text>		</g>
		<g id="shape20-43" v:mID="20" v:groupContext="shape" transform="translate(48.265,-288.503)">
			<title>Rounded Rectangle.1012</title>
			<desc>Task Continue</desc>
			<v:userDefs>
				<v:ud v:nameU="CTypeTopLeftSnip" v:prompt="" v:val="VT0(0):5"/>
				<v:ud v:nameU="CTypeTopRightSnip" v:prompt="" v:val="VT0(0):5"/>
				<v:ud v:nameU="CTypeBotLeftSnip" v:prompt="" v:val="VT0(0):5"/>
				<v:ud v:nameU="CTypeBotRightSnip" v:prompt="" v:val="VT0(0):5"/>
				<v:ud v:nameU="CornerLockHoriz" v:prompt="" v:val="VT0(1):5"/>
				<v:ud v:nameU="CornerLockVert" v:prompt="" v:val="VT0(1):5"/>
				<v:ud v:nameU="CornerLockDiag" v:prompt="" v:val="VT0(0):5"/>
				<v:ud v:nameU="TopLeftOffset" v:prompt="" v:val="VT0(0):26"/>
				<v:ud v:nameU="TopRightOffset" v:prompt="" v:val="VT0(0):26"/>
				<v:ud v:nameU="BotLeftOffset" v:prompt="" v:val="VT0(0):26"/>
				<v:ud v:nameU="BotRightOffset" v:prompt="" v:val="VT0(0):26"/>
				<v:ud v:nameU="visVersion" v:prompt="" v:val="VT0(15):26"/>
			</v:userDefs>
			<v:textBlock v:margins="rect(4,4,4,4)"/>
			<v:textRect cx="45.5" cy="503.827" width="91.01" height="31.5"/>
			<path d="M9.1 519.58 L81.9 519.58 A9.09985 9.09985 -180 0 0 91 510.48 L91 497.18 A9.09985 9.09985 -180 0 0 81.9 488.08
						 L9.1 488.08 A9.09985 9.09985 -180 0 0 0 497.18 L0 510.48 A9.09985 9.09985 -180 0 0 9.1 519.58 Z"
					class="st20"/>
			<text x="15.33" y="508.03" class="st21" v:langID="1033"><v:paragraph v:horizAlign="1"/><v:tabList/>Play Game</text>		</g>
		<g id="shape34-46" v:mID="34" v:groupContext="shape" transform="translate(233.619,-394.702)">
			<title>Rounded Rectangle.1010</title>
			<desc>Task Sleep</desc>
			<v:userDefs>
				<v:ud v:nameU="CTypeTopLeftSnip" v:prompt="" v:val="VT0(0):5"/>
				<v:ud v:nameU="CTypeTopRightSnip" v:prompt="" v:val="VT0(0):5"/>
				<v:ud v:nameU="CTypeBotLeftSnip" v:prompt="" v:val="VT0(0):5"/>
				<v:ud v:nameU="CTypeBotRightSnip" v:prompt="" v:val="VT0(0):5"/>
				<v:ud v:nameU="CornerLockHoriz" v:prompt="" v:val="VT0(1):5"/>
				<v:ud v:nameU="CornerLockVert" v:prompt="" v:val="VT0(1):5"/>
				<v:ud v:nameU="CornerLockDiag" v:prompt="" v:val="VT0(0):5"/>
				<v:ud v:nameU="TopLeftOffset" v:prompt="" v:val="VT0(0):26"/>
				<v:ud v:nameU="TopRightOffset" v:prompt="" v:val="VT0(0):26"/>
				<v:ud v:nameU="BotLeftOffset" v:prompt="" v:val="VT0(0):26"/>
				<v:ud v:nameU="BotRightOffset" v:prompt="" v:val="VT0(0):26"/>
				<v:ud v:nameU="visVersion" v:prompt="" v:val="VT0(15):26"/>
			</v:userDefs>
			<v:textBlock v:margins="rect(4,4,4,4)"/>
			<v:textRect cx="36" cy="511.702" width="72.01" height="15.75"/>
			<path d="M7.2 519.58 L64.8 519.58 A7.19988 3.59994 -0 0 0 72 515.98 L72 507.43 A7.19988 3.59994 -0 0 0 64.8 503.83 L7.2
						 503.83 A7.19988 3.59994 -0 0 0 -0 507.43 L0 515.98 A7.19988 3.59994 -0 0 0 7.2 519.58 Z" class="st17"/>
			<text x="14.51" y="515.3" class="st18" v:langID="1033"><v:paragraph v:horizAlign="1"/><v:tabList/>Message</text>		</g>
		<g id="group35-49" transform="translate(54.4433,657.942) rotate(-120)" v:mID="35" v:groupContext="group">
			<v:custProps>
				<v:cp v:nameU="Slices" v:lbl="" v:prompt="" v:type="0" v:format="" v:sortKey="" v:invis="false" v:ask="false"
						v:langID="1033" v:cal="0" v:val="VT0(0):26"/>
				<v:cp v:nameU="Pie1" v:lbl="" v:prompt="" v:type="0" v:format="" v:sortKey="" v:invis="false" v:ask="false"
						v:langID="1033" v:cal="0" v:val="VT0(0):26"/>
				<v:cp v:nameU="Pie2" v:lbl="" v:prompt="" v:type="0" v:format="" v:sortKey="" v:invis="false" v:ask="false"
						v:langID="1033" v:cal="0" v:val="VT0(0):26"/>
				<v:cp v:nameU="Pie3" v:lbl="" v:prompt="" v:type="0" v:format="" v:sortKey="" v:invis="false" v:ask="false"
						v:langID="1033" v:cal="0" v:val="VT0(0):26"/>
				<v:cp v:nameU="Pie4" v:lbl="" v:prompt="" v:type="0" v:format="" v:sortKey="" v:invis="false" v:ask="false"
						v:langID="1033" v:cal="0" v:val="VT0(0):26"/>
				<v:cp v:nameU="Pie5" v:lbl="" v:prompt="" v:type="0" v:format="" v:sortKey="" v:invis="false" v:ask="false"
						v:langID="1033" v:cal="0" v:val="VT0(0):26"/>
				<v:cp v:nameU="Pie6" v:lbl="" v:prompt="" v:type="0" v:format="" v:sortKey="" v:invis="false" v:ask="false"
						v:langID="1033" v:cal="0" v:val="VT0(0):26"/>
				<v:cp v:nameU="Pie7" v:lbl="" v:prompt="" v:type="0" v:format="" v:sortKey="" v:invis="false" v:ask="false"
						v:langID="1033" v:cal="0" v:val="VT0(0):26"/>
				<v:cp v:nameU="Pie8" v:lbl="" v:prompt="" v:type="0" v:format="" v:sortKey="" v:invis="false" v:ask="false"
						v:langID="1033" v:cal="0" v:val="VT0(0):26"/>
				<v:cp v:nameU="Pie9" v:lbl="" v:prompt="" v:type="0" v:format="" v:sortKey="" v:invis="false" v:ask="false"
						v:langID="1033" v:cal="0" v:val="VT0(0):26"/>
				<v:cp v:nameU="Pie10" v:lbl="" v:prompt="" v:type="0" v:format="" v:sortKey="" v:invis="false" v:ask="false"
						v:langID="1033" v:cal="0" v:val="VT0(0):26"/>
			</v:custProps>
			<v:userDefs>
				<v:ud v:nameU="Pies" v:prompt="" v:val="VT0(0):26"/>
				<v:ud v:nameU="WatchSlices" v:prompt="Calls VBA procedure to validate slice total." v:val="VT0(0):26"/>
				<v:ud v:nameU="visVersion" v:val="VT0(15):26"/>
			</v:userDefs>
			<title>Pie chart.129</title>
			<g id="shape36-50" v:mID="36" v:groupContext="shape" transform="translate(0,-35.2588)">
				<title>Sheet.36</title>
				<ellipse cx="102.692" cy="415.782" rx="102.692" ry="103.796" class="st1"/>
			</g>
			<g id="shape37-52" v:mID="37" v:groupContext="shape" transform="translate(42.3324,-136.706)">
				<title>Sheet.37</title>
				<path d="M60.36 519.58 L0 433.71 A106.144 102.692 90 0 1 163.05 519.58 L60.36 519.58 Z" class="st2"/>
			</g>
			<g id="shape38-54" v:mID="38" v:groupContext="shape" transform="translate(-317.655,686.876) rotate(-126)">
				<title>Sheet.38</title>
				<path d="M0 519.58 L102.69 519.58 L0 519.58 Z" class="st3"/>
			</g>
			<g id="shape39-56" v:mID="39" v:groupContext="shape" transform="translate(102.692,-136.706)">
				<title>Sheet.39</title>
				<desc>Mouse Input Service</desc>
				<v:userDefs/>
				<path d="M0 519.58 L102.69 519.58 L0 519.58 Z" class="st4"/>
			</g>
			<g id="shape40-58" v:mID="40" v:groupContext="shape" transform="translate(102.692,-136.706)">
				<title>Sheet.40</title>
				<desc>Render Service</desc>
				<v:userDefs/>
				<path d="M0 519.58 L101.06 519.58 L0 519.58 Z" class="st5"/>
			</g>
			<g id="shape41-60" v:mID="41" v:groupContext="shape" transform="translate(-317.655,686.876) rotate(-126)">
				<title>Sheet.41</title>
				<path d="M0 519.58 L102.69 519.58 L0 519.58 Z" class="st6"/>
			</g>
			<g id="shape42-62" v:mID="42" v:groupContext="shape" transform="translate(-317.655,686.876) rotate(-126)">
				<title>Sheet.42</title>
				<path d="M0 519.58 L102.69 519.58 L0 519.58 Z" class="st7"/>
			</g>
			<g id="shape43-64" v:mID="43" v:groupContext="shape" transform="translate(-317.655,686.876) rotate(-126)">
				<title>Sheet.43</title>
				<path d="M0 519.58 L102.69 519.58 L0 519.58 Z" class="st8"/>
			</g>
			<g id="shape44-66" v:mID="44" v:groupContext="shape" transform="translate(-317.655,686.876) rotate(-126)">
				<title>Sheet.44</title>
				<path d="M0 519.58 L102.69 519.58 L0 519.58 Z" class="st9"/>
			</g>
			<g id="shape45-68" v:mID="45" v:groupContext="shape" transform="translate(-317.655,686.876) rotate(-126)">
				<title>Sheet.45</title>
				<path d="M0 519.58 L102.69 519.58 L0 519.58 Z" class="st10"/>
			</g>
			<g id="shape46-70" v:mID="46" v:groupContext="shape" transform="translate(-318.44,685.796) rotate(-126)">
				<title>Sheet.46</title>
				<path d="M0 519.58 L101.36 519.58 L0 519.58 Z" class="st11"/>
			</g>
			<g id="shape47-72" v:mID="47" v:groupContext="shape">
				<title>Sheet.47</title>
				<rect x="0" y="489.016" width="205.384" height="30.5619" class="st12"/>
			</g>
		</g>
		<g id="shape48-74" v:mID="48" v:groupContext="shape" transform="translate(227.004,-125.043)">
			<title>Sheet.48</title>
			<desc>Task Service</desc>
			<v:userDefs/>
			<v:textBlock v:margins="rect(4,4,4,4)"/>
			<v:textRect cx="54.248" cy="503.828" width="108.51" height="31.5"/>
			<rect x="0" y="488.078" width="108.496" height="31.5" class="st13"/>
			<text x="7.24" y="508.03" class="st14" v:langID="1033"><v:paragraph v:horizAlign="1"/><v:tabList/>Message Service</text>		</g>
		<g id="shape49-77" v:mID="49" v:groupContext="shape" transform="translate(-98.5551,463.093) rotate(-90)">
			<title>Circular Arrow.143</title>
			<v:userDefs>
				<v:ud v:nameU="CtrlAng1" v:prompt="" v:val="VT0(0):26"/>
				<v:ud v:nameU="CtrlAng2" v:prompt="" v:val="VT0(0):26"/>
				<v:ud v:nameU="InnerDist" v:prompt="" v:val="VT0(0):26"/>
				<v:ud v:nameU="MidAngle" v:prompt="" v:val="VT0(0):26"/>
				<v:ud v:nameU="visVersion" v:prompt="" v:val="VT0(17):26"/>
				<v:ud v:nameU="ArroOfsset" v:prompt="" v:val="VT0(0):26"/>
				<v:ud v:nameU="Row_8" v:prompt="" v:val="VT0(0):26"/>
				<v:ud v:nameU="Row_9" v:prompt="" v:val="VT0(0):26"/>
				<v:ud v:nameU="midCircleWidth" v:prompt="" v:val="VT0(0):26"/>
				<v:ud v:nameU="midCircleCenterX" v:prompt="" v:val="VT0(0):26"/>
				<v:ud v:nameU="midCircleCenterY" v:prompt="" v:val="VT0(0):26"/>
				<v:ud v:nameU="midCircleCenterX2" v:prompt="" v:val="VT0(0):26"/>
				<v:ud v:nameU="midCircleCenterY2" v:prompt="" v:val="VT0(0):26"/>
				<v:ud v:nameU="MajorAngle" v:prompt="" v:val="VT0(0):26"/>
			</v:userDefs>
			<path d="M33.16 401.43 L40.83 406.63 L36.19 372.93 L0 378.09 L7.77 383.13 A90.0767 89.282 -0 1 0 133.81 358.2 L116.37
						 383.86 A58.8711 58.3517 180 1 1 33.16 401.43 Z" class="st15"/>
		</g>
		<g id="shape50-79" v:mID="50" v:groupContext="shape" transform="translate(353.219,-125.043)">
			<title>Sheet.50</title>
			<desc>Services</desc>
			<v:userDefs/>
			<v:textBlock v:margins="rect(4,4,4,4)"/>
			<v:textRect cx="36" cy="503.828" width="72.01" height="31.5"/>
			<rect x="0" y="488.078" width="72" height="31.5" class="st13"/>
			<text x="6.31" y="509.23" class="st16" v:langID="1033"><v:paragraph v:horizAlign="1"/><v:tabList/>Services</text>		</g>
		<g id="shape51-82" v:mID="51" v:groupContext="shape" transform="translate(239.09,-94.5416)">
			<title>Rounded Rectangle.145</title>
			<desc>Task Wakeup</desc>
			<v:userDefs>
				<v:ud v:nameU="CTypeTopLeftSnip" v:prompt="" v:val="VT0(0):5"/>
				<v:ud v:nameU="CTypeTopRightSnip" v:prompt="" v:val="VT0(0):5"/>
				<v:ud v:nameU="CTypeBotLeftSnip" v:prompt="" v:val="VT0(0):5"/>
				<v:ud v:nameU="CTypeBotRightSnip" v:prompt="" v:val="VT0(0):5"/>
				<v:ud v:nameU="CornerLockHoriz" v:prompt="" v:val="VT0(1):5"/>
				<v:ud v:nameU="CornerLockVert" v:prompt="" v:val="VT0(1):5"/>
				<v:ud v:nameU="CornerLockDiag" v:prompt="" v:val="VT0(0):5"/>
				<v:ud v:nameU="TopLeftOffset" v:prompt="" v:val="VT0(0):26"/>
				<v:ud v:nameU="TopRightOffset" v:prompt="" v:val="VT0(0):26"/>
				<v:ud v:nameU="BotLeftOffset" v:prompt="" v:val="VT0(0):26"/>
				<v:ud v:nameU="BotRightOffset" v:prompt="" v:val="VT0(0):26"/>
				<v:ud v:nameU="visVersion" v:prompt="" v:val="VT0(15):26"/>
			</v:userDefs>
			<v:textBlock v:margins="rect(4,4,4,4)"/>
			<v:textRect cx="37.4062" cy="511.702" width="74.83" height="15.75"/>
			<path d="M7.48 519.58 L67.33 519.58 A7.48113 4.54993 -0 0 0 74.81 515.03 L74.81 508.38 A7.48113 4.54993 -0 0 0 67.33
						 503.83 L7.48 503.83 A7.48113 4.54993 -0 0 0 -0 508.38 L0 515.03 A7.48113 4.54993 -0 0 0 7.48 519.58 Z"
					class="st17"/>
			<text x="16.27" y="515.3" class="st18" v:langID="1033"><v:paragraph v:horizAlign="1"/><v:tabList/>Dispatch</text>		</g>
		<g id="shape56-85" v:mID="56" v:groupContext="shape" transform="translate(241.34,-174.417)">
			<title>Rounded Rectangle.149</title>
			<desc>Task Sleep</desc>
			<v:userDefs>
				<v:ud v:nameU="CTypeTopLeftSnip" v:prompt="" v:val="VT0(0):5"/>
				<v:ud v:nameU="CTypeTopRightSnip" v:prompt="" v:val="VT0(0):5"/>
				<v:ud v:nameU="CTypeBotLeftSnip" v:prompt="" v:val="VT0(0):5"/>
				<v:ud v:nameU="CTypeBotRightSnip" v:prompt="" v:val="VT0(0):5"/>
				<v:ud v:nameU="CornerLockHoriz" v:prompt="" v:val="VT0(1):5"/>
				<v:ud v:nameU="CornerLockVert" v:prompt="" v:val="VT0(1):5"/>
				<v:ud v:nameU="CornerLockDiag" v:prompt="" v:val="VT0(0):5"/>
				<v:ud v:nameU="TopLeftOffset" v:prompt="" v:val="VT0(0):26"/>
				<v:ud v:nameU="TopRightOffset" v:prompt="" v:val="VT0(0):26"/>
				<v:ud v:nameU="BotLeftOffset" v:prompt="" v:val="VT0(0):26"/>
				<v:ud v:nameU="BotRightOffset" v:prompt="" v:val="VT0(0):26"/>
				<v:ud v:nameU="visVersion" v:prompt="" v:val="VT0(15):26"/>
			</v:userDefs>
			<v:textBlock v:margins="rect(4,4,4,4)"/>
			<v:textRect cx="36" cy="511.702" width="72.01" height="15.75"/>
			<path d="M7.2 519.58 L64.8 519.58 A7.19988 3.59994 -0 0 0 72 515.98 L72 507.43 A7.19988 3.59994 -0 0 0 64.8 503.83 L7.2
						 503.83 A7.19988 3.59994 -0 0 0 -0 507.43 L0 515.98 A7.19988 3.59994 -0 0 0 7.2 519.58 Z" class="st17"/>
			<text x="14.51" y="515.3" class="st18" v:langID="1033"><v:paragraph v:horizAlign="1"/><v:tabList/>Message</text>		</g>
		<g id="shape60-88" v:mID="60" v:groupContext="shape" v:layerMember="0" transform="translate(142.619,-401.539)">
			<title>Dynamic connector.1011</title>
			<path d="M0 519.58 L86.33 519.58 L91 519.58" class="st22"/>
		</g>
		<g id="group61-94" transform="translate(458.25,-147.884)" v:mID="61" v:groupContext="group">
			<v:userDefs>
				<v:ud v:nameU="visVersion" v:prompt="" v:val="VT0(15):26"/>
			</v:userDefs>
			<title>Can</title>
			<desc>Matchup Server</desc>
			<g id="shape62-95" v:mID="62" v:groupContext="shape">
				<title>Sheet.62</title>
				<v:userDefs>
					<v:ud v:nameU="ControlHalfHeight" v:prompt="" v:val="VT0(0.125):1"/>
					<v:ud v:nameU="FillForegnd" v:prompt="" v:val="VT5(1)"/>
					<v:ud v:nameU="ControlHalfHeight" v:prompt="" v:val="VT0(0.30542358167242):1"/>
					<v:ud v:nameU="FillForegnd" v:prompt="" v:val="VT5(#4672c4)"/>
				</v:userDefs>
				<path d="M0 497.59 A45.5 21.9905 -180 1 0 91 497.59 L91 321.66 L0 321.66 L0 497.59 Z" class="st24"/>
			</g>
			<g id="shape61-97" v:mID="61" v:groupContext="groupContent">
				<v:textBlock v:margins="rect(4,4,4,4)"/>
				<v:textRect cx="45.5" cy="409.626" width="91" height="219.905"/>
				<ellipse cx="45.5" cy="321.664" rx="45.5" ry="21.9905" class="st24"/>
				<text x="6.51" y="363.43" class="st25" v:langID="1033"><v:paragraph v:horizAlign="1"/><v:tabList/>Matchup Server<v:newlineChar/><v:newlineChar/><v:newlineChar/><v:newlineChar/><v:newlineChar/><v:newlineChar/></text>			</g>
		</g>
		<g id="shape64-100" v:mID="64" v:groupContext="shape" transform="translate(466.345,-174.289)">
			<title>Ellipse</title>
			<desc>Connection 2</desc>
			<v:userDefs>
				<v:ud v:nameU="visVersion" v:val="VT0(15):26"/>
			</v:userDefs>
			<v:textBlock v:margins="rect(4,4,4,4)"/>
			<v:textRect cx="37.405" cy="501.699" width="65.46" height="31.289"/>
			<path d="M0 501.7 A37.405 17.8794 0 0 1 74.81 501.7 A37.405 17.8794 0 1 1 0 501.7 Z" class="st26"/>
			<text x="10.5" y="504.7" class="st27" v:langID="1033"><v:paragraph v:horizAlign="1"/><v:tabList/>Connection 2</text>		</g>
		<g id="shape65-103" v:mID="65" v:groupContext="shape" transform="translate(466.345,-244.16)">
			<title>Ellipse.65</title>
			<desc>Connection 1</desc>
			<v:userDefs>
				<v:ud v:nameU="visVersion" v:val="VT0(15):26"/>
			</v:userDefs>
			<v:textBlock v:margins="rect(4,4,4,4)"/>
			<v:textRect cx="37.405" cy="501.699" width="65.46" height="31.289"/>
			<path d="M0 501.7 A37.405 17.8794 0 1 1 74.81 501.7 A37.405 17.8794 0 1 1 0 501.7 Z" class="st26"/>
			<text x="10.5" y="504.7" class="st27" v:langID="1033"><v:paragraph v:horizAlign="1"/><v:tabList/>Connection 1</text>		</g>
		<g id="shape69-106" v:mID="69" v:groupContext="shape" v:layerMember="0" transform="translate(573.855,-282.429) rotate(30)">
			<title>Dynamic connector.69</title>
			<path d="M178.82 519.58 L178.46 519.58 L9.09 519.58 L2.64 519.58" class="st28"/>
		</g>
		<g id="shape70-115" v:mID="70" v:groupContext="shape" v:layerMember="0" transform="translate(190.204,-132.476) rotate(-15)">
			<title>Dynamic connector.70</title>
			<path d="M148.71 519.58 L148.35 519.58 L7.58 519.58 L2.64 519.58" class="st28"/>
		</g>
		<g id="shape71-122" v:mID="71" v:groupContext="shape" transform="translate(0.25,-32.8021)">
			<title>Rectangle.71</title>
			<desc>Beach Scene</desc>
			<v:userDefs>
				<v:ud v:nameU="visVersion" v:val="VT0(15):26"/>
			</v:userDefs>
			<v:textBlock v:margins="rect(4,4,4,4)"/>
			<v:textRect cx="94.146" cy="401.584" width="188.3" height="235.987"/>
			<rect x="0" y="283.591" width="188.292" height="235.987" class="st19"/>
			<text x="64.83" y="309.78" class="st16" v:langID="1033"><v:paragraph v:horizAlign="1"/><v:tabList/>Player 2<v:newlineChar/><v:newlineChar/><v:newlineChar/><v:newlineChar/><v:newlineChar/><v:newlineChar/><v:newlineChar/><v:newlineChar/><v:newlineChar/></text>		</g>
		<g id="shape72-125" v:mID="72" v:groupContext="shape" transform="translate(31.502,-122.539)">
			<title>Rounded Rectangle.72</title>
			<desc>Task Yield</desc>
			<v:userDefs>
				<v:ud v:nameU="CTypeTopLeftSnip" v:prompt="" v:val="VT0(0):5"/>
				<v:ud v:nameU="CTypeTopRightSnip" v:prompt="" v:val="VT0(0):5"/>
				<v:ud v:nameU="CTypeBotLeftSnip" v:prompt="" v:val="VT0(0):5"/>
				<v:ud v:nameU="CTypeBotRightSnip" v:prompt="" v:val="VT0(0):5"/>
				<v:ud v:nameU="CornerLockHoriz" v:prompt="" v:val="VT0(1):5"/>
				<v:ud v:nameU="CornerLockVert" v:prompt="" v:val="VT0(1):5"/>
				<v:ud v:nameU="CornerLockDiag" v:prompt="" v:val="VT0(0):5"/>
				<v:ud v:nameU="TopLeftOffset" v:prompt="" v:val="VT0(0):26"/>
				<v:ud v:nameU="TopRightOffset" v:prompt="" v:val="VT0(0):26"/>
				<v:ud v:nameU="BotLeftOffset" v:prompt="" v:val="VT0(0):26"/>
				<v:ud v:nameU="BotRightOffset" v:prompt="" v:val="VT0(0):26"/>
				<v:ud v:nameU="visVersion" v:prompt="" v:val="VT0(15):26"/>
			</v:userDefs>
			<v:textBlock v:margins="rect(4,4,4,4)"/>
			<v:textRect cx="62.125" cy="503.827" width="124.27" height="31.5"/>
			<path d="M12.43 519.58 L111.83 519.58 A12.4248 9.09985 -0 0 0 124.25 510.48 L124.25 497.18 A12.4248 9.09985 -0 0 0 111.83
						 488.08 L12.43 488.08 A12.4248 9.09985 -0 0 0 -0 497.18 L0 510.48 A12.4248 9.09985 -0 0 0 12.43 519.58 Z"
					class="st20"/>
			<text x="8.11" y="508.03" class="st21" v:langID="1033"><v:paragraph v:horizAlign="1"/><v:tabList/>Join Player 1 Game</text>		</g>
		<g id="shape73-128" v:mID="73" v:groupContext="shape" transform="translate(48.896,-39.289)">
			<title>Rounded Rectangle.73</title>
			<desc>Task Continue</desc>
			<v:userDefs>
				<v:ud v:nameU="CTypeTopLeftSnip" v:prompt="" v:val="VT0(0):5"/>
				<v:ud v:nameU="CTypeTopRightSnip" v:prompt="" v:val="VT0(0):5"/>
				<v:ud v:nameU="CTypeBotLeftSnip" v:prompt="" v:val="VT0(0):5"/>
				<v:ud v:nameU="CTypeBotRightSnip" v:prompt="" v:val="VT0(0):5"/>
				<v:ud v:nameU="CornerLockHoriz" v:prompt="" v:val="VT0(1):5"/>
				<v:ud v:nameU="CornerLockVert" v:prompt="" v:val="VT0(1):5"/>
				<v:ud v:nameU="CornerLockDiag" v:prompt="" v:val="VT0(0):5"/>
				<v:ud v:nameU="TopLeftOffset" v:prompt="" v:val="VT0(0):26"/>
				<v:ud v:nameU="TopRightOffset" v:prompt="" v:val="VT0(0):26"/>
				<v:ud v:nameU="BotLeftOffset" v:prompt="" v:val="VT0(0):26"/>
				<v:ud v:nameU="BotRightOffset" v:prompt="" v:val="VT0(0):26"/>
				<v:ud v:nameU="visVersion" v:prompt="" v:val="VT0(15):26"/>
			</v:userDefs>
			<v:textBlock v:margins="rect(4,4,4,4)"/>
			<v:textRect cx="45.5" cy="503.827" width="91.01" height="31.5"/>
			<path d="M9.1 519.58 L81.9 519.58 A9.09985 9.09985 -180 0 0 91 510.48 L91 497.18 A9.09985 9.09985 -180 0 0 81.9 488.08
						 L9.1 488.08 A9.09985 9.09985 -180 0 0 0 497.18 L0 510.48 A9.09985 9.09985 -180 0 0 9.1 519.58 Z"
					class="st20"/>
			<text x="15.33" y="508.03" class="st21" v:langID="1033"><v:paragraph v:horizAlign="1"/><v:tabList/>Play Game</text>		</g>
		<g id="shape76-131" v:mID="76" v:groupContext="shape" v:layerMember="0" transform="translate(287.853,-184.056) rotate(15)">
			<title>Dynamic connector.76</title>
			<path d="M0 519.58 L86.13 519.58 L90.79 519.58" class="st22"/>
		</g>
		<g id="shape33-136" v:mID="33" v:groupContext="shape" transform="translate(32.273,-201.289)">
			<title>Rounded Rectangle.109</title>
			<desc>Task Continue</desc>
			<v:userDefs>
				<v:ud v:nameU="CTypeTopLeftSnip" v:prompt="" v:val="VT0(0):5"/>
				<v:ud v:nameU="CTypeTopRightSnip" v:prompt="" v:val="VT0(0):5"/>
				<v:ud v:nameU="CTypeBotLeftSnip" v:prompt="" v:val="VT0(0):5"/>
				<v:ud v:nameU="CTypeBotRightSnip" v:prompt="" v:val="VT0(0):5"/>
				<v:ud v:nameU="CornerLockHoriz" v:prompt="" v:val="VT0(1):5"/>
				<v:ud v:nameU="CornerLockVert" v:prompt="" v:val="VT0(1):5"/>
				<v:ud v:nameU="CornerLockDiag" v:prompt="" v:val="VT0(0):5"/>
				<v:ud v:nameU="TopLeftOffset" v:prompt="" v:val="VT0(0):26"/>
				<v:ud v:nameU="TopRightOffset" v:prompt="" v:val="VT0(0):26"/>
				<v:ud v:nameU="BotLeftOffset" v:prompt="" v:val="VT0(0):26"/>
				<v:ud v:nameU="BotRightOffset" v:prompt="" v:val="VT0(0):26"/>
				<v:ud v:nameU="visVersion" v:prompt="" v:val="VT0(15):26"/>
			</v:userDefs>
			<v:textBlock v:margins="rect(4,4,4,4)"/>
			<v:textRect cx="62.123" cy="503.827" width="124.26" height="31.5"/>
			<path d="M12.42 519.58 L111.82 519.58 A12.4244 9.09985 -180 0 0 124.25 510.48 L124.25 497.18 A12.4244 9.09985 -180 0
						 0 111.82 488.08 L12.42 488.08 A12.4244 9.09985 -180 0 0 -0 497.18 L0 510.48 A12.4244 9.09985 -180 0 0 12.42
						 519.58 Z" class="st20"/>
			<text x="8.27" y="508.03" class="st21" v:langID="1033"><v:paragraph v:horizAlign="1"/><v:tabList/>Get Started Games</text>		</g>
		<g id="shape77-139" v:mID="77" v:groupContext="shape" v:layerMember="0" transform="translate(119.5,-99.5062)">
			<title>Dynamic connector.77</title>
			<path d="M124.25 519.58 L6.24 519.58 L0 519.58" class="st22"/>
		</g>
		<g id="shape80-144" v:mID="80" v:groupContext="shape" v:layerMember="0" transform="translate(-425.547,202.447) rotate(-90)">
			<title>Dynamic connector.80</title>
			<path d="M29.34 519.58 L1.47 519.58 L0 519.58" class="st22"/>
		</g>
		<g id="shape81-149" v:mID="81" v:groupContext="shape" v:layerMember="0" transform="translate(-108.183,-58.026) rotate(-30)">
			<title>Dynamic connector.81</title>
			<path d="M0 519.58 L105.39 519.58 L111.09 519.58" class="st22"/>
		</g>
		<g id="shape82-154" v:mID="82" v:groupContext="shape" transform="translate(69.2605,-163.853)">
			<title>Ellipse.82</title>
			<desc>Games</desc>
			<v:userDefs>
				<v:ud v:nameU="visVersion" v:val="VT0(15):26"/>
			</v:userDefs>
			<v:textBlock v:margins="rect(4,4,4,4)"/>
			<v:textRect cx="24.75" cy="506.892" width="43.32" height="22.2"/>
			<path d="M0 506.89 A24.75 12.6857 0 0 1 49.5 506.89 A24.75 12.6857 0 1 1 0 506.89 Z" class="st17"/>
			<text x="10.76" y="509.89" class="st29" v:langID="1033"><v:paragraph v:horizAlign="1"/><v:tabList/>Games</text>		</g>
		<g id="shape83-157" v:mID="83" v:groupContext="shape" transform="translate(69.646,-82.039)">
			<title>Ellipse.83</title>
			<desc>Joined</desc>
			<v:userDefs>
				<v:ud v:nameU="visVersion" v:val="VT0(15):26"/>
			</v:userDefs>
			<v:textBlock v:margins="rect(4,4,4,4)"/>
			<v:textRect cx="24.75" cy="506.892" width="43.32" height="22.2"/>
			<path d="M0 506.89 A24.75 12.6857 0 0 1 49.5 506.89 A24.75 12.6857 0 1 1 0 506.89 Z" class="st17"/>
			<text x="11.63" y="509.89" class="st29" v:langID="1033"><v:paragraph v:horizAlign="1"/><v:tabList/>Joined</text>		</g>
		<g id="shape85-160" v:mID="85" v:groupContext="shape" v:layerMember="0" transform="translate(-422.045,451.039) rotate(-90)">
			<title>Dynamic connector.85</title>
			<path d="M15.75 519.58 L0.79 519.58 L0 519.58" class="st22"/>
		</g>
		<g id="shape86-165" v:mID="86" v:groupContext="shape" v:layerMember="0" transform="translate(379.082,-108.302) rotate(30)">
			<title>Dynamic connector.86</title>
			<path d="M142.91 519.58 L7.18 519.58 L7.04 519.58" class="st30"/>
		</g>
		<g id="shape87-171" v:mID="87" v:groupContext="shape" transform="translate(44.3969,-347.66)">
			<title>Ellipse.87</title>
			<desc>Player 2 Joined</desc>
			<v:userDefs>
				<v:ud v:nameU="visVersion" v:val="VT0(15):26"/>
			</v:userDefs>
			<v:textBlock v:margins="rect(4,4,4,4)"/>
			<v:textRect cx="48.1031" cy="501.699" width="84.19" height="31.289"/>
			<path d="M0 501.7 A48.1031 17.8794 0 0 1 96.21 501.7 A48.1031 17.8794 0 0 1 -0 501.7 Z" class="st17"/>
			<text x="17.57" y="504.7" class="st29" v:langID="1033"><v:paragraph v:horizAlign="1"/><v:tabList/>Player 2 Joined</text>		</g>
		<g id="shape23-174" v:mID="23" v:groupContext="shape" v:layerMember="0" transform="translate(252.557,-335.183) rotate(15)">
			<title>Dynamic connector.1014</title>
			<path d="M123.28 519.58 L6.19 519.58 L0 519.58" class="st22"/>
		</g>
	</g>
</svg>
