<?xml version="1.0" encoding="UTF-8" standalone="no"?>
<!DOCTYPE svg PUBLIC "-//W3C//DTD SVG 1.1//EN" "http://www.w3.org/Graphics/SVG/1.1/DTD/svg11.dtd">
<!-- Generated by Microsoft Visio, SVG Export scene.svg Page-1 -->
<svg xmlns="http://www.w3.org/2000/svg" xmlns:xlink="http://www.w3.org/1999/xlink" xmlns:ev="http://www.w3.org/2001/xml-events"
		xmlns:v="http://schemas.microsoft.com/visio/2003/SVGExtensions/" width="7.01447in" height="7.21637in"
		viewBox="0 0 505.042 519.578" xml:space="preserve" color-interpolation-filters="sRGB" class="st27">
	<v:documentProperties v:langID="1033" v:viewMarkup="false"/>

	<style type="text/css">
	<![CDATA[
		.st1 {fill:#ffffff;stroke:#000000;stroke-linecap:round;stroke-linejoin:round;stroke-width:0.75}
		.st2 {fill:#e2efd9;stroke:#000080;stroke-linecap:round;stroke-linejoin:round;stroke-width:0.75}
		.st3 {fill:#ff0000;stroke:#000080;stroke-linecap:round;stroke-linejoin:round;stroke-width:0.75}
		.st4 {fill:#f59d56;stroke:#000080;stroke-linecap:round;stroke-linejoin:round;stroke-width:0.75}
		.st5 {fill:#31859b;stroke:#000080;stroke-linecap:round;stroke-linejoin:round;stroke-width:0.75}
		.st6 {fill:#800080;stroke:#000080;stroke-linecap:round;stroke-linejoin:round;stroke-width:0.75}
		.st7 {fill:#800000;stroke:#000080;stroke-linecap:round;stroke-linejoin:round;stroke-width:0.75}
		.st8 {fill:#ff00ff;stroke:#000080;stroke-linecap:round;stroke-linejoin:round;stroke-width:0.75}
		.st9 {fill:#00ffff;stroke:#000080;stroke-linecap:round;stroke-linejoin:round;stroke-width:0.75}
		.st10 {fill:#c0c0c0;stroke:#000080;stroke-linecap:round;stroke-linejoin:round;stroke-width:0.75}
		.st11 {fill:#ffff00;stroke:#000080;stroke-linecap:round;stroke-linejoin:round;stroke-width:0.75}
		.st12 {fill:#5555ff;stroke:#000080;stroke-linecap:round;stroke-linejoin:round;stroke-width:0.75;visibility:hidden}
		.st13 {fill:none;stroke:none;stroke-width:0.25}
		.st14 {fill:#000000;font-family:Calibri;font-size:1.16666em}
		.st15 {fill:#90aadb;fill-opacity:0.46;stroke:#90aadb;stroke-width:0.25}
		.st16 {fill:#000000;font-family:Calibri;font-size:1.5em}
		.st17 {fill:#c5e0b3;stroke:#c7c8c8;stroke-width:0.25}
		.st18 {fill:#305497;font-family:Calibri;font-size:1.00001em}
		.st19 {fill:#fff2cc;stroke:#c7c8c8;stroke-width:0.25}
		.st20 {fill:#e2efd9;stroke:#c7c8c8;stroke-width:0.25}
		.st21 {fill:#203864;font-family:Calibri;font-size:1.16666em}
		.st22 {fill:#a8d08d;stroke:#c7c8c8;stroke-width:0.25}
		.st23 {marker-end:url(#mrkr4-57);stroke:#4672c4;stroke-linecap:round;stroke-linejoin:round;stroke-width:1}
		.st24 {fill:#4672c4;fill-opacity:1;stroke:#4672c4;stroke-opacity:1;stroke-width:0.28409089568103}
		.st25 {fill:#c6dfb5;stroke:#31528f;stroke-width:0.25}
		.st26 {fill:#e2efd9;stroke:#30518f;stroke-width:0.75}
		.st27 {fill:none;fill-rule:evenodd;font-size:12px;overflow:visible;stroke-linecap:square;stroke-miterlimit:3}
	]]>
	</style>

	<defs id="Markers">
		<g id="lend4">
			<path d="M 2 1 L 0 0 L 2 -1 L 2 1 " style="stroke:none"/>
		</g>
		<marker id="mrkr4-57" class="st24" v:arrowType="4" v:arrowSize="2" v:setback="0" refX="-0" orient="auto"
				markerUnits="strokeWidth" overflow="visible">
			<use xlink:href="#lend4" transform="scale(-3.5200001661538,-3.5200001661538) "/>
		</marker>
	</defs>
	<g v:mID="0" v:index="1" v:groupContext="foregroundPage">
		<title>Page-1</title>
		<v:pageProperties v:drawingScale="1" v:pageScale="1" v:drawingUnits="0" v:shadowOffsetX="8.99998"
				v:shadowOffsetY="-8.99998"/>
		<v:layer v:name="Connector" v:index="0"/>
		<g id="group53-1" transform="translate(47.3528,437.658) rotate(-120)" v:mID="53" v:groupContext="group">
			<v:custProps>
				<v:cp v:nameU="Slices" v:lbl="" v:prompt="" v:type="0" v:format="" v:sortKey="" v:invis="false" v:ask="false"
						v:langID="1033" v:cal="0" v:val="VT0(0):26"/>
				<v:cp v:nameU="Pie1" v:lbl="" v:prompt="" v:type="0" v:format="" v:sortKey="" v:invis="false" v:ask="false"
						v:langID="1033" v:cal="0" v:val="VT0(0):26"/>
				<v:cp v:nameU="Pie2" v:lbl="" v:prompt="" v:type="0" v:format="" v:sortKey="" v:invis="false" v:ask="false"
						v:langID="1033" v:cal="0" v:val="VT0(0):26"/>
				<v:cp v:nameU="Pie3" v:lbl="" v:prompt="" v:type="0" v:format="" v:sortKey="" v:invis="false" v:ask="false"
						v:langID="1033" v:cal="0" v:val="VT0(0):26"/>
				<v:cp v:nameU="Pie4" v:lbl="" v:prompt="" v:type="0" v:format="" v:sortKey="" v:invis="false" v:ask="false"
						v:langID="1033" v:cal="0" v:val="VT0(0):26"/>
				<v:cp v:nameU="Pie5" v:lbl="" v:prompt="" v:type="0" v:format="" v:sortKey="" v:invis="false" v:ask="false"
						v:langID="1033" v:cal="0" v:val="VT0(0):26"/>
				<v:cp v:nameU="Pie6" v:lbl="" v:prompt="" v:type="0" v:format="" v:sortKey="" v:invis="false" v:ask="false"
						v:langID="1033" v:cal="0" v:val="VT0(0):26"/>
				<v:cp v:nameU="Pie7" v:lbl="" v:prompt="" v:type="0" v:format="" v:sortKey="" v:invis="false" v:ask="false"
						v:langID="1033" v:cal="0" v:val="VT0(0):26"/>
				<v:cp v:nameU="Pie8" v:lbl="" v:prompt="" v:type="0" v:format="" v:sortKey="" v:invis="false" v:ask="false"
						v:langID="1033" v:cal="0" v:val="VT0(0):26"/>
				<v:cp v:nameU="Pie9" v:lbl="" v:prompt="" v:type="0" v:format="" v:sortKey="" v:invis="false" v:ask="false"
						v:langID="1033" v:cal="0" v:val="VT0(0):26"/>
				<v:cp v:nameU="Pie10" v:lbl="" v:prompt="" v:type="0" v:format="" v:sortKey="" v:invis="false" v:ask="false"
						v:langID="1033" v:cal="0" v:val="VT0(0):26"/>
			</v:custProps>
			<v:userDefs>
				<v:ud v:nameU="Pies" v:prompt="" v:val="VT0(0):26"/>
				<v:ud v:nameU="WatchSlices" v:prompt="Calls VBA procedure to validate slice total." v:val="VT0(0):26"/>
				<v:ud v:nameU="visVersion" v:val="VT0(15):26"/>
			</v:userDefs>
			<title>Pie chart</title>
			<g id="shape54-2" v:mID="54" v:groupContext="shape" transform="translate(0,-35.2579)">
				<title>Sheet.54</title>
				<ellipse cx="102.692" cy="415.782" rx="102.692" ry="103.796" class="st1"/>
			</g>
			<g id="shape55-4" v:mID="55" v:groupContext="shape" transform="translate(42.3324,-136.707)">
				<title>Sheet.55</title>
				<path d="M60.36 519.58 L0 433.71 A102.692 106.144 0 0 1 163.05 519.58 L60.36 519.58 Z" class="st2"/>
			</g>
			<g id="shape56-6" v:mID="56" v:groupContext="shape" transform="translate(-317.657,686.878) rotate(-126)">
				<title>Sheet.56</title>
				<path d="M0 519.58 L102.69 519.58 L0 519.58 Z" class="st3"/>
			</g>
			<g id="shape57-8" v:mID="57" v:groupContext="shape" transform="translate(102.692,-136.707)">
				<title>Sheet.57</title>
				<desc>Mouse Input Service</desc>
				<v:userDefs/>
				<path d="M0 519.58 L102.69 519.58 L0 519.58 Z" class="st4"/>
			</g>
			<g id="shape58-10" v:mID="58" v:groupContext="shape" transform="translate(102.692,-136.707)">
				<title>Sheet.58</title>
				<desc>Render Service</desc>
				<v:userDefs/>
				<path d="M0 519.58 L101.06 519.58 L0 519.58 Z" class="st5"/>
			</g>
			<g id="shape59-12" v:mID="59" v:groupContext="shape" transform="translate(-317.657,686.878) rotate(-126)">
				<title>Sheet.59</title>
				<path d="M0 519.58 L102.69 519.58 L0 519.58 Z" class="st6"/>
			</g>
			<g id="shape60-14" v:mID="60" v:groupContext="shape" transform="translate(-317.657,686.878) rotate(-126)">
				<title>Sheet.60</title>
				<path d="M0 519.58 L102.69 519.58 L0 519.58 Z" class="st7"/>
			</g>
			<g id="shape61-16" v:mID="61" v:groupContext="shape" transform="translate(-317.657,686.878) rotate(-126)">
				<title>Sheet.61</title>
				<path d="M0 519.58 L102.69 519.58 L0 519.58 Z" class="st8"/>
			</g>
			<g id="shape62-18" v:mID="62" v:groupContext="shape" transform="translate(-317.657,686.878) rotate(-126)">
				<title>Sheet.62</title>
				<path d="M0 519.58 L102.69 519.58 L0 519.58 Z" class="st9"/>
			</g>
			<g id="shape63-20" v:mID="63" v:groupContext="shape" transform="translate(-317.657,686.878) rotate(-126)">
				<title>Sheet.63</title>
				<path d="M0 519.58 L102.69 519.58 L0 519.58 Z" class="st10"/>
			</g>
			<g id="shape64-22" v:mID="64" v:groupContext="shape" transform="translate(-318.442,685.798) rotate(-126)">
				<title>Sheet.64</title>
				<path d="M0 519.58 L101.36 519.58 L0 519.58 Z" class="st11"/>
			</g>
			<g id="shape65-24" v:mID="65" v:groupContext="shape">
				<title>Sheet.65</title>
				<rect x="0" y="489.017" width="205.384" height="30.5619" class="st12"/>
			</g>
		</g>
		<g id="shape66-26" v:mID="66" v:groupContext="shape" transform="translate(224.75,-345.328)">
			<title>Sheet.66</title>
			<desc>Task Service</desc>
			<v:userDefs/>
			<v:textBlock v:margins="rect(4,4,4,4)"/>
			<v:textRect cx="45.5" cy="503.828" width="91.01" height="31.5"/>
			<rect x="0" y="488.078" width="91" height="31.5" class="st13"/>
			<text x="6.75" y="508.03" class="st14" v:langID="1033"><v:paragraph v:horizAlign="1"/><v:tabList/>Scene Service</text>		</g>
		<g id="shape67-29" v:mID="67" v:groupContext="shape" transform="translate(-105.641,242.809) rotate(-90)">
			<title>Circular Arrow.11</title>
			<v:userDefs>
				<v:ud v:nameU="CtrlAng1" v:prompt="" v:val="VT0(0):26"/>
				<v:ud v:nameU="CtrlAng2" v:prompt="" v:val="VT0(0):26"/>
				<v:ud v:nameU="InnerDist" v:prompt="" v:val="VT0(0):26"/>
				<v:ud v:nameU="MidAngle" v:prompt="" v:val="VT0(0):26"/>
				<v:ud v:nameU="visVersion" v:prompt="" v:val="VT0(17):26"/>
				<v:ud v:nameU="ArroOfsset" v:prompt="" v:val="VT0(0):26"/>
				<v:ud v:nameU="Row_8" v:prompt="" v:val="VT0(0):26"/>
				<v:ud v:nameU="Row_9" v:prompt="" v:val="VT0(0):26"/>
				<v:ud v:nameU="midCircleWidth" v:prompt="" v:val="VT0(0):26"/>
				<v:ud v:nameU="midCircleCenterX" v:prompt="" v:val="VT0(0):26"/>
				<v:ud v:nameU="midCircleCenterY" v:prompt="" v:val="VT0(0):26"/>
				<v:ud v:nameU="midCircleCenterX2" v:prompt="" v:val="VT0(0):26"/>
				<v:ud v:nameU="midCircleCenterY2" v:prompt="" v:val="VT0(0):26"/>
				<v:ud v:nameU="MajorAngle" v:prompt="" v:val="VT0(0):26"/>
			</v:userDefs>
			<path d="M33.16 401.43 L40.83 406.63 L36.19 372.93 L0 378.09 L7.77 383.13 A90.0767 89.282 -180 1 0 133.81 358.2 L116.37
						 383.86 A58.8711 58.3517 0 1 1 33.16 401.43 Z" class="st15"/>
		</g>
		<g id="shape68-31" v:mID="68" v:groupContext="shape" transform="translate(346.129,-345.328)">
			<title>Sheet.68</title>
			<desc>Services</desc>
			<v:userDefs/>
			<v:textBlock v:margins="rect(4,4,4,4)"/>
			<v:textRect cx="36" cy="503.828" width="72.01" height="31.5"/>
			<rect x="0" y="488.078" width="72" height="31.5" class="st13"/>
			<text x="6.31" y="509.23" class="st16" v:langID="1033"><v:paragraph v:horizAlign="1"/><v:tabList/>Services</text>		</g>
		<g id="shape79-34" v:mID="79" v:groupContext="shape" transform="translate(232,-314.828)">
			<title>Rounded Rectangle.1013</title>
			<desc>Task Wakeup</desc>
			<v:userDefs>
				<v:ud v:nameU="CTypeTopLeftSnip" v:prompt="" v:val="VT0(0):5"/>
				<v:ud v:nameU="CTypeTopRightSnip" v:prompt="" v:val="VT0(0):5"/>
				<v:ud v:nameU="CTypeBotLeftSnip" v:prompt="" v:val="VT0(0):5"/>
				<v:ud v:nameU="CTypeBotRightSnip" v:prompt="" v:val="VT0(0):5"/>
				<v:ud v:nameU="CornerLockHoriz" v:prompt="" v:val="VT0(1):5"/>
				<v:ud v:nameU="CornerLockVert" v:prompt="" v:val="VT0(1):5"/>
				<v:ud v:nameU="CornerLockDiag" v:prompt="" v:val="VT0(0):5"/>
				<v:ud v:nameU="TopLeftOffset" v:prompt="" v:val="VT0(0):26"/>
				<v:ud v:nameU="TopRightOffset" v:prompt="" v:val="VT0(0):26"/>
				<v:ud v:nameU="BotLeftOffset" v:prompt="" v:val="VT0(0):26"/>
				<v:ud v:nameU="BotRightOffset" v:prompt="" v:val="VT0(0):26"/>
				<v:ud v:nameU="visVersion" v:prompt="" v:val="VT0(15):26"/>
			</v:userDefs>
			<v:textBlock v:margins="rect(4,4,4,4)"/>
			<v:textRect cx="37.4062" cy="511.704" width="74.83" height="15.75"/>
			<path d="M7.48 519.58 L67.33 519.58 A7.48113 4.54993 -180 0 0 74.81 515.03 L74.81 508.38 A7.48113 4.54993 -180 0 0 67.33
						 503.83 L7.48 503.83 A7.48113 4.54993 -180 0 0 -0 508.38 L0 515.03 A7.48113 4.54993 -180 0 0 7.48 519.58
						 Z" class="st17"/>
			<text x="24.24" y="515.3" class="st18" v:langID="1033"><v:paragraph v:horizAlign="1"/><v:tabList/>Enter</text>		</g>
		<g id="shape93-37" v:mID="93" v:groupContext="shape" transform="translate(0.25,-345.328)">
			<title>Rectangle</title>
			<desc>Beach Scene</desc>
			<v:userDefs>
				<v:ud v:nameU="visVersion" v:val="VT0(15):26"/>
			</v:userDefs>
			<v:textBlock v:margins="rect(4,4,4,4)"/>
			<v:textRect cx="94.146" cy="465.578" width="188.3" height="108"/>
			<rect x="0" y="411.578" width="188.292" height="108" class="st19"/>
			<text x="48.27" y="427.78" class="st16" v:langID="1033"><v:paragraph v:horizAlign="1"/><v:tabList/>Beach Scene<v:newlineChar/><v:newlineChar/><v:newlineChar/><v:newlineChar/></text>		</g>
		<g id="shape75-40" v:mID="75" v:groupContext="shape" transform="translate(16.2085,-401.077)">
			<title>Rounded Rectangle.1009</title>
			<desc>Task Yield</desc>
			<v:userDefs>
				<v:ud v:nameU="CTypeTopLeftSnip" v:prompt="" v:val="VT0(0):5"/>
				<v:ud v:nameU="CTypeTopRightSnip" v:prompt="" v:val="VT0(0):5"/>
				<v:ud v:nameU="CTypeBotLeftSnip" v:prompt="" v:val="VT0(0):5"/>
				<v:ud v:nameU="CTypeBotRightSnip" v:prompt="" v:val="VT0(0):5"/>
				<v:ud v:nameU="CornerLockHoriz" v:prompt="" v:val="VT0(1):5"/>
				<v:ud v:nameU="CornerLockVert" v:prompt="" v:val="VT0(1):5"/>
				<v:ud v:nameU="CornerLockDiag" v:prompt="" v:val="VT0(0):5"/>
				<v:ud v:nameU="TopLeftOffset" v:prompt="" v:val="VT0(0):26"/>
				<v:ud v:nameU="TopRightOffset" v:prompt="" v:val="VT0(0):26"/>
				<v:ud v:nameU="BotLeftOffset" v:prompt="" v:val="VT0(0):26"/>
				<v:ud v:nameU="BotRightOffset" v:prompt="" v:val="VT0(0):26"/>
				<v:ud v:nameU="visVersion" v:prompt="" v:val="VT0(15):26"/>
			</v:userDefs>
			<v:textBlock v:margins="rect(4,4,4,4)"/>
			<v:textRect cx="78.1875" cy="503.829" width="156.4" height="31.5"/>
			<path d="M15.64 519.58 L140.74 519.58 A15.6372 9.09985 -180 0 0 156.37 510.48 L156.37 497.18 A15.6372 9.09985 -180 0
						 0 140.74 488.08 L15.64 488.08 A15.6372 9.09985 -180 0 0 0 497.18 L0 510.48 A15.6372 9.09985 -180 0 0 15.64
						 519.58 Z" class="st20"/>
			<text x="14.87" y="508.03" class="st21" v:langID="1033"><v:paragraph v:horizAlign="1"/><v:tabList/>Activate Woods Scene</text>		</g>
		<g id="shape78-43" v:mID="78" v:groupContext="shape" transform="translate(48.896,-360.577)">
			<title>Rounded Rectangle.1012</title>
			<desc>Task Continue</desc>
			<v:userDefs>
				<v:ud v:nameU="CTypeTopLeftSnip" v:prompt="" v:val="VT0(0):5"/>
				<v:ud v:nameU="CTypeTopRightSnip" v:prompt="" v:val="VT0(0):5"/>
				<v:ud v:nameU="CTypeBotLeftSnip" v:prompt="" v:val="VT0(0):5"/>
				<v:ud v:nameU="CTypeBotRightSnip" v:prompt="" v:val="VT0(0):5"/>
				<v:ud v:nameU="CornerLockHoriz" v:prompt="" v:val="VT0(1):5"/>
				<v:ud v:nameU="CornerLockVert" v:prompt="" v:val="VT0(1):5"/>
				<v:ud v:nameU="CornerLockDiag" v:prompt="" v:val="VT0(0):5"/>
				<v:ud v:nameU="TopLeftOffset" v:prompt="" v:val="VT0(0):26"/>
				<v:ud v:nameU="TopRightOffset" v:prompt="" v:val="VT0(0):26"/>
				<v:ud v:nameU="BotLeftOffset" v:prompt="" v:val="VT0(0):26"/>
				<v:ud v:nameU="BotRightOffset" v:prompt="" v:val="VT0(0):26"/>
				<v:ud v:nameU="visVersion" v:prompt="" v:val="VT0(15):26"/>
			</v:userDefs>
			<v:textBlock v:margins="rect(4,4,4,4)"/>
			<v:textRect cx="45.5" cy="503.829" width="91.01" height="31.5"/>
			<path d="M9.1 519.58 L81.9 519.58 A9.09985 9.09985 -180 0 0 91 510.48 L91 497.18 A9.09985 9.09985 -180 0 0 81.9 488.08
						 L9.1 488.08 A9.09985 9.09985 -180 0 0 0 497.18 L0 510.48 A9.09985 9.09985 -180 0 0 9.1 519.58 Z"
					class="st20"/>
			<text x="35.1" y="508.03" class="st21" v:langID="1033"><v:paragraph v:horizAlign="1"/><v:tabList/>Exit</text>		</g>
		<g id="shape94-46" v:mID="94" v:groupContext="shape" transform="translate(0.958011,-264.328)">
			<title>Rectangle.94</title>
			<desc>Woods Scene</desc>
			<v:userDefs>
				<v:ud v:nameU="visVersion" v:val="VT0(15):26"/>
			</v:userDefs>
			<v:textBlock v:margins="rect(4,4,4,4)"/>
			<v:textRect cx="94.146" cy="483.578" width="188.3" height="72"/>
			<rect x="0" y="447.578" width="188.292" height="72" class="st22"/>
			<text x="44.74" y="467.38" class="st16" v:langID="1033"><v:paragraph v:horizAlign="1"/><v:tabList/>Woods Scene<v:newlineChar/><v:newlineChar/></text>		</g>
		<g id="shape95-49" v:mID="95" v:groupContext="shape" transform="translate(49.604,-277.694)">
			<title>Rounded Rectangle.95</title>
			<desc>Task Continue</desc>
			<v:userDefs>
				<v:ud v:nameU="CTypeTopLeftSnip" v:prompt="" v:val="VT0(0):5"/>
				<v:ud v:nameU="CTypeTopRightSnip" v:prompt="" v:val="VT0(0):5"/>
				<v:ud v:nameU="CTypeBotLeftSnip" v:prompt="" v:val="VT0(0):5"/>
				<v:ud v:nameU="CTypeBotRightSnip" v:prompt="" v:val="VT0(0):5"/>
				<v:ud v:nameU="CornerLockHoriz" v:prompt="" v:val="VT0(1):5"/>
				<v:ud v:nameU="CornerLockVert" v:prompt="" v:val="VT0(1):5"/>
				<v:ud v:nameU="CornerLockDiag" v:prompt="" v:val="VT0(0):5"/>
				<v:ud v:nameU="TopLeftOffset" v:prompt="" v:val="VT0(0):26"/>
				<v:ud v:nameU="TopRightOffset" v:prompt="" v:val="VT0(0):26"/>
				<v:ud v:nameU="BotLeftOffset" v:prompt="" v:val="VT0(0):26"/>
				<v:ud v:nameU="BotRightOffset" v:prompt="" v:val="VT0(0):26"/>
				<v:ud v:nameU="visVersion" v:prompt="" v:val="VT0(15):26"/>
			</v:userDefs>
			<v:textBlock v:margins="rect(4,4,4,4)"/>
			<v:textRect cx="45.5" cy="503.829" width="91.01" height="31.5"/>
			<path d="M9.1 519.58 L81.9 519.58 A9.09985 9.09985 -180 0 0 91 510.48 L91 497.18 A9.09985 9.09985 -180 0 0 81.9 488.08
						 L9.1 488.08 A9.09985 9.09985 -180 0 0 0 497.18 L0 510.48 A9.09985 9.09985 -180 0 0 9.1 519.58 Z"
					class="st20"/>
			<text x="30.14" y="508.03" class="st21" v:langID="1033"><v:paragraph v:horizAlign="1"/><v:tabList/>Enter</text>		</g>
		<g id="shape80-52" v:mID="80" v:groupContext="shape" v:layerMember="0" transform="translate(143.25,-376.828)">
			<title>Dynamic connector.1014</title>
			<path d="M91 519.58 L4.57 519.58 L0 519.58" class="st23"/>
		</g>
		<g id="shape96-58" v:mID="96" v:groupContext="shape" v:layerMember="0" transform="translate(363.572,702.599) rotate(165)">
			<title>Dynamic connector.96</title>
			<path d="M0 519.58 L86.33 519.58 L91 519.58" class="st23"/>
		</g>
		<g id="shape97-63" v:mID="97" v:groupContext="shape" transform="translate(234.25,-368.953)">
			<title>Rounded Rectangle.97</title>
			<desc>Task Sleep</desc>
			<v:userDefs>
				<v:ud v:nameU="CTypeTopLeftSnip" v:prompt="" v:val="VT0(0):5"/>
				<v:ud v:nameU="CTypeTopRightSnip" v:prompt="" v:val="VT0(0):5"/>
				<v:ud v:nameU="CTypeBotLeftSnip" v:prompt="" v:val="VT0(0):5"/>
				<v:ud v:nameU="CTypeBotRightSnip" v:prompt="" v:val="VT0(0):5"/>
				<v:ud v:nameU="CornerLockHoriz" v:prompt="" v:val="VT0(1):5"/>
				<v:ud v:nameU="CornerLockVert" v:prompt="" v:val="VT0(1):5"/>
				<v:ud v:nameU="CornerLockDiag" v:prompt="" v:val="VT0(0):5"/>
				<v:ud v:nameU="TopLeftOffset" v:prompt="" v:val="VT0(0):26"/>
				<v:ud v:nameU="TopRightOffset" v:prompt="" v:val="VT0(0):26"/>
				<v:ud v:nameU="BotLeftOffset" v:prompt="" v:val="VT0(0):26"/>
				<v:ud v:nameU="BotRightOffset" v:prompt="" v:val="VT0(0):26"/>
				<v:ud v:nameU="visVersion" v:prompt="" v:val="VT0(15):26"/>
			</v:userDefs>
			<v:textBlock v:margins="rect(4,4,4,4)"/>
			<v:textRect cx="36" cy="511.704" width="72.01" height="15.75"/>
			<path d="M7.2 519.58 L64.8 519.58 A7.19988 3.59994 -180 0 0 72 515.98 L72 507.43 A7.19988 3.59994 -180 0 0 64.8 503.83
						 L7.2 503.83 A7.19988 3.59994 -180 0 0 0 507.43 L0 515.98 A7.19988 3.59994 -180 0 0 7.2 519.58 Z"
					class="st17"/>
			<text x="27.08" y="515.3" class="st18" v:langID="1033"><v:paragraph v:horizAlign="1"/><v:tabList/>Exit</text>		</g>
		<g id="group98-66" transform="translate(297.25,-362.078)" v:mID="98" v:groupContext="group">
			<v:userDefs>
				<v:ud v:nameU="BarWidth" v:prompt="" v:val="VT0(0.2):0"/>
				<v:ud v:nameU="ArrowTipY" v:prompt="" v:val="VT0(0.2):0"/>
				<v:ud v:nameU="ArcHeight" v:prompt="" v:val="VT0(0.7):0"/>
				<v:ud v:nameU="visVersion" v:prompt="" v:val="VT0(15):26"/>
				<v:ud v:nameU="BarWidth" v:prompt="" v:val="VT0(0.171875):1"/>
				<v:ud v:nameU="ArrowTipY" v:prompt="" v:val="VT0(0.15625):0"/>
				<v:ud v:nameU="ArcHeight" v:prompt="" v:val="VT0(0.3828125):0"/>
			</v:userDefs>
			<title>Curved Left Arrow</title>
			<g id="shape99-67" v:mID="99" v:groupContext="shape">
				<title>Sheet.99</title>
				<v:userDefs>
					<v:ud v:nameU="ArcHeight" v:prompt="" v:val="VT0(0.7):0"/>
					<v:ud v:nameU="BarWidth" v:prompt="" v:val="VT0(0.2):0"/>
					<v:ud v:nameU="ArrowBackX" v:prompt="" v:val="VT0(0.2):0"/>
					<v:ud v:nameU="ArrowTipY" v:prompt="" v:val="VT0(0.2):0"/>
					<v:ud v:nameU="FillForegnd" v:prompt="" v:val="VT5(1)"/>
					<v:ud v:nameU="ArcHeight" v:prompt="" v:val="VT0(0.3828125):0"/>
					<v:ud v:nameU="BarWidth" v:prompt="" v:val="VT0(0.171875):1"/>
					<v:ud v:nameU="ArrowTipY" v:prompt="" v:val="VT0(0.15625):0"/>
					<v:ud v:nameU="FillForegnd" v:prompt="" v:val="VT5(#e2efd9)"/>
				</v:userDefs>
				<path d="M0 508.33 L14.4 497.08 L14.4 502.14 A57.5915 13.7792 -180 0 0 72 488.36 L72 500.73 A57.5915 13.7792 0 0
							 1 14.4 514.52 L14.4 519.58 L0 508.33 Z" class="st25"/>
			</g>
			<g id="shape98-69" v:mID="98" v:groupContext="groupContent">
				<path d="M0 474.58 L0 486.95 A71.9894 13.7792 0 0 1 72 500.73 L72 488.36 A71.9894 13.7792 -180 0 0 0 474.58 Z"
						class="st26"/>
			</g>
		</g>
		<g id="shape105-71" v:mID="105" v:groupContext="shape" transform="translate(3.12507,-125.828)">
			<title>Rectangle.105</title>
			<desc>Woods Scene</desc>
			<v:userDefs>
				<v:ud v:nameU="visVersion" v:val="VT0(15):26"/>
			</v:userDefs>
			<v:textBlock v:margins="rect(4,4,4,4)"/>
			<v:textRect cx="94.146" cy="465.578" width="188.3" height="108"/>
			<rect x="0" y="411.578" width="188.292" height="108" class="st22"/>
			<text x="44.74" y="427.78" class="st16" v:langID="1033"><v:paragraph v:horizAlign="1"/><v:tabList/>Woods Scene<v:newlineChar/><v:newlineChar/><v:newlineChar/><v:newlineChar/></text>		</g>
		<g id="shape106-74" v:mID="106" v:groupContext="shape" transform="translate(19.0836,-181.577)">
			<title>Rounded Rectangle.106</title>
			<desc>Task Yield</desc>
			<v:userDefs>
				<v:ud v:nameU="CTypeTopLeftSnip" v:prompt="" v:val="VT0(0):5"/>
				<v:ud v:nameU="CTypeTopRightSnip" v:prompt="" v:val="VT0(0):5"/>
				<v:ud v:nameU="CTypeBotLeftSnip" v:prompt="" v:val="VT0(0):5"/>
				<v:ud v:nameU="CTypeBotRightSnip" v:prompt="" v:val="VT0(0):5"/>
				<v:ud v:nameU="CornerLockHoriz" v:prompt="" v:val="VT0(1):5"/>
				<v:ud v:nameU="CornerLockVert" v:prompt="" v:val="VT0(1):5"/>
				<v:ud v:nameU="CornerLockDiag" v:prompt="" v:val="VT0(0):5"/>
				<v:ud v:nameU="TopLeftOffset" v:prompt="" v:val="VT0(0):26"/>
				<v:ud v:nameU="TopRightOffset" v:prompt="" v:val="VT0(0):26"/>
				<v:ud v:nameU="BotLeftOffset" v:prompt="" v:val="VT0(0):26"/>
				<v:ud v:nameU="BotRightOffset" v:prompt="" v:val="VT0(0):26"/>
				<v:ud v:nameU="visVersion" v:prompt="" v:val="VT0(15):26"/>
			</v:userDefs>
			<v:textBlock v:margins="rect(4,4,4,4)"/>
			<v:textRect cx="78.1875" cy="503.829" width="156.4" height="31.5"/>
			<path d="M15.64 519.58 L140.74 519.58 A15.6372 9.09985 -180 0 0 156.37 510.48 L156.37 497.18 A15.6372 9.09985 -180 0
						 0 140.74 488.08 L15.64 488.08 A15.6372 9.09985 -180 0 0 0 497.18 L0 510.48 A15.6372 9.09985 -180 0 0 15.64
						 519.58 Z" class="st20"/>
			<text x="17.49" y="508.03" class="st21" v:langID="1033"><v:paragraph v:horizAlign="1"/><v:tabList/>Activate Beech Scene</text>		</g>
		<g id="shape107-77" v:mID="107" v:groupContext="shape" transform="translate(51.7711,-141.077)">
			<title>Rounded Rectangle.107</title>
			<desc>Task Continue</desc>
			<v:userDefs>
				<v:ud v:nameU="CTypeTopLeftSnip" v:prompt="" v:val="VT0(0):5"/>
				<v:ud v:nameU="CTypeTopRightSnip" v:prompt="" v:val="VT0(0):5"/>
				<v:ud v:nameU="CTypeBotLeftSnip" v:prompt="" v:val="VT0(0):5"/>
				<v:ud v:nameU="CTypeBotRightSnip" v:prompt="" v:val="VT0(0):5"/>
				<v:ud v:nameU="CornerLockHoriz" v:prompt="" v:val="VT0(1):5"/>
				<v:ud v:nameU="CornerLockVert" v:prompt="" v:val="VT0(1):5"/>
				<v:ud v:nameU="CornerLockDiag" v:prompt="" v:val="VT0(0):5"/>
				<v:ud v:nameU="TopLeftOffset" v:prompt="" v:val="VT0(0):26"/>
				<v:ud v:nameU="TopRightOffset" v:prompt="" v:val="VT0(0):26"/>
				<v:ud v:nameU="BotLeftOffset" v:prompt="" v:val="VT0(0):26"/>
				<v:ud v:nameU="BotRightOffset" v:prompt="" v:val="VT0(0):26"/>
				<v:ud v:nameU="visVersion" v:prompt="" v:val="VT0(15):26"/>
			</v:userDefs>
			<v:textBlock v:margins="rect(4,4,4,4)"/>
			<v:textRect cx="45.5" cy="503.829" width="91.01" height="31.5"/>
			<path d="M9.1 519.58 L81.9 519.58 A9.09985 9.09985 -180 0 0 91 510.48 L91 497.18 A9.09985 9.09985 -180 0 0 81.9 488.08
						 L9.1 488.08 A9.09985 9.09985 -180 0 0 0 497.18 L0 510.48 A9.09985 9.09985 -180 0 0 9.1 519.58 Z"
					class="st20"/>
			<text x="35.1" y="508.03" class="st21" v:langID="1033"><v:paragraph v:horizAlign="1"/><v:tabList/>Exit</text>		</g>
		<g id="shape108-80" v:mID="108" v:groupContext="shape" transform="translate(3.83309,-44.8278)">
			<title>Rectangle.108</title>
			<desc>Beach Scene</desc>
			<v:userDefs>
				<v:ud v:nameU="visVersion" v:val="VT0(15):26"/>
			</v:userDefs>
			<v:textBlock v:margins="rect(4,4,4,4)"/>
			<v:textRect cx="94.146" cy="483.578" width="188.3" height="72"/>
			<rect x="0" y="447.578" width="188.292" height="72" class="st19"/>
			<text x="48.27" y="467.38" class="st16" v:langID="1033"><v:paragraph v:horizAlign="1"/><v:tabList/>Beach Scene<v:newlineChar/><v:newlineChar/></text>		</g>
		<g id="shape109-83" v:mID="109" v:groupContext="shape" transform="translate(52.4791,-58.1941)">
			<title>Rounded Rectangle.109</title>
			<desc>Task Continue</desc>
			<v:userDefs>
				<v:ud v:nameU="CTypeTopLeftSnip" v:prompt="" v:val="VT0(0):5"/>
				<v:ud v:nameU="CTypeTopRightSnip" v:prompt="" v:val="VT0(0):5"/>
				<v:ud v:nameU="CTypeBotLeftSnip" v:prompt="" v:val="VT0(0):5"/>
				<v:ud v:nameU="CTypeBotRightSnip" v:prompt="" v:val="VT0(0):5"/>
				<v:ud v:nameU="CornerLockHoriz" v:prompt="" v:val="VT0(1):5"/>
				<v:ud v:nameU="CornerLockVert" v:prompt="" v:val="VT0(1):5"/>
				<v:ud v:nameU="CornerLockDiag" v:prompt="" v:val="VT0(0):5"/>
				<v:ud v:nameU="TopLeftOffset" v:prompt="" v:val="VT0(0):26"/>
				<v:ud v:nameU="TopRightOffset" v:prompt="" v:val="VT0(0):26"/>
				<v:ud v:nameU="BotLeftOffset" v:prompt="" v:val="VT0(0):26"/>
				<v:ud v:nameU="BotRightOffset" v:prompt="" v:val="VT0(0):26"/>
				<v:ud v:nameU="visVersion" v:prompt="" v:val="VT0(15):26"/>
			</v:userDefs>
			<v:textBlock v:margins="rect(4,4,4,4)"/>
			<v:textRect cx="45.5" cy="503.829" width="91.01" height="31.5"/>
			<path d="M9.1 519.58 L81.9 519.58 A9.09985 9.09985 -180 0 0 91 510.48 L91 497.18 A9.09985 9.09985 -180 0 0 81.9 488.08
						 L9.1 488.08 A9.09985 9.09985 -180 0 0 0 497.18 L0 510.48 A9.09985 9.09985 -180 0 0 9.1 519.58 Z"
					class="st20"/>
			<text x="30.14" y="508.03" class="st21" v:langID="1033"><v:paragraph v:horizAlign="1"/><v:tabList/>Enter</text>		</g>
		<g id="shape76-86" v:mID="76" v:groupContext="shape" transform="translate(234.25,-394.703)">
			<title>Rounded Rectangle.1010</title>
			<desc>Task Sleep</desc>
			<v:userDefs>
				<v:ud v:nameU="CTypeTopLeftSnip" v:prompt="" v:val="VT0(0):5"/>
				<v:ud v:nameU="CTypeTopRightSnip" v:prompt="" v:val="VT0(0):5"/>
				<v:ud v:nameU="CTypeBotLeftSnip" v:prompt="" v:val="VT0(0):5"/>
				<v:ud v:nameU="CTypeBotRightSnip" v:prompt="" v:val="VT0(0):5"/>
				<v:ud v:nameU="CornerLockHoriz" v:prompt="" v:val="VT0(1):5"/>
				<v:ud v:nameU="CornerLockVert" v:prompt="" v:val="VT0(1):5"/>
				<v:ud v:nameU="CornerLockDiag" v:prompt="" v:val="VT0(0):5"/>
				<v:ud v:nameU="TopLeftOffset" v:prompt="" v:val="VT0(0):26"/>
				<v:ud v:nameU="TopRightOffset" v:prompt="" v:val="VT0(0):26"/>
				<v:ud v:nameU="BotLeftOffset" v:prompt="" v:val="VT0(0):26"/>
				<v:ud v:nameU="BotRightOffset" v:prompt="" v:val="VT0(0):26"/>
				<v:ud v:nameU="visVersion" v:prompt="" v:val="VT0(15):26"/>
			</v:userDefs>
			<v:textBlock v:margins="rect(4,4,4,4)"/>
			<v:textRect cx="36" cy="511.704" width="72.01" height="15.75"/>
			<path d="M7.2 519.58 L64.8 519.58 A7.19988 3.59994 -180 0 0 72 515.98 L72 507.43 A7.19988 3.59994 -180 0 0 64.8 503.83
						 L7.2 503.83 A7.19988 3.59994 -180 0 0 0 507.43 L0 515.98 A7.19988 3.59994 -180 0 0 7.2 519.58 Z"
					class="st17"/>
			<text x="16.03" y="515.3" class="st18" v:langID="1033"><v:paragraph v:horizAlign="1"/><v:tabList/>Activate</text>		</g>
		<g id="group129-89" transform="translate(55.0737,657.943) rotate(-120)" v:mID="129" v:groupContext="group">
			<v:custProps>
				<v:cp v:nameU="Slices" v:lbl="" v:prompt="" v:type="0" v:format="" v:sortKey="" v:invis="false" v:ask="false"
						v:langID="1033" v:cal="0" v:val="VT0(0):26"/>
				<v:cp v:nameU="Pie1" v:lbl="" v:prompt="" v:type="0" v:format="" v:sortKey="" v:invis="false" v:ask="false"
						v:langID="1033" v:cal="0" v:val="VT0(0):26"/>
				<v:cp v:nameU="Pie2" v:lbl="" v:prompt="" v:type="0" v:format="" v:sortKey="" v:invis="false" v:ask="false"
						v:langID="1033" v:cal="0" v:val="VT0(0):26"/>
				<v:cp v:nameU="Pie3" v:lbl="" v:prompt="" v:type="0" v:format="" v:sortKey="" v:invis="false" v:ask="false"
						v:langID="1033" v:cal="0" v:val="VT0(0):26"/>
				<v:cp v:nameU="Pie4" v:lbl="" v:prompt="" v:type="0" v:format="" v:sortKey="" v:invis="false" v:ask="false"
						v:langID="1033" v:cal="0" v:val="VT0(0):26"/>
				<v:cp v:nameU="Pie5" v:lbl="" v:prompt="" v:type="0" v:format="" v:sortKey="" v:invis="false" v:ask="false"
						v:langID="1033" v:cal="0" v:val="VT0(0):26"/>
				<v:cp v:nameU="Pie6" v:lbl="" v:prompt="" v:type="0" v:format="" v:sortKey="" v:invis="false" v:ask="false"
						v:langID="1033" v:cal="0" v:val="VT0(0):26"/>
				<v:cp v:nameU="Pie7" v:lbl="" v:prompt="" v:type="0" v:format="" v:sortKey="" v:invis="false" v:ask="false"
						v:langID="1033" v:cal="0" v:val="VT0(0):26"/>
				<v:cp v:nameU="Pie8" v:lbl="" v:prompt="" v:type="0" v:format="" v:sortKey="" v:invis="false" v:ask="false"
						v:langID="1033" v:cal="0" v:val="VT0(0):26"/>
				<v:cp v:nameU="Pie9" v:lbl="" v:prompt="" v:type="0" v:format="" v:sortKey="" v:invis="false" v:ask="false"
						v:langID="1033" v:cal="0" v:val="VT0(0):26"/>
				<v:cp v:nameU="Pie10" v:lbl="" v:prompt="" v:type="0" v:format="" v:sortKey="" v:invis="false" v:ask="false"
						v:langID="1033" v:cal="0" v:val="VT0(0):26"/>
			</v:custProps>
			<v:userDefs>
				<v:ud v:nameU="Pies" v:prompt="" v:val="VT0(0):26"/>
				<v:ud v:nameU="WatchSlices" v:prompt="Calls VBA procedure to validate slice total." v:val="VT0(0):26"/>
				<v:ud v:nameU="visVersion" v:val="VT0(15):26"/>
			</v:userDefs>
			<title>Pie chart.129</title>
			<g id="shape130-90" v:mID="130" v:groupContext="shape" transform="translate(0,-35.2579)">
				<title>Sheet.130</title>
				<ellipse cx="102.692" cy="415.782" rx="102.692" ry="103.796" class="st1"/>
			</g>
			<g id="shape131-92" v:mID="131" v:groupContext="shape" transform="translate(42.3324,-136.707)">
				<title>Sheet.131</title>
				<path d="M60.36 519.58 L0 433.71 A102.692 106.144 0 0 1 163.05 519.58 L60.36 519.58 Z" class="st2"/>
			</g>
			<g id="shape132-94" v:mID="132" v:groupContext="shape" transform="translate(-317.657,686.878) rotate(-126)">
				<title>Sheet.132</title>
				<path d="M0 519.58 L102.69 519.58 L0 519.58 Z" class="st3"/>
			</g>
			<g id="shape133-96" v:mID="133" v:groupContext="shape" transform="translate(102.692,-136.707)">
				<title>Sheet.133</title>
				<desc>Mouse Input Service</desc>
				<v:userDefs/>
				<path d="M0 519.58 L102.69 519.58 L0 519.58 Z" class="st4"/>
			</g>
			<g id="shape134-98" v:mID="134" v:groupContext="shape" transform="translate(102.692,-136.707)">
				<title>Sheet.134</title>
				<desc>Render Service</desc>
				<v:userDefs/>
				<path d="M0 519.58 L101.06 519.58 L0 519.58 Z" class="st5"/>
			</g>
			<g id="shape135-100" v:mID="135" v:groupContext="shape" transform="translate(-317.657,686.878) rotate(-126)">
				<title>Sheet.135</title>
				<path d="M0 519.58 L102.69 519.58 L0 519.58 Z" class="st6"/>
			</g>
			<g id="shape136-102" v:mID="136" v:groupContext="shape" transform="translate(-317.657,686.878) rotate(-126)">
				<title>Sheet.136</title>
				<path d="M0 519.58 L102.69 519.58 L0 519.58 Z" class="st7"/>
			</g>
			<g id="shape137-104" v:mID="137" v:groupContext="shape" transform="translate(-317.657,686.878) rotate(-126)">
				<title>Sheet.137</title>
				<path d="M0 519.58 L102.69 519.58 L0 519.58 Z" class="st8"/>
			</g>
			<g id="shape138-106" v:mID="138" v:groupContext="shape" transform="translate(-317.657,686.878) rotate(-126)">
				<title>Sheet.138</title>
				<path d="M0 519.58 L102.69 519.58 L0 519.58 Z" class="st9"/>
			</g>
			<g id="shape139-108" v:mID="139" v:groupContext="shape" transform="translate(-317.657,686.878) rotate(-126)">
				<title>Sheet.139</title>
				<path d="M0 519.58 L102.69 519.58 L0 519.58 Z" class="st10"/>
			</g>
			<g id="shape140-110" v:mID="140" v:groupContext="shape" transform="translate(-318.442,685.798) rotate(-126)">
				<title>Sheet.140</title>
				<path d="M0 519.58 L101.36 519.58 L0 519.58 Z" class="st11"/>
			</g>
			<g id="shape141-112" v:mID="141" v:groupContext="shape">
				<title>Sheet.141</title>
				<rect x="0" y="489.017" width="205.384" height="30.5619" class="st12"/>
			</g>
		</g>
		<g id="shape142-114" v:mID="142" v:groupContext="shape" transform="translate(232.471,-125.042)">
			<title>Sheet.142</title>
			<desc>Task Service</desc>
			<v:userDefs/>
			<v:textBlock v:margins="rect(4,4,4,4)"/>
			<v:textRect cx="45.5" cy="503.828" width="91.01" height="31.5"/>
			<rect x="0" y="488.078" width="91" height="31.5" class="st13"/>
			<text x="6.75" y="508.03" class="st14" v:langID="1033"><v:paragraph v:horizAlign="1"/><v:tabList/>Scene Service</text>		</g>
		<g id="shape143-117" v:mID="143" v:groupContext="shape" transform="translate(-97.9201,463.094) rotate(-90)">
			<title>Circular Arrow.143</title>
			<v:userDefs>
				<v:ud v:nameU="CtrlAng1" v:prompt="" v:val="VT0(0):26"/>
				<v:ud v:nameU="CtrlAng2" v:prompt="" v:val="VT0(0):26"/>
				<v:ud v:nameU="InnerDist" v:prompt="" v:val="VT0(0):26"/>
				<v:ud v:nameU="MidAngle" v:prompt="" v:val="VT0(0):26"/>
				<v:ud v:nameU="visVersion" v:prompt="" v:val="VT0(17):26"/>
				<v:ud v:nameU="ArroOfsset" v:prompt="" v:val="VT0(0):26"/>
				<v:ud v:nameU="Row_8" v:prompt="" v:val="VT0(0):26"/>
				<v:ud v:nameU="Row_9" v:prompt="" v:val="VT0(0):26"/>
				<v:ud v:nameU="midCircleWidth" v:prompt="" v:val="VT0(0):26"/>
				<v:ud v:nameU="midCircleCenterX" v:prompt="" v:val="VT0(0):26"/>
				<v:ud v:nameU="midCircleCenterY" v:prompt="" v:val="VT0(0):26"/>
				<v:ud v:nameU="midCircleCenterX2" v:prompt="" v:val="VT0(0):26"/>
				<v:ud v:nameU="midCircleCenterY2" v:prompt="" v:val="VT0(0):26"/>
				<v:ud v:nameU="MajorAngle" v:prompt="" v:val="VT0(0):26"/>
			</v:userDefs>
			<path d="M33.16 401.43 L40.83 406.63 L36.19 372.93 L0 378.09 L7.77 383.13 A90.0767 89.282 -180 1 0 133.81 358.2 L116.37
						 383.86 A58.8711 58.3517 0 1 1 33.16 401.43 Z" class="st15"/>
		</g>
		<g id="shape144-119" v:mID="144" v:groupContext="shape" transform="translate(353.85,-125.042)">
			<title>Sheet.144</title>
			<desc>Services</desc>
			<v:userDefs/>
			<v:textBlock v:margins="rect(4,4,4,4)"/>
			<v:textRect cx="36" cy="503.828" width="72.01" height="31.5"/>
			<rect x="0" y="488.078" width="72" height="31.5" class="st13"/>
			<text x="6.31" y="509.23" class="st16" v:langID="1033"><v:paragraph v:horizAlign="1"/><v:tabList/>Services</text>		</g>
		<g id="shape145-122" v:mID="145" v:groupContext="shape" transform="translate(239.721,-94.5427)">
			<title>Rounded Rectangle.145</title>
			<desc>Task Wakeup</desc>
			<v:userDefs>
				<v:ud v:nameU="CTypeTopLeftSnip" v:prompt="" v:val="VT0(0):5"/>
				<v:ud v:nameU="CTypeTopRightSnip" v:prompt="" v:val="VT0(0):5"/>
				<v:ud v:nameU="CTypeBotLeftSnip" v:prompt="" v:val="VT0(0):5"/>
				<v:ud v:nameU="CTypeBotRightSnip" v:prompt="" v:val="VT0(0):5"/>
				<v:ud v:nameU="CornerLockHoriz" v:prompt="" v:val="VT0(1):5"/>
				<v:ud v:nameU="CornerLockVert" v:prompt="" v:val="VT0(1):5"/>
				<v:ud v:nameU="CornerLockDiag" v:prompt="" v:val="VT0(0):5"/>
				<v:ud v:nameU="TopLeftOffset" v:prompt="" v:val="VT0(0):26"/>
				<v:ud v:nameU="TopRightOffset" v:prompt="" v:val="VT0(0):26"/>
				<v:ud v:nameU="BotLeftOffset" v:prompt="" v:val="VT0(0):26"/>
				<v:ud v:nameU="BotRightOffset" v:prompt="" v:val="VT0(0):26"/>
				<v:ud v:nameU="visVersion" v:prompt="" v:val="VT0(15):26"/>
			</v:userDefs>
			<v:textBlock v:margins="rect(4,4,4,4)"/>
			<v:textRect cx="37.4062" cy="511.704" width="74.83" height="15.75"/>
			<path d="M7.48 519.58 L67.33 519.58 A7.48113 4.54993 -180 0 0 74.81 515.03 L74.81 508.38 A7.48113 4.54993 -180 0 0 67.33
						 503.83 L7.48 503.83 A7.48113 4.54993 -180 0 0 -0 508.38 L0 515.03 A7.48113 4.54993 -180 0 0 7.48 519.58
						 Z" class="st17"/>
			<text x="24.24" y="515.3" class="st18" v:langID="1033"><v:paragraph v:horizAlign="1"/><v:tabList/>Enter</text>		</g>
		<g id="shape146-125" v:mID="146" v:groupContext="shape" transform="translate(241.971,-148.667)">
			<title>Rounded Rectangle.146</title>
			<desc>Task Sleep</desc>
			<v:userDefs>
				<v:ud v:nameU="CTypeTopLeftSnip" v:prompt="" v:val="VT0(0):5"/>
				<v:ud v:nameU="CTypeTopRightSnip" v:prompt="" v:val="VT0(0):5"/>
				<v:ud v:nameU="CTypeBotLeftSnip" v:prompt="" v:val="VT0(0):5"/>
				<v:ud v:nameU="CTypeBotRightSnip" v:prompt="" v:val="VT0(0):5"/>
				<v:ud v:nameU="CornerLockHoriz" v:prompt="" v:val="VT0(1):5"/>
				<v:ud v:nameU="CornerLockVert" v:prompt="" v:val="VT0(1):5"/>
				<v:ud v:nameU="CornerLockDiag" v:prompt="" v:val="VT0(0):5"/>
				<v:ud v:nameU="TopLeftOffset" v:prompt="" v:val="VT0(0):26"/>
				<v:ud v:nameU="TopRightOffset" v:prompt="" v:val="VT0(0):26"/>
				<v:ud v:nameU="BotLeftOffset" v:prompt="" v:val="VT0(0):26"/>
				<v:ud v:nameU="BotRightOffset" v:prompt="" v:val="VT0(0):26"/>
				<v:ud v:nameU="visVersion" v:prompt="" v:val="VT0(15):26"/>
			</v:userDefs>
			<v:textBlock v:margins="rect(4,4,4,4)"/>
			<v:textRect cx="36" cy="511.704" width="72.01" height="15.75"/>
			<path d="M7.2 519.58 L64.8 519.58 A7.19988 3.59994 -180 0 0 72 515.98 L72 507.43 A7.19988 3.59994 -180 0 0 64.8 503.83
						 L7.2 503.83 A7.19988 3.59994 -180 0 0 0 507.43 L0 515.98 A7.19988 3.59994 -180 0 0 7.2 519.58 Z"
					class="st17"/>
			<text x="27.08" y="515.3" class="st18" v:langID="1033"><v:paragraph v:horizAlign="1"/><v:tabList/>Exit</text>		</g>
		<g id="group147-128" transform="translate(304.971,-141.793)" v:mID="147" v:groupContext="group">
			<v:userDefs>
				<v:ud v:nameU="BarWidth" v:prompt="" v:val="VT0(0.2):0"/>
				<v:ud v:nameU="ArrowTipY" v:prompt="" v:val="VT0(0.2):0"/>
				<v:ud v:nameU="ArcHeight" v:prompt="" v:val="VT0(0.7):0"/>
				<v:ud v:nameU="visVersion" v:prompt="" v:val="VT0(15):26"/>
				<v:ud v:nameU="BarWidth" v:prompt="" v:val="VT0(0.171875):1"/>
				<v:ud v:nameU="ArrowTipY" v:prompt="" v:val="VT0(0.15625):0"/>
				<v:ud v:nameU="ArcHeight" v:prompt="" v:val="VT0(0.3828125):0"/>
			</v:userDefs>
			<title>Curved Left Arrow.147</title>
			<g id="shape148-129" v:mID="148" v:groupContext="shape">
				<title>Sheet.148</title>
				<v:userDefs>
					<v:ud v:nameU="ArcHeight" v:prompt="" v:val="VT0(0.7):0"/>
					<v:ud v:nameU="BarWidth" v:prompt="" v:val="VT0(0.2):0"/>
					<v:ud v:nameU="ArrowBackX" v:prompt="" v:val="VT0(0.2):0"/>
					<v:ud v:nameU="ArrowTipY" v:prompt="" v:val="VT0(0.2):0"/>
					<v:ud v:nameU="FillForegnd" v:prompt="" v:val="VT5(1)"/>
					<v:ud v:nameU="ArcHeight" v:prompt="" v:val="VT0(0.3828125):0"/>
					<v:ud v:nameU="BarWidth" v:prompt="" v:val="VT0(0.171875):1"/>
					<v:ud v:nameU="ArrowTipY" v:prompt="" v:val="VT0(0.15625):0"/>
					<v:ud v:nameU="FillForegnd" v:prompt="" v:val="VT5(#e2efd9)"/>
				</v:userDefs>
				<path d="M0 508.33 L14.4 497.08 L14.4 502.14 A57.5915 13.7792 -180 0 0 72 488.36 L72 500.73 A57.5915 13.7792 0 0
							 1 14.4 514.52 L14.4 519.58 L0 508.33 Z" class="st25"/>
			</g>
			<g id="shape147-131" v:mID="147" v:groupContext="groupContent">
				<path d="M0 474.58 L0 486.95 A71.9894 13.7792 0 0 1 72 500.73 L72 488.36 A71.9894 13.7792 -180 0 0 0 474.58 Z"
						class="st26"/>
			</g>
		</g>
		<g id="shape149-133" v:mID="149" v:groupContext="shape" transform="translate(241.971,-174.418)">
			<title>Rounded Rectangle.149</title>
			<desc>Task Sleep</desc>
			<v:userDefs>
				<v:ud v:nameU="CTypeTopLeftSnip" v:prompt="" v:val="VT0(0):5"/>
				<v:ud v:nameU="CTypeTopRightSnip" v:prompt="" v:val="VT0(0):5"/>
				<v:ud v:nameU="CTypeBotLeftSnip" v:prompt="" v:val="VT0(0):5"/>
				<v:ud v:nameU="CTypeBotRightSnip" v:prompt="" v:val="VT0(0):5"/>
				<v:ud v:nameU="CornerLockHoriz" v:prompt="" v:val="VT0(1):5"/>
				<v:ud v:nameU="CornerLockVert" v:prompt="" v:val="VT0(1):5"/>
				<v:ud v:nameU="CornerLockDiag" v:prompt="" v:val="VT0(0):5"/>
				<v:ud v:nameU="TopLeftOffset" v:prompt="" v:val="VT0(0):26"/>
				<v:ud v:nameU="TopRightOffset" v:prompt="" v:val="VT0(0):26"/>
				<v:ud v:nameU="BotLeftOffset" v:prompt="" v:val="VT0(0):26"/>
				<v:ud v:nameU="BotRightOffset" v:prompt="" v:val="VT0(0):26"/>
				<v:ud v:nameU="visVersion" v:prompt="" v:val="VT0(15):26"/>
			</v:userDefs>
			<v:textBlock v:margins="rect(4,4,4,4)"/>
			<v:textRect cx="36" cy="511.704" width="72.01" height="15.75"/>
			<path d="M7.2 519.58 L64.8 519.58 A7.19988 3.59994 -180 0 0 72 515.98 L72 507.43 A7.19988 3.59994 -180 0 0 64.8 503.83
						 L7.2 503.83 A7.19988 3.59994 -180 0 0 0 507.43 L0 515.98 A7.19988 3.59994 -180 0 0 7.2 519.58 Z"
					class="st17"/>
			<text x="16.03" y="515.3" class="st18" v:langID="1033"><v:paragraph v:horizAlign="1"/><v:tabList/>Activate</text>		</g>
		<g id="shape110-136" v:mID="110" v:groupContext="shape" v:layerMember="0" transform="translate(173.5,-184.328)">
			<title>Dynamic connector.110</title>
			<path d="M0 519.58 L68.31 519.58 L72 519.58" class="st23"/>
		</g>
		<g id="shape111-141" v:mID="111" v:groupContext="shape" v:layerMember="0" transform="translate(146,-157.328)">
			<title>Dynamic connector.111</title>
			<path d="M95.22 519.58 L4.78 519.58 L0 519.58" class="st23"/>
		</g>
		<g id="shape112-146" v:mID="112" v:groupContext="shape" v:layerMember="0"
				transform="translate(373.766,920.138) rotate(165)">
			<title>Dynamic connector.112</title>
			<path d="M0 519.58 L93.52 519.58 L98.58 519.58" class="st23"/>
		</g>
		<g id="shape77-151" v:mID="77" v:groupContext="shape" v:layerMember="0" transform="translate(171.25,-403.828)">
			<title>Dynamic connector.1011</title>
			<path d="M0 519.58 L59.77 519.58 L63 519.58" class="st23"/>
		</g>
	</g>
</svg>
