<?xml version="1.0" encoding="UTF-8" standalone="no"?>
<!DOCTYPE svg PUBLIC "-//W3C//DTD SVG 1.1//EN" "http://www.w3.org/Graphics/SVG/1.1/DTD/svg11.dtd">
<!-- Generated by Microsoft Visio, SVG Export service.svg Page-1 -->
<svg xmlns="http://www.w3.org/2000/svg" xmlns:xlink="http://www.w3.org/1999/xlink" xmlns:ev="http://www.w3.org/2001/xml-events"
		xmlns:v="http://schemas.microsoft.com/visio/2003/SVGExtensions/" width="3.21431in" height="3.02479in"
		viewBox="0 0 231.43 217.785" xml:space="preserve" color-interpolation-filters="sRGB" class="st15">
	<v:documentProperties v:langID="1033" v:viewMarkup="false"/>

	<style type="text/css">
	<![CDATA[
		.st1 {fill:#000000;fill-opacity:0.4;stroke:#000000;stroke-opacity:0.4;stroke-width:0.999996}
		.st2 {fill:#f7cbac;stroke:#c7c8c8;stroke-width:0.249999}
		.st3 {fill:none;stroke:none;stroke-linecap:butt;stroke-width:0.749999}
		.st4 {fill:#feffff;font-family:Calibri;font-size:1.16666em}
		.st5 {fill:#a8d08d;stroke:#c7c8c8;stroke-width:0.249999}
		.st6 {fill:#007f7f;stroke:#c7c8c8;stroke-width:0.249999}
		.st7 {fill:#f9c499;stroke:#000000;stroke-linecap:round;stroke-linejoin:round;stroke-width:0.239999}
		.st8 {fill:#d9958f;stroke:none;stroke-linecap:round;stroke-linejoin:round;stroke-width:0.749998}
		.st9 {fill:none}
		.st10 {stroke:#000000;stroke-linecap:round;stroke-linejoin:round;stroke-width:0.239999}
		.st11 {fill:#d9958f;fill-opacity:0.4;stroke:#000000;stroke-opacity:0.4;stroke-width:0.999996}
		.st12 {fill:#d9958f;stroke:#30518f;stroke-width:0.749998}
		.st13 {fill:#fcebdd;font-family:Calibri;font-size:0.833336em}
		.st14 {fill:#c4d6a0;stroke:#000000;stroke-linecap:round;stroke-linejoin:round;stroke-width:0.239999}
		.st15 {fill:none;fill-rule:evenodd;font-size:12px;overflow:visible;stroke-linecap:square;stroke-miterlimit:3}
	]]>
	</style>

	<g v:mID="0" v:index="1" v:groupContext="foregroundPage">
		<title>Page-1</title>
		<v:pageProperties v:drawingScale="1" v:pageScale="1" v:drawingUnits="19" v:shadowOffsetX="8.99999"
				v:shadowOffsetY="-8.99999"/>
		<g id="group8-1" transform="translate(0.999996,-0.999996)" v:mID="8" v:groupContext="group">
			<v:userDefs/>
			<title>Pie Slice</title>
			<desc>Service</desc>
			<g id="shape9-2" v:mID="9" v:groupContext="shape">
				<title>Sheet.9</title>
				<path d="M0 154.15 L63.78 217.79 A90.191 89.9998 -0 0 0 63.78 90.51 L0 154.15 Z" class="st1"/>
			</g>
			<g id="shape10-4" v:mID="10" v:groupContext="shape" transform="translate(3.00637,-8.52651E-14)">
				<title>Sheet.10</title>
				<path d="M0 154.15 L63.78 217.79 A90.191 89.9998 -0 0 0 63.78 90.51 L0 154.15 Z" class="st2"/>
			</g>
			<g id="shape11-6" v:mID="11" v:groupContext="shape" transform="translate(33.5309,-57.6409)">
				<title>Sheet.11</title>
				<desc>Service</desc>
				<v:userDefs/>
				<v:textBlock v:margins="rect(0,0,0,0)"/>
				<v:textRect cx="35.0738" cy="211.785" width="70.16" height="12"/>
				<rect x="0" y="205.785" width="70.1487" height="12" class="st3"/>
				<text x="-0.01" y="207.59" class="st4" v:langID="1033"><v:paragraph/><v:tabList/>Service<v:newlineChar/></text>			</g>
		</g>
		<g id="group16-9" transform="translate(97.3737,-107.622)" v:mID="16" v:groupContext="group">
			<v:userDefs/>
			<title>Circle.21</title>
			<desc>Actor</desc>
			<g id="shape17-10" v:mID="17" v:groupContext="shape" transform="translate(2.12131,-8.52651E-14)">
				<title>Sheet.17</title>
				<path d="M0 163.89 A54 54 0 0 1 108 163.89 A54 54 0 0 1 -0 163.89 Z" class="st1"/>
			</g>
			<g id="shape18-12" v:mID="18" v:groupContext="shape" transform="translate(2.79776E-13,-2.12131)">
				<title>Sheet.18</title>
				<path d="M0 163.89 A54 54 0 0 1 108 163.89 A54 54 0 0 1 -0 163.89 Z" class="st5"/>
			</g>
			<g id="shape19-14" v:mID="19" v:groupContext="shape" transform="translate(42.9398,-50.0183)">
				<title>Sheet.19</title>
				<desc>Actor</desc>
				<v:userDefs/>
				<v:textBlock v:margins="rect(0,0,0,0)"/>
				<v:textRect cx="24.9994" cy="211.785" width="50.02" height="12"/>
				<rect x="0" y="205.785" width="50.0001" height="12" class="st3"/>
				<text x="-0.01" y="215.99" class="st4" v:langID="1033"><v:paragraph/><v:tabList/>Actor</text>			</g>
		</g>
		<g id="group20-17" transform="translate(102.993,-4.47121)" v:mID="20" v:groupContext="group">
			<v:userDefs/>
			<title>Circle.25</title>
			<desc>Content</desc>
			<g id="shape21-18" v:mID="21" v:groupContext="shape" transform="translate(3.14119,-2.84217E-13)">
				<title>Sheet.21</title>
				<path d="M0 185.05 A48.3102 32.6249 180 1 1 96.62 185.05 A48.3102 32.6249 180 1 1 0 185.05 Z" class="st1"/>
			</g>
			<g id="shape22-20" v:mID="22" v:groupContext="shape" transform="translate(3.03757E-13,-2.12131)">
				<title>Sheet.22</title>
				<path d="M0 185.05 A48.3102 32.6249 180 1 1 96.62 185.05 A48.3102 32.6249 180 1 1 0 185.05 Z" class="st6"/>
			</g>
			<g id="shape23-22" v:mID="23" v:groupContext="shape" transform="translate(24.0329,-28.8522)">
				<title>Sheet.23</title>
				<desc>Content</desc>
				<v:userDefs/>
				<v:textBlock v:margins="rect(0,0,0,0)"/>
				<v:textRect cx="51.8266" cy="211.785" width="103.67" height="12"/>
				<rect x="0" y="205.785" width="103.655" height="12" class="st3"/>
				<text x="-0.01" y="215.99" class="st4" v:langID="1033"><v:paragraph/><v:tabList/>Content</text>			</g>
		</g>
		<g id="group24-25" transform="translate(-82.2234,22.2884) rotate(-45)" v:mID="24" v:groupContext="group">
			<v:userDefs>
				<v:ud v:nameU="ShadowColor" v:prompt="" v:val="VT0(0):26"/>
				<v:ud v:nameU="ShadowPercentage" v:val="VT0(0.6):26"/>
				<v:ud v:nameU="Scale" v:val="VT0(1):26"/>
				<v:ud v:nameU="AntiScale" v:val="VT0(1):26"/>
				<v:ud v:nameU="visVersion" v:val="VT0(15):26"/>
			</v:userDefs>
			<title>Horizontal bar</title>
			<g id="shape25-26" v:mID="25" v:groupContext="shape">
				<title>Sheet.25</title>
				<path d="M0 208.79 L114.55 208.79 L114.55 204.55 L123.55 213.55 L123.55 217.79 L114.55 208.79 L123.55 217.79 L9 217.79
							 L0 208.79 Z" class="st7"/>
			</g>
			<g id="shape26-28" v:mID="26" v:groupContext="shape" transform="translate(-1.1191E-13,-9.12082)">
				<title>Sheet.26</title>
				<rect x="0" y="213.785" width="114.551" height="4.00015" class="st8"/>
			</g>
			<g id="group27-30" transform="translate(-4.79616E-13,-8.99998)" v:mID="27" v:groupContext="group">
				<title>Sheet.27</title>
				<g id="shape28-31" v:mID="28" v:groupContext="shape">
					<title>Sheet.28</title>
					<path d="M0 217.79 L0 213.55 L114.55 213.55 L0 217.79 Z" class="st9"/>
					<path d="M0 217.79 L0 213.55 L114.55 213.55" class="st10"/>
				</g>
				<g id="shape29-34" v:mID="29" v:groupContext="shape">
					<title>Sheet.29</title>
					<path d="M0 217.79 L114.55 217.79 L114.55 213.55 L0 217.79 Z" class="st9"/>
					<path d="M0 217.79 L114.55 217.79 L114.55 213.55" class="st10"/>
				</g>
			</g>
		</g>
		<g id="group30-37" transform="translate(134.493,-120.353)" v:mID="30" v:groupContext="group">
			<v:userDefs/>
			<title>Circle.46</title>
			<desc>Agent</desc>
			<g id="shape31-38" v:mID="31" v:groupContext="shape">
				<title>Sheet.31</title>
				<path d="M0 206.9 A21.0986 10.6875 180 0 1 42.19 206.9 A21.0986 10.6875 180 1 1 -0 206.9 Z" class="st11"/>
			</g>
			<g id="shape32-40" v:mID="32" v:groupContext="shape" transform="translate(2.39808E-14,-2.99999)">
				<title>Sheet.32</title>
				<path d="M0 206.9 A21.0986 10.6875 180 0 1 42.19 206.9 A21.0986 10.6875 180 1 1 -0 206.9 Z" class="st12"/>
			</g>
			<g id="shape30-42" v:mID="30" v:groupContext="groupContent">
				<v:textBlock v:margins="rect(0,0,0,0)"/>
				<v:textRect cx="21.0932" cy="205.629" width="42.19" height="24.3749"/>
				<text x="9.06" y="208.63" class="st13" v:langID="1033"><v:paragraph v:horizAlign="1"/><v:tabList/>Agent</text>			</g>
		</g>
		<g id="shape33-44" v:mID="33" v:groupContext="shape" transform="translate(-59.2836,145.126) rotate(-89.2409)">
			<title>Simple Arrow</title>
			<v:userDefs>
				<v:ud v:nameU="visVersion" v:val="VT0(15):26"/>
				<v:ud v:nameU="ArrowType" v:prompt="" v:val="VT0(2):26"/>
			</v:userDefs>
			<path d="M0 213.49 L12 209.19 L12 211.34 L37.7 211.34 L37.7 213.49 L37.7 215.64 L12 215.64 L12 217.79 L0 213.49 Z"
					class="st14"/>
		</g>
		<g id="group34-46" transform="translate(35.4929,-31.6658)" v:mID="34" v:groupContext="group">
			<v:userDefs/>
			<title>Circle.61</title>
			<desc>Agent</desc>
			<g id="shape35-47" v:mID="35" v:groupContext="shape">
				<title>Sheet.35</title>
				<path d="M-0 206.9 A21.0986 10.6875 180 0 1 42.19 206.9 A21.0986 10.6875 180 1 1 -0 206.9 Z" class="st11"/>
			</g>
			<g id="shape36-49" v:mID="36" v:groupContext="shape" transform="translate(0,-2.99999)">
				<title>Sheet.36</title>
				<path d="M-0 206.9 A21.0986 10.6875 180 0 1 42.19 206.9 A21.0986 10.6875 180 1 1 -0 206.9 Z" class="st12"/>
			</g>
			<g id="shape34-51" v:mID="34" v:groupContext="groupContent">
				<v:textBlock v:margins="rect(0,0,0,0)"/>
				<v:textRect cx="21.0932" cy="205.629" width="42.19" height="24.3749"/>
				<text x="9.06" y="208.63" class="st13" v:langID="1033"><v:paragraph v:horizAlign="1"/><v:tabList/>Agent</text>			</g>
		</g>
	</g>
</svg>
