<?xml version="1.0" encoding="UTF-8" standalone="no"?>
<!DOCTYPE svg PUBLIC "-//W3C//DTD SVG 1.1//EN" "http://www.w3.org/Graphics/SVG/1.1/DTD/svg11.dtd">
<!-- Generated by Microsoft Visio, SVG Export stage.svg Page-1 -->
<svg xmlns="http://www.w3.org/2000/svg" xmlns:xlink="http://www.w3.org/1999/xlink" xmlns:ev="http://www.w3.org/2001/xml-events"
		xmlns:v="http://schemas.microsoft.com/visio/2003/SVGExtensions/" width="3.07292in" height="3.04959in"
		viewBox="0 0 221.25 219.57" xml:space="preserve" color-interpolation-filters="sRGB" class="st11">
	<v:documentProperties v:langID="1033" v:viewMarkup="false"/>

	<style type="text/css">
	<![CDATA[
		.st1 {fill:url(#grad0-5);stroke:#547395;stroke-width:0.75}
		.st2 {fill:none;stroke:none;stroke-linecap:butt;stroke-width:0.750001}
		.st3 {fill:#feffff;font-family:Calibri;font-size:1.00001em}
		.st4 {fill:#000000;fill-opacity:0.4;stroke:#000000;stroke-opacity:0.4;stroke-width:1.02}
		.st5 {fill:#bdd0e9;stroke:#c7c8c8;stroke-width:0.25}
		.st6 {fill:#feffff;font-family:Calibri;font-size:1.16666em}
		.st7 {fill:#000000;fill-opacity:0.4;stroke:#000000;stroke-opacity:0.4;stroke-width:0.999999}
		.st8 {fill:#f7cbac;stroke:#c7c8c8;stroke-width:0.25}
		.st9 {fill:#4f83bd;stroke:#c8c8c8;stroke-width:0.25}
		.st10 {fill:#759fcc;stroke:#c7c8c8;stroke-width:0.25}
		.st11 {fill:none;fill-rule:evenodd;font-size:12px;overflow:visible;stroke-linecap:square;stroke-miterlimit:3}
	]]>
	</style>

	<defs id="Patterns_And_Gradients">
		<linearGradient id="grad0-5" x1="0" y1="0" x2="1" y2="0" gradientTransform="rotate(-110 0.5 0.5)">
			<stop offset="0" stop-color="#668bb3" stop-opacity="1"/>
			<stop offset="0.48" stop-color="#668bb3" stop-opacity="1"/>
			<stop offset="0.82" stop-color="#759fcc" stop-opacity="1"/>
		</linearGradient>
	</defs>
	<g v:mID="0" v:index="1" v:groupContext="foregroundPage">
		<title>Page-1</title>
		<v:pageProperties v:drawingScale="1" v:pageScale="1" v:drawingUnits="19" v:shadowOffsetX="9.00001"
				v:shadowOffsetY="-9.00001"/>
		<g id="group2-1" transform="translate(2.81999,-38.8199)" v:mID="2" v:groupContext="group">
			<v:userDefs/>
			<title>Circle.17</title>
			<desc>PLATFORM</desc>
			<g id="shape3-2" v:mID="3" v:groupContext="shape">
				<title>Sheet.3</title>
				<path d="M0 129.57 A90.0001 90.0001 0 0 1 180 129.57 A90.0001 90.0001 0 0 1 -0 129.57 Z" class="st1"/>
			</g>
			<g id="shape4-6" v:mID="4" v:groupContext="shape" transform="translate(67.39,-150.001)">
				<title>Sheet.4</title>
				<desc>PLATFORM</desc>
				<v:userDefs/>
				<v:textBlock v:margins="rect(0,0,0,0)"/>
				<v:textRect cx="40.0001" cy="213.57" width="80.02" height="12"/>
				<rect x="0" y="207.57" width="80.0002" height="12" class="st2"/>
				<text x="-0" y="217.17" class="st3" v:langID="1033"><v:paragraph/><v:tabList/>PLATFORM</text>			</g>
		</g>
		<g id="group5-9" transform="translate(1.02,-1.02)" v:mID="5" v:groupContext="group">
			<v:userDefs/>
			<title>Circle.8</title>
			<desc>Stage</desc>
			<g id="shape6-10" v:mID="6" v:groupContext="shape">
				<title>Sheet.6</title>
				<path d="M0 127.77 A91.8001 91.8001 0 0 1 183.6 127.77 A91.8001 91.8001 0 0 1 0 127.77 Z" class="st4"/>
			</g>
			<g id="shape7-12" v:mID="7" v:groupContext="shape" transform="translate(1.8,-1.79998)">
				<title>Sheet.7</title>
				<path d="M0 129.57 A90.0001 90.0001 0 0 1 180 129.57 A90.0001 90.0001 0 0 1 -0 129.57 Z" class="st5"/>
			</g>
			<g id="shape8-14" v:mID="8" v:groupContext="shape" transform="translate(80.59,-85.8009)">
				<title>Sheet.8</title>
				<desc>Stage</desc>
				<v:userDefs/>
				<v:textBlock v:margins="rect(0,0,0,0)"/>
				<v:textRect cx="25" cy="213.57" width="50.02" height="12"/>
				<rect x="0" y="207.57" width="50.0002" height="12" class="st2"/>
				<text x="-0.01" y="217.77" class="st6" v:langID="1033"><v:paragraph/><v:tabList/>Stage</text>			</g>
		</g>
		<g id="group9-17" transform="translate(116.82,-29.1799)" v:mID="9" v:groupContext="group">
			<v:userDefs/>
			<title>Pie Slice</title>
			<desc>Service</desc>
			<g id="shape10-18" v:mID="10" v:groupContext="shape">
				<title>Sheet.10</title>
				<path d="M0 155.93 L63.78 219.57 A90.1912 90 -180 0 0 63.78 92.29 L0 155.93 Z" class="st7"/>
			</g>
			<g id="shape11-20" v:mID="11" v:groupContext="shape" transform="translate(3.00638,-1.98952E-13)">
				<title>Sheet.11</title>
				<path d="M0 155.93 L63.78 219.57 A90.1912 90 -180 0 0 63.78 92.29 L0 155.93 Z" class="st8"/>
			</g>
			<g id="shape12-22" v:mID="12" v:groupContext="shape" transform="translate(33.531,-57.641)">
				<title>Sheet.12</title>
				<desc>Service</desc>
				<v:userDefs/>
				<v:textBlock v:margins="rect(0,0,0,0)"/>
				<v:textRect cx="35.0745" cy="213.57" width="70.16" height="12"/>
				<rect x="0" y="207.57" width="70.1489" height="12" class="st2"/>
				<text x="-0" y="209.37" class="st6" v:langID="1033"><v:paragraph/><v:tabList/>Service<v:newlineChar/></text>			</g>
		</g>
		<g id="group13-25" transform="translate(110.819,267.719) rotate(180)" v:mID="13" v:groupContext="group">
			<title>Curved Left Arrow</title>
			<g id="group14-26" v:mID="14" v:groupContext="group">
				<title>Sheet.14</title>
				<g id="shape15-27" v:mID="15" v:groupContext="shape">
					<title>Sheet.15</title>
					<path d="M0 205.17 L14.4 190.77 L14.4 197.97 A75.5888 67.7914 -0 0 0 90 130.17 L90 144.57 A75.5888 67.7914 0
								 0 1 14.4 212.37 L14.4 219.57 L0 205.17 Z" class="st9"/>
				</g>
			</g>
			<g id="shape16-29" v:mID="16" v:groupContext="shape" transform="translate(5.19584E-13,-75)">
				<title>Sheet.16</title>
				<path d="M0 137.37 L0 151.77 A89.9867 67.7914 0 0 1 90 219.57 L90 205.17 A89.9867 67.7914 -0 0 0 -0 137.37 Z"
						class="st10"/>
			</g>
		</g>
	</g>
</svg>
